<svg xmlns="http://www.w3.org/2000/svg" xmlns:xlink="http://www.w3.org/1999/xlink" xmlns:lucid="lucid" width="1360" height="1760"><g transform="translate(0 0)" lucid:page-tab-id="~HuCuohhm6Wx"><path d="M0 0h1360v1760H0z" fill="#fff"/><path d="M600 739.27c0-4.42 3.58-8 8-8h144c4.42 0 8 3.58 8 8v104c0 4.42-3.58 8-8 8H608c-4.42 0-8-3.58-8-8z" stroke="#000" stroke-opacity="0" stroke-width="2" fill="#de5f85"/><use xlink:href="#a" transform="matrix(1,0,0,1,605,736.2669042790172) translate(21.074999999999996 59.0875)"/><use xlink:href="#b" transform="matrix(1,0,0,1,605,736.2669042790172) translate(92.975 59.0875)"/><path d="M600 1228c0-4.42 3.58-8 8-8h144c4.42 0 8 3.58 8 8v104c0 4.42-3.58 8-8 8H608c-4.42 0-8-3.58-8-8z" stroke="#000" stroke-opacity="0" stroke-width="2" fill="#99d2f2"/><use xlink:href="#c" transform="matrix(1,0,0,1,605,1225) translate(44.075 58.85)"/><path d="M252.57 75c0-4.42 3.58-8 8-8h836.75c4.4 0 8 3.58 8 8v25.16c0 4.4-3.6 8-8 8H260.57c-4.42 0-8-3.6-8-8z" stroke="#000" stroke-opacity="0" stroke-width="2" fill="#fff" fill-opacity="0"/><use xlink:href="#d" transform="matrix(1,0,0,1,256.5656256923014,70.99999999994924) translate(320.5204938271605 25.782777777777778)"/><use xlink:href="#e" transform="matrix(1,0,0,1,256.5656256923014,70.99999999994924) translate(430.9451851851852 25.782777777777778)"/><path d="M441.76 106.8h482.1M441.8 106.8h-1.04M923.85 106.8h1.02" stroke="#a9afb8" stroke-width="2" fill="none"/><path d="M252.57 116.16c0-4.42 3.58-8 8-8h837.7c4.42 0 8 3.58 8 8V119c0 4.42-3.58 8-8 8h-837.7c-4.42 0-8-3.58-8-8z" stroke="#000" stroke-opacity="0" stroke-width="2" fill="#fff" fill-opacity="0"/><use xlink:href="#f" transform="matrix(1,0,0,1,256.56562569230186,112.15522395684805) translate(324.0585082304527 14.917037037037037)"/><use xlink:href="#g" transform="matrix(1,0,0,1,256.56562569230186,112.15522395684805) translate(369.94739711934153 14.917037037037037)"/><use xlink:href="#h" transform="matrix(1,0,0,1,256.56562569230186,112.15522395684805) translate(419.23546296296297 14.917037037037037)"/><use xlink:href="#i" transform="matrix(1,0,0,1,256.56562569230186,112.15522395684805) translate(431.6849485596708 14.917037037037037)"/><use xlink:href="#j" transform="matrix(1,0,0,1,256.56562569230186,112.15522395684805) translate(469.0758950617284 14.917037037037037)"/><use xlink:href="#k" transform="matrix(1,0,0,1,256.56562569230186,112.15522395684805) translate(494.5697222222222 14.917037037037037)"/><path d="M598.94 175.2c0-4.4 3.58-8 8-8h144c4.42 0 8 3.6 8 8v104c0 4.43-3.58 8-8 8h-144c-4.42 0-8-3.57-8-8z" stroke="#000" stroke-opacity="0" stroke-width="2" fill="#ff8839"/><use xlink:href="#l" transform="matrix(1,0,0,1,603.9403799263589,172.20817001812065) translate(42.074999999999996 59.0875)"/><path d="M180 428c0-4.42 3.58-8 8-8h165.15c4.42 0 8 3.58 8 8v104c0 4.42-3.58 8-8 8H188c-4.42 0-8-3.58-8-8z" stroke="#000" stroke-opacity="0" stroke-width="2" fill="#0c7cba"/><use xlink:href="#m" transform="matrix(1,0,0,1,185,425) translate(11.275000000000006 59.0875)"/><use xlink:href="#n" transform="matrix(1,0,0,1,185,425) translate(88.775 59.0875)"/><path d="M286.3 415.4l-.3-.94 158.56-51.56h3.23zm392.32-127.56L504.96 344.3h-3.24l176.6-57.4z" fill="#333"/><path d="M678.6 287.84l-.2-.63h2.16zM287.1 419.5h-15l12.15-8.82z" fill="#333"/><path d="M287.8 420h-17.22l13.93-10.13zm-14.15-1h12.78l-2.45-7.5z" fill="#333"/><use xlink:href="#o" transform="matrix(1,0,0,1,373.0466545473163,344.3096514153103) translate(0.0049999999999954525 14.396484375)"/><use xlink:href="#p" transform="matrix(1,0,0,1,373.0466545473163,344.3096514153103) translate(87.596796875 14.396484375)"/><use xlink:href="#q" transform="matrix(1,0,0,1,373.0466545473163,344.3096514153103) translate(101.2110546875 14.396484375)"/><path d="M514.5 428c0-4.42 3.6-8 8-8h165.17c4.4 0 8 3.58 8 8v104c0 4.42-3.6 8-8 8H522.5c-4.4 0-8-3.58-8-8z" stroke="#000" stroke-opacity="0" stroke-width="2" fill="#0c7cba"/><use xlink:href="#r" transform="matrix(1,0,0,1,519.5143576230928,425) translate(53.025 59.0875)"/><path d="M720 428c0-4.42 3.58-8 8-8h199.67c4.4 0 8 3.58 8 8v104c0 4.42-3.6 8-8 8H728c-4.42 0-8-3.58-8-8z" stroke="#000" stroke-opacity="0" stroke-width="2" fill="#0c7cba"/><use xlink:href="#s" transform="matrix(1,0,0,1,725,425) translate(80 38.4625)"/><use xlink:href="#t" transform="matrix(1,0,0,1,725,425) translate(22.82499999999999 60.0625)"/><use xlink:href="#u" transform="matrix(1,0,0,1,725,425) translate(38.32499999999999 60.0625)"/><use xlink:href="#v" transform="matrix(1,0,0,1,725,425) translate(176.175 60.0625)"/><use xlink:href="#w" transform="matrix(1,0,0,1,725,425) translate(14.150000000000006 81.66250000000001)"/><path d="M960 428c0-4.42 3.58-8 8-8h165.15c4.42 0 8 3.58 8 8v104c0 4.42-3.58 8-8 8H968c-4.42 0-8-3.58-8-8z" stroke="#000" stroke-opacity="0" stroke-width="2" fill="#0c7cba"/><use xlink:href="#x" transform="matrix(1,0,0,1,965,425) translate(16.049999999999997 59.0875)"/><use xlink:href="#y" transform="matrix(1,0,0,1,965,425) translate(67.05 59.0875)"/><use xlink:href="#z" transform="matrix(1,0,0,1,965,425) translate(108 59.0875)"/><path d="M234.75 357.08l-28.38 18.03-23.8 16.58-19.84 15.07-16.5 13.67-13.76 12.4L121 444.07l-9.63 10.27-8.1 9.4-6.84 8.62-5.78 7.98-4.9 7.4-4.18 6.9-3.55 6.47-3 6.1-2.57 5.74-2.15 5.45-1.8 5.2-1.5 4.96-1.22 4.78-.98 4.6-.75 4.46-.54 4.32-.34 4.22-.17 4.12v4.05l.17 4 .33 3.93.5 3.9.66 3.88.83 3.88.98 3.87 1.18 3.9 1.37 3.9 1.58 3.98 1.8 4 2.04 4.1 2.3 4.18 2.6 4.28 2.93 4.4 3.3 4.54 3.74 4.7 4.24 4.88 4.8 5.1 5.47 5.34 6.27 5.62 7.2 5.94 8.33 6.3 9.7 6.72 11.37 7.2 13.46 7.74 16.1 8.38 19.42 9.1 23.77 9.94 29.48 10.9 37.2 12.02 47.8 13.25 62.87 14.6 84.9 16 117.87 17.15-.14 1-117.9-17.15-84.93-16-62.9-14.63-47.87-13.27-37.23-12.02-29.52-10.92-23.8-9.94-19.47-9.12-16.13-8.4-13.5-7.76-11.4-7.22-9.74-6.74-8.35-6.33-7.24-5.98-6.28-5.65-5.5-5.37-4.83-5.13-4.26-4.9-3.76-4.75-3.33-4.57-2.96-4.43-2.63-4.3-2.32-4.22-2.05-4.13-1.8-4.06-1.6-4-1.4-3.94-1.18-3.94-1-3.9-.84-3.92-.67-3.92-.5-3.95-.33-3.97-.18-4.03v-4.1l.16-4.15.35-4.26.56-4.37.76-4.5.98-4.64 1.23-4.8 1.5-5.02 1.83-5.24 2.17-5.5 2.57-5.78 3.03-6.12 3.57-6.5 4.2-6.93 4.93-7.43 5.8-8 6.87-8.68 8.12-9.43 9.66-10.3 11.5-11.28 13.8-12.43 16.53-13.7 19.88-15.1 23.84-16.6 28.4-18.04 12.97-7.5h1.98zM582.6 228.4l-2.54.17-13 1.4-16.44 2.45-20.8 4-26.16 6.2-32.12 9.03-37.87 12.37-42.03 15.7-43.47 18.32-41.92 19.78-23.54 12.33h-2.14l25.25-13.23 41.97-19.8 43.5-18.34 42.07-15.7 37.9-12.4 32.17-9.03 26.2-6.2 20.85-4.02 16.48-2.46 13.04-1.4 2.57-.16z" fill="#333"/><path d="M600 790.76v1l-.6-.08.13-1zM597.32 227.28l-14.05 5.23-.4-9.25z" fill="#333"/><path d="M598.94 227.2l-16.14 6.02-.46-10.63zm-15.2 4.6l11.97-4.45-12.3-3.43z" fill="#333"/><use xlink:href="#A" transform="matrix(1,0,0,1,201.10582027772705,330.1459700041332) translate(0.005000000000002558 14.396484375)"/><use xlink:href="#B" transform="matrix(1,0,0,1,201.10582027772705,330.1459700041332) translate(61.9239453125 14.396484375)"/><path d="M542.35 650.1l28.44 8.54 19.68 6.83 14.84 5.86 11.7 5.2 9.5 4.7 7.9 4.34 6.64 4.02 5.67 3.75 4.9 3.56 4.26 3.38 3.72 3.22 3.3 3.1 2.92 2.98 2.6 2.88 2.33 2.82 1.25 1.64-.8.6-1.23-1.62-2.3-2.78-2.6-2.86-2.88-2.95-3.27-3.06-3.7-3.2-4.23-3.34-4.86-3.52-5.63-3.75-6.6-4-7.86-4.3-9.47-4.7-11.67-5.18-14.8-5.84-19.64-6.8-28.4-8.54-66.26-15.93v-1.03zM271.1 541.56l.1 1.52.16 1.48.22 1.46.27 1.45.34 1.42.38 1.4.46 1.43.53 1.42.6 1.43.68 1.44.76 1.46.87 1.48.96 1.52 1.1 1.55 1.2 1.6 1.38 1.67 1.56 1.72 1.76 1.8 2.02 1.9 2.3 1.98 2.7 2.12 3.1 2.27 3.7 2.44 4.4 2.66 5.33 2.92 6.58 3.26 8.33 3.7 10.9 4.3 15.05 5.23 22.92 6.88 42.5 10.73v1.05l-42.76-10.8-22.98-6.9-15.1-5.22L322.5 593l-8.37-3.7-6.62-3.3-5.36-2.94-4.44-2.68-3.72-2.47-3.16-2.28-2.7-2.15-2.35-2.02-2.05-1.92-1.8-1.83-1.57-1.75-1.4-1.7-1.24-1.63-1.1-1.6-.98-1.54-.88-1.52-.8-1.5-.68-1.48-.62-1.46-.54-1.46-.47-1.46-.4-1.46-.36-1.47-.28-1.48-.23-1.5-.16-1.54-.1-1.56v-1.1h1z" fill="#7ab648"/><path d="M271.1 540.5l-1 .03-.02-.53h1zM679.17 729.88l-11.3-9.88 7.97-4.75z" fill="#7ab648"/><path d="M680 731.27l-12.97-11.35 9.15-5.45zm-11.27-11.2l9.6 8.42-2.82-12.47z" fill="#7ab648"/><use xlink:href="#C" transform="matrix(1,0,0,1,414.26192168371375,617.9183605923885) translate(0.004999999999999005 14.396484375)"/><path d="M984.35 704.37l-7.55 7.4-8.02 7.2-8.5 7.05-9 6.83-9.52 6.6-10.03 6.38-10.55 6.08-11.06 5.8-11.57 5.44-12.07 5.07-12.56 4.68-13 4.23-13.45 3.76-13.84 3.25-14.2 2.7-14.5 2.15-14.78 1.56-15 .95-14.64.3v-1l14.62-.3 14.94-.94 14.74-1.54 14.46-2.13 14.16-2.7 13.8-3.24 13.4-3.75 12.98-4.2 12.5-4.67 12.04-5.06 11.54-5.42 11.02-5.76 10.5-6.07 10-6.34 9.48-6.6 8.97-6.8 8.48-7 8-7.2 7.5-7.36 5.65-6h1.37zm66.2-147.96l-.83 9.77-1.26 9.98-1.65 9.74-2 9.5-2.4 9.32-2.75 9.12-3.12 8.95-3.48 8.78-3.84 8.63-4.2 8.5-4.6 8.35-4.98 8.22-5.37 8.1-4.15 5.7h-1.23l4.56-6.28 5.35-8.06 4.95-8.2 4.58-8.3 4.2-8.45 3.83-8.6 3.46-8.76 3.1-8.9 2.74-9.1 2.38-9.26 2-9.48 1.65-9.7 1.25-9.93.82-9.74z" fill="#7ab648"/><path d="M760.53 791.76H760v-1h.5zM1054.7 556.03l-9.28-.3 5.1-14.1z" fill="#7ab648"/><path d="M1055.36 556.55l-10.64-.35 5.86-16.2zm-9.23-1.3l7.9.25-3.56-12.27z" fill="#7ab648"/><use xlink:href="#A" transform="matrix(1,0,0,1,894.2091354392026,679.0665044481983) translate(0.0049999999999954525 14.396484375)"/><use xlink:href="#D" transform="matrix(1,0,0,1,894.2091354392026,679.0665044481983) translate(61.923945312499995 14.396484375)"/><use xlink:href="#E" transform="matrix(1,0,0,1,894.2091354392026,679.0665044481983) translate(114.456171875 14.396484375)"/><use xlink:href="#F" transform="matrix(1,0,0,1,894.2091354392026,679.0665044481983) translate(158.5596875 14.396484375)"/><path d="M818.06 551.85l-1.4.87-2.67 1.52-3.33 1.7-4.17 1.93-5.3 2.2-6.9 2.5-9.07 2.88-12.15 3.3-16.5 3.74-22.5 4.12-30.35 4.26-39.5 3.88-47.86 2.7-19.73.3v-1l19.7-.3 47.83-2.7 39.44-3.87 30.33-4.27 22.46-4.12 16.44-3.72 12.1-3.3 9.04-2.86 6.85-2.5 5.27-2.16 4.13-1.9 3.28-1.7 2.66-1.5 1.37-.86zm-535.5-7.28l13.92 5.27 16.6 5.5 19.95 5.68 24.08 5.8 29.14 5.7 35.1 5.4 41.74 4.6 43.93 3.02v1l-44-3.02-41.8-4.62-35.14-5.4-29.16-5.72-24.12-5.8-20-5.7-16.64-5.5-13.96-5.28-11.34-4.84.4-.92zM270.86 540.66l-1.56-.66h1.84zM821.27 554.5l-6.56-6.55 13.38-6.8z" fill="#7ab648"/><path d="M821.4 555.35l-7.53-7.53 15.35-7.82zm-5.85-7.27l5.58 5.6 5.8-11.4z" fill="#7ab648"/><use xlink:href="#G" transform="matrix(1,0,0,1,507.0137161305382,578.121513002738) translate(0.005000000000002558 14.396484375)"/><path d="M1207 616.3l-3.02 9.98-3.62 10.4-4.26 10.75-4.9 11-5.55 11.18-6.17 11.22-6.76 11.15-7.3 11-7.8 10.75-8.27 10.4-8.65 10.04-9 9.6-9.3 9.1-9.57 8.6-9.8 8.1-9.97 7.58-10.16 7.06-10.3 6.54-10.46 6.04-10.6 5.53-10.7 5.06-10.87 4.56-11 4.1-11.16 3.62-11.3 3.16-11.5 2.7-11.7 2.22-11.92 1.76-12.17 1.28-12.42.78-12.74.27-13.08-.27-13.46-.85-13.88-1.46-14.36-2.12-14.88-2.85-15.47-3.63-16.13-4.5-16.88-5.5-17.7-6.6-13.43-5.63.4-.93 13.4 5.63 17.65 6.58 16.84 5.47 16.1 4.5 15.43 3.63 14.83 2.83 14.3 2.13 13.85 1.45 13.42.85 13.04.28 12.7-.26 12.4-.78 12.1-1.27 11.9-1.76 11.64-2.22 11.46-2.7 11.28-3.14 11.1-3.6 10.98-4.1 10.82-4.54 10.7-5.02 10.54-5.52 10.42-6 10.27-6.53 10.12-7.04 9.95-7.55 9.75-8.07 9.54-8.57 9.28-9.08 8.97-9.56 8.63-10 8.23-10.4 7.8-10.7 7.28-10.96 6.74-11.12 6.14-11.18 5.53-11.12 4.87-10.97 4.25-10.72 3.6-10.36 3-9.94 2-7.7h1.03zm-61.6-136.7l3.96.24 3.7.38 3.47.52 3.27.62 3.1.72 2.9.82 2.8.9 2.65 1 2.53 1.06 2.43 1.14 2.34 1.2 2.24 1.3 2.16 1.38 2.08 1.45 2.02 1.53 1.95 1.6 1.88 1.72 1.84 1.8 1.8 1.9 1.72 2 1.68 2.13 1.64 2.26 1.58 2.4 1.54 2.53 1.48 2.68 1.42 2.87 1.37 3.07 1.3 3.28 1.22 3.5 1.13 3.78 1.04 4.05.93 4.35.8 4.7.63 5.05.45 5.46.25 5.9v6.34l-.3 6.85-.6 7.36-1.02 7.9-.06.38h-1l.08-.53 1-7.85.6-7.32.3-6.8v-6.32l-.25-5.84-.45-5.42-.63-5.02-.8-4.65-.9-4.32-1.03-4-1.12-3.73-1.2-3.47-1.3-3.24-1.34-3.02-1.4-2.84-1.47-2.65-1.5-2.5-1.56-2.37-1.6-2.2-1.67-2.1-1.7-1.98-1.76-1.87-1.8-1.77-1.86-1.67-1.92-1.6-2-1.5-2.04-1.42-2.12-1.34-2.2-1.27-2.3-1.2-2.4-1.13-2.48-1.05-2.6-.97-2.76-.9-2.88-.8-3.05-.7-3.24-.63-3.43-.5-3.66-.4-3.9-.23-3.72-.1.02-1zM1141.68 479.5l-.02 1h-.5v-1zM776.4 793.5l-3.77 8.46-11.15-10.04z" fill="#c92d39"/><path d="M777.13 793.06l-4.33 9.73-12.8-11.53zm-4.68 8.07l3.2-7.2-12.7-1.35z" fill="#c92d39"/><use xlink:href="#H" transform="matrix(1,0,0,1,1115.171690637556,589.7386335033934) translate(0.0049999999999954525 14.396484375)"/><use xlink:href="#D" transform="matrix(1,0,0,1,1115.171690637556,589.7386335033934) translate(45.066523437499995 14.396484375)"/><use xlink:href="#E" transform="matrix(1,0,0,1,1115.171690637556,589.7386335033934) translate(97.59875 14.396484375)"/><use xlink:href="#F" transform="matrix(1,0,0,1,1115.171690637556,589.7386335033934) translate(141.702265625 14.396484375)"/><path d="M767.05 358.96l6.06 1.83 5.53 1.9 5.02 2 4.54 2.02 4.1 2.03 3.72 2.05 3.37 2.03 3.03 2.03 2.77 2 2.5 2 2.3 1.96 2.06 1.94 1.9 1.93 1.7 1.9 1.58 1.9 1.43 1.88 1.3 1.88 1.2 1.87 1.07 1.87.98 1.87.88 1.88.8 1.88.7 1.9.63 1.93.54 1.96.47 1.98.38 2.02.3 2.06.23 2.1.14 2.18.02 1.73h-1l-.03-1.7-.15-2.13-.2-2.07-.3-2.02-.4-1.98-.45-1.94-.53-1.9-.6-1.9-.7-1.86-.78-1.85-.88-1.84-.96-1.82-1.06-1.84-1.16-1.83-1.28-1.83-1.4-1.85-1.55-1.87-1.68-1.87-1.86-1.9-2.04-1.92-2.25-1.94-2.48-1.96-2.74-1.98-3-2-3.34-2.02-3.68-2.02-4.07-2.02-4.5-2-4.98-1.97-5.5-1.9-6.02-1.82-6.14-1.58v-1.03zm-96.03-.6l-6.15 1.57-6.02 1.82-5.48 1.9-4.97 1.97-4.5 2-4.08 2.03-3.68 2.02-3.33 2-3 2-2.73 2-2.48 1.96-2.25 1.94-2.05 1.9-1.85 1.9-1.7 1.9-1.54 1.85-1.4 1.85-1.27 1.84-1.17 1.85-1.06 1.83-.95 1.84-.87 1.84-.78 1.85-.7 1.87-.05.2-.95-.32.06-.2.7-1.9.8-1.9.9-1.88.97-1.87 1.08-1.87 1.2-1.87 1.3-1.88 1.43-1.88 1.57-1.9 1.72-1.9 1.88-1.93 2.08-1.95 2.28-1.96 2.5-2 2.77-2 3.04-2.02 3.37-2.04 3.72-2.04 4.1-2.04 4.55-2.02 5.02-1.98 5.52-1.93 6.06-1.83 6.42-1.65zM828.33 420h-1v-.5l1-.03zM610.98 405.07l-6.88 13.33-2.27-14.82z" fill="#c92d39"/><path d="M611.74 404.7l-7.9 15.3-2.6-17.03zm-7.38 12.1l5.86-11.34-7.8-1.28z" fill="#c92d39"/><use xlink:href="#G" transform="matrix(1,0,0,1,671.0214205292714,343.5520776515998) translate(0.005000000000002558 14.396484375)"/><path d="M598.94 988c0-4.42 3.58-8 8-8H812c4.42 0 8 3.58 8 8v104c0 4.42-3.58 8-8 8H606.94c-4.42 0-8-3.58-8-8z" stroke="#000" stroke-opacity="0" stroke-width="2" fill="#834187"/><use xlink:href="#I" transform="matrix(1,0,0,1,603.9403799263589,985) translate(28.650000000000006 59.0875)"/><path d="M881.76 952.66l-28.44 5.85-97.66 15.86-29.88 3.98-.13-1 29.86-3.97 97.64-15.84 28.62-5.9zM715.78 286.93l37.83 1.8 38.64 3.5 39.17 5.17 39.37 6.9 39.17 8.56L948.5 323l37.47 11.55 35.98 12.77 34.08 13.72 31.9 14.4 29.48 14.86 26.98 15.02 24.43 15 21.97 14.76 19.6 14.4 17.43 13.98 15.42 13.45 13.6 12.92 11.95 12.36 10.5 11.8 9.23 11.27 8.07 10.76 7.06 10.3 6.16 9.82 5.36 9.42 4.66 9.04 4.03 8.7 3.47 8.36 2.95 8.1 2.5 7.8 2.07 7.6 1.68 7.4 1.34 7.2 1 7.04.68 6.9.4 6.8.1 6.67-.2 6.6-.44 6.54-.72 6.48-1 6.46-1.26 6.45-1.56 6.44-1.85 6.48-2.15 6.52-2.5 6.57-2.83 6.66-3.22 6.74-3.64 6.85-4.1 7-4.6 7.14-5.14 7.32-5.8 7.54-6.5 7.76-7.33 8.04-8.26 8.32-9.34 8.66-10.6 9.03-12.05 9.43-13.8 9.9-15.84 10.38-18.3 10.94-21.3 11.54-24.95 12.18-29.43 12.88-35 13.6-42 14.32-50.95 15.02-29.77 7.43h-4.13l33.64-8.4 50.9-15.02 42-14.3 34.94-13.6 29.4-12.85 24.9-12.16 21.26-11.52 18.28-10.9 15.82-10.38 13.76-9.87 12.02-9.4 10.56-9 9.3-8.63 8.23-8.3 7.3-8 6.47-7.74 5.77-7.5 5.14-7.3 4.58-7.1 4.07-6.96 3.6-6.82 3.2-6.7 2.84-6.6 2.47-6.55 2.16-6.47 1.84-6.44 1.54-6.42 1.26-6.4 1-6.43.7-6.45.45-6.5.18-6.56-.1-6.64-.4-6.74-.67-6.86-1-7-1.3-7.16-1.7-7.35-2.06-7.56-2.48-7.8-2.94-8.03-3.44-8.33-4.02-8.65-4.64-9-5.34-9.4-6.14-9.78-7.04-10.25-8.05-10.74-9.18-11.23-10.48-11.77-11.93-12.33-13.56-12.88-15.38-13.42-17.4-13.94-19.56-14.4-21.93-14.75-24.4-14.96-26.93-15.02-29.45-14.82-31.86-14.4-34.05-13.7-35.94-12.76-37.44-11.54-38.5-10.12-39.14-8.56-39.33-6.9-39.12-5.17-38.6-3.46-37.78-1.8-36.3-.23v-1zM679.47 287.7h-3.52v-.5h3.52zM725.83 982.5l-14.76-2.7 13.53-6.5z" fill="#c92d39"/><path d="M726.4 983.12L709.48 980l15.54-7.44zm-13.72-3.55l12.56 2.3-1.04-7.8z" fill="#c92d39"/><use xlink:href="#J" transform="matrix(1,0,0,1,881.7593234321199,934.393219210396) translate(0.005000000000002558 14.396484375)"/><path d="M280 988c0-4.42 3.58-8 8-8h165.15c4.42 0 8 3.58 8 8v104c0 4.42-3.58 8-8 8H288c-4.42 0-8-3.58-8-8z" stroke="#000" stroke-opacity="0" stroke-width="2" fill="#834187"/><use xlink:href="#K" transform="matrix(1,0,0,1,285,985) translate(7.1499999999999915 59.0875)"/><use xlink:href="#L" transform="matrix(1,0,0,1,285,985) translate(55.099999999999994 59.0875)"/><use xlink:href="#M" transform="matrix(1,0,0,1,285,985) translate(80.1 59.0875)"/><path d="M501.73 1040.5h-24.2v-1h24.2zm96.7 0h-40.07v-1h40.08zM598.94 1040.5h-.5v-1h.5zM477.04 1044.64l-14.27-4.64 14.27-4.64z" fill="#333"/><path d="M477.54 1045.32l-16.4-5.32 16.4-5.32zM464.4 1040l12.14 3.95v-7.9z" fill="#333"/><use xlink:href="#N" transform="matrix(1,0,0,1,501.7309722136217,1030.70556640625) translate(0.004999999999999005 14.396484375)"/><path d="M290.6 868c0-4.42 3.58-8 8-8h143.95c4.42 0 8 3.58 8 8v64c0 4.42-3.58 8-8 8H298.6c-4.42 0-8-3.58-8-8z" stroke="#000" stroke-opacity="0" stroke-width="2" fill="#834187"/><g><use xlink:href="#O" transform="matrix(1,0,0,1,295.59876607775016,865) translate(26.025 38.4625)"/></g><path d="M202.28 864.6l12.7 6.7 13.44 6.4 14.24 6.04 15.12 5.7 16.1 5.3 1.1.3-.28.97-1.13-.3-16.13-5.32-15.16-5.7L228 878.6l-13.47-6.4-12.73-6.73-10.3-6h2zm274.25-657.07l22.32 1.5 23.32 2.55 24.4 3.7 25.58 5 26.4 6.32-.23.97-26.38-6.3-25.55-5-24.36-3.7-23.27-2.54-22.3-1.5-21.37-.54-20.55.33-19.8 1.16-19.1 1.92-18.46 2.65-17.86 3.32-17.3 3.97-16.77 4.6L309 231.2l-15.82 5.8-15.36 6.38-14.93 6.96-14.53 7.5-14.1 8.08-13.72 8.62-13.3 9.16-12.9 9.7-12.5 10.26-12.06 10.77-11.65 11.3-11.18 11.8-10.7 12.3-10.22 12.8-9.7 13.23-9.16 13.66-8.6 14.05-8 14.4-7.38 14.73-6.74 14.98-6.1 15.2-5.4 15.35-4.75 15.45-4.04 15.5-3.37 15.5-2.68 15.42-2 15.32-1.34 15.15-.68 14.95-.06 14.7.55 14.45 1.14 14.15 1.68 13.83 2.23 13.5 2.74 13.15 3.22 12.8 3.7 12.47 4.16 12.1 4.6 11.77 5.03 11.4 5.45 11.1 5.86 10.75 6.27 10.42 6.66 10.1 7.06 9.83 7.47 9.5 7.9 9.24 8.33 8.93 8.77 8.66 9.24 8.38 9.74 8.12 7.83 6h-1.64l-6.8-5.22-9.77-8.14-9.27-8.42-8.82-8.7-8.36-8.97-7.92-9.25-7.5-9.55-7.1-9.85-6.68-10.15-6.28-10.47-5.87-10.8-5.47-11.1-5.04-11.46-4.6-11.8-4.2-12.15-3.7-12.5-3.25-12.84-2.73-13.2-2.24-13.54-1.7-13.88-1.12-14.2-.54-14.47.07-14.76.7-15 1.33-15.2 2-15.35 2.68-15.47 3.37-15.53 4.07-15.54 4.75-15.48 5.43-15.4 6.1-15.23 6.77-15.03 7.4-14.76 8.02-14.43 8.6-14.1 9.2-13.68 9.7-13.28 10.26-12.82 10.73-12.33 11.2-11.84 11.68-11.33 12.1-10.8 12.53-10.27 12.93-9.74 13.34-9.2 13.74-8.64 14.15-8.1 14.54-7.52 14.98-6.97 15.4-6.4 15.85-5.82 16.32-5.23 16.8-4.62 17.34-4 17.9-3.32 18.5-2.65 19.13-1.93 19.84-1.17 20.6-.34z" fill="#5abaa7"/><path d="M598.94 226.7v1.02l-.63-.15.24-.97zM289.04 899.56l-15 .56 2.54-8.92z" fill="#5abaa7"/><path d="M290.6 900l-17.22.65 2.9-10.24zm-15.88-.4l12.77-.48-10.62-7.12z" fill="#5abaa7"/><g><use xlink:href="#P" transform="matrix(1,0,0,1,110.27546215141084,840.8892229018941) translate(0.0049999999999954525 14.396484375)"/><use xlink:href="#Q" transform="matrix(1,0,0,1,110.27546215141084,840.8892229018941) translate(69.22765625 14.396484375)"/></g><path d="M402.3 480.5h-24.76v-1h24.76zm111.7 0h-13.33v-1H514zM514.5 480.5h-.5v-1h.5zM377.04 484.64L362.77 480l14.27-4.64z" fill="#5abaa7"/><path d="M377.54 485.32l-16.4-5.32 16.4-5.32zM364.4 480l12.14 3.95v-7.9z" fill="#5abaa7"/><g><use xlink:href="#R" transform="matrix(1,0,0,1,402.30210673837536,470.70556640625) translate(0.005000000000002558 14.396484375)"/></g><path d="M825.3 1177.8l-5.43 1.94-71.2 22.22-52.72 14.25-.26-.96 52.7-14.24 71.15-22.2 5.74-2.07zM803.56 230l42.1 4.9 39.7 6.3 37.38 7.57 35.16 8.66 33.02 9.6 30.95 10.44 28.98 11.14 27.08 11.75 25.28 12.24 23.57 12.63 21.92 12.98 20.36 13.26 18.9 13.45 17.5 13.6 16.2 13.7 14.96 13.77 13.8 13.8 12.67 13.82 11.64 13.8 10.67 13.76 9.75 13.73 8.88 13.67 8.05 13.63 7.26 13.58 6.53 13.52 5.82 13.47 5.13 13.42 4.5 13.38 3.87 13.36 3.26 13.33 2.68 13.32 2.1 13.32 1.54 13.34.97 13.37.4 13.42-.14 13.47-.7 13.54-1.3 13.64-1.9 13.75-2.5 13.88-3.16 14.03-3.82 14.2-4.52 14.38-5.26 14.6-6.07 14.82-6.92 15.08-7.84 15.36-8.84 15.66-9.93 16-11.13 16.34-12.45 16.73-13.9 17.12-15.5 17.56-17.3 18-19.3 18.5-21.55 18.95-24.1 19.46-26.93 20-30.2 20.46-33.9 20.97-38.1 21.43-42.98 21.83-48.56 22.15-51.18 20.82v-1.08l50.8-20.66 48.5-22.15 42.92-21.83 38.1-21.4 33.85-20.95 30.16-20.45 26.9-19.95 24.05-19.43 21.52-18.95 19.28-18.44 17.26-17.97L1255 915l13.86-17.1 12.42-16.68 11.1-16.3 9.92-15.97 8.83-15.62 7.82-15.33 6.9-15.04 6.05-14.8 5.25-14.54 4.5-14.35 3.82-14.15 3.14-14 2.5-13.82 1.9-13.7 1.3-13.6.7-13.5.16-13.45-.4-13.37-.98-13.32-1.53-13.3-2.1-13.3-2.66-13.27-3.27-13.3-3.86-13.32-4.48-13.35-5.14-13.38-5.8-13.44-6.5-13.47-7.26-13.54-8.02-13.6-8.86-13.65-9.72-13.7-10.64-13.73-11.62-13.77-12.66-13.78-13.75-13.77-14.93-13.74-16.16-13.68-17.48-13.57-18.86-13.4-20.34-13.24-21.9-12.96-23.5-12.62-25.25-12.22-27.03-11.72-28.94-11.13-30.9-10.4-32.98-9.6-35.12-8.65-37.34-7.55-39.67-6.3-42.06-4.9-44.05-3.26.08-1z" fill="#333"/><path d="M759.5 226.75l-.06 1-.5-.04v-1zM696.54 1220.33l-14.98-.75 12.56-8.2z" fill="#333"/><path d="M697.2 1220.87L680 1220l14.43-9.4zm-14.08-1.7l12.76.63-2.06-7.62z" fill="#333"/><g><use xlink:href="#S" transform="matrix(1,0,0,1,825.2910421930846,1146.1560787399771) translate(33.087031249999995 17.596484375)"/><use xlink:href="#T" transform="matrix(1,0,0,1,825.2910421930846,1146.1560787399771) translate(23.96837890625 36.1853515625)"/></g><path d="M290.6 1508c0-4.42 3.58-8 8-8h144c4.42 0 8 3.58 8 8v104c0 4.42-3.58 8-8 8h-144c-4.42 0-8-3.58-8-8z" stroke="#000" stroke-opacity="0" stroke-width="2" fill="#3aa6dd"/><g><use xlink:href="#U" transform="matrix(1,0,0,1,295.59876607775016,1505) translate(37.099999999999994 59.0875)"/></g><path d="M476.52 1407.26l-3.36 9.83-3.55 8.94-3.7 8.14-3.8 7.42-3.92 6.75-3.96 6.15-4 5.6-4.03 5.07-4.04 4.6-4.03 4.18-4 3.77-4 3.4-3.93 3.04-3.9 2.72-3.86 2.42-3.8 2.13-3.75 1.87-3.7 1.62-3.63 1.4-3.56 1.16-3.5.96-3.43.76-3.36.58-3.3.4-3.23.24-2.66.07v-1l2.62-.08 3.2-.23 3.24-.4 3.32-.58 3.4-.75 3.44-.95 3.5-1.15 3.6-1.37 3.64-1.6 3.7-1.85 3.77-2.1 3.8-2.4 3.88-2.7 3.9-3 3.96-3.37 3.97-3.74 4-4.14 4-4.57 4-5.04 3.96-5.56 3.93-6.1 3.88-6.72 3.8-7.38 3.68-8.1 3.54-8.9 3.34-9.78.46-1.57h1.04zM584 1282.93l-2.64.77-3.63 1.23-3.95 1.52-4.27 1.85-4.57 2.23-4.88 2.62-5.15 3.06-5.37 3.5-5.52 3.93-5.6 4.36-5.6 4.74-5.55 5.1-5.4 5.43-5.2 5.68-4.97 5.88-4.68 6.05-4.37 6.16-4.04 6.24-3.72 6.3-2.92 5.44h-1.13l3.17-5.94 3.74-6.33 4.06-6.28 4.4-6.2 4.7-6.07 5-5.9 5.22-5.72 5.44-5.45 5.58-5.14 5.64-4.8 5.64-4.37 5.55-3.96 5.4-3.5 5.18-3.1 4.92-2.63 4.62-2.25 4.3-1.88 4-1.53 3.66-1.26 2.65-.77zM380.5 1500H377v-.43l3.5-.08zM598.4 1280.24l-13.4 6.73-1.4-9.17z" fill="#333"/><path d="M600 1280l-15.4 7.72-1.6-10.53zm-14.62 6.2l11.42-5.7-12.6-2.1z" fill="#333"/><g><use xlink:href="#V" transform="matrix(1,0,0,1,452.2179780186892,1365.0168588614092) translate(33.087031249999995 17.596484375)"/><use xlink:href="#W" transform="matrix(1,0,0,1,452.2179780186892,1365.0168588614092) translate(27.2950390625 36.1853515625)"/></g><defs><path fill="#fff" d="M212-179c-10-28-35-45-73-45-59 0-87 40-87 99 0 60 29 101 89 101 43 0 62-24 78-52l27 14C228-24 195 4 139 4 59 4 22-46 18-125c-6-104 99-153 187-111 19 9 31 26 39 46" id="X"/><path fill="#fff" d="M106-169C34-169 62-67 57 0H25v-261h32l-1 103c12-21 28-36 61-36 89 0 53 116 60 194h-32v-121c2-32-8-49-39-48" id="Y"/><path fill="#fff" d="M141-36C126-15 110 5 73 4 37 3 15-17 15-53c-1-64 63-63 125-63 3-35-9-54-41-54-24 1-41 7-42 31l-33-3c5-37 33-52 76-52 45 0 72 20 72 64v82c-1 20 7 32 28 27v20c-31 9-61-2-59-35zM48-53c0 20 12 33 32 33 41-3 63-29 60-74-43 2-92-5-92 41" id="Z"/><path fill="#fff" d="M117-194c89-4 53 116 60 194h-32v-121c0-31-8-49-39-48C34-167 62-67 57 0H25l-1-190h30c1 10-1 24 2 32 11-22 29-35 61-36" id="aa"/><path fill="#fff" d="M100-194c63 0 86 42 84 106H49c0 40 14 67 53 68 26 1 43-12 49-29l28 8c-11 28-37 45-77 45C44 4 14-33 15-96c1-61 26-98 85-98zm52 81c6-60-76-77-97-28-3 7-6 17-6 28h103" id="ab"/><path fill="#fff" d="M24 0v-261h32V0H24" id="ac"/><g id="a"><use transform="matrix(0.05,0,0,0.05,0,0)" xlink:href="#X"/><use transform="matrix(0.05,0,0,0.05,12.950000000000001,0)" xlink:href="#Y"/><use transform="matrix(0.05,0,0,0.05,22.950000000000003,0)" xlink:href="#Z"/><use transform="matrix(0.05,0,0,0.05,32.95,0)" xlink:href="#aa"/><use transform="matrix(0.05,0,0,0.05,42.95,0)" xlink:href="#aa"/><use transform="matrix(0.05,0,0,0.05,52.95,0)" xlink:href="#ab"/><use transform="matrix(0.05,0,0,0.05,62.95,0)" xlink:href="#ac"/></g><path fill="#fff" d="M30-248c87 1 191-15 191 75 0 78-77 80-158 76V0H30v-248zm33 125c57 0 124 11 124-50 0-59-68-47-124-48v98" id="ad"/><path fill="#fff" d="M100-194c62-1 85 37 85 99 1 63-27 99-86 99S16-35 15-95c0-66 28-99 85-99zM99-20c44 1 53-31 53-75 0-43-8-75-51-75s-53 32-53 75 10 74 51 75" id="ae"/><g id="b"><use transform="matrix(0.05,0,0,0.05,0,0)" xlink:href="#ad"/><use transform="matrix(0.05,0,0,0.05,12,0)" xlink:href="#ae"/><use transform="matrix(0.05,0,0,0.05,22,0)" xlink:href="#ae"/><use transform="matrix(0.05,0,0,0.05,32,0)" xlink:href="#ac"/></g><path fill="#333" d="M233-177c-1 41-23 64-60 70L243 0h-38l-65-103H63V0H30v-248c88 3 205-21 203 71zM63-129c60-2 137 13 137-47 0-61-80-42-137-45v92" id="af"/><path fill="#333" d="M100-194c63 0 86 42 84 106H49c0 40 14 67 53 68 26 1 43-12 49-29l28 8c-11 28-37 45-77 45C44 4 14-33 15-96c1-61 26-98 85-98zm52 81c6-60-76-77-97-28-3 7-6 17-6 28h103" id="ag"/><path fill="#333" d="M206 0h-36l-40-164L89 0H53L-1-190h32L70-26l43-164h34l41 164 42-164h31" id="ah"/><path fill="#333" d="M141-36C126-15 110 5 73 4 37 3 15-17 15-53c-1-64 63-63 125-63 3-35-9-54-41-54-24 1-41 7-42 31l-33-3c5-37 33-52 76-52 45 0 72 20 72 64v82c-1 20 7 32 28 27v20c-31 9-61-2-59-35zM48-53c0 20 12 33 32 33 41-3 63-29 60-74-43 2-92-5-92 41" id="ai"/><path fill="#333" d="M114-163C36-179 61-72 57 0H25l-1-190h30c1 12-1 29 2 39 6-27 23-49 58-41v29" id="aj"/><path fill="#333" d="M85-194c31 0 48 13 60 33l-1-100h32l1 261h-30c-2-10 0-23-3-31C134-8 116 4 85 4 32 4 16-35 15-94c0-66 23-100 70-100zm9 24c-40 0-46 34-46 75 0 40 6 74 45 74 42 0 51-32 51-76 0-42-9-74-50-73" id="ak"/><g id="c"><use transform="matrix(0.05,0,0,0.05,0,0)" xlink:href="#af"/><use transform="matrix(0.05,0,0,0.05,12.950000000000001,0)" xlink:href="#ag"/><use transform="matrix(0.05,0,0,0.05,22.950000000000003,0)" xlink:href="#ah"/><use transform="matrix(0.05,0,0,0.05,35.900000000000006,0)" xlink:href="#ai"/><use transform="matrix(0.05,0,0,0.05,45.900000000000006,0)" xlink:href="#aj"/><use transform="matrix(0.05,0,0,0.05,51.85,0)" xlink:href="#ak"/></g><path fill="#a9afb8" d="M67-125c0 53 21 87 73 88 37 1 54-22 65-47l45 17C233-25 199 4 140 4 58 4 20-42 15-125 8-235 124-281 211-232c18 10 29 29 36 50l-46 12c-8-25-30-41-62-41-52 0-71 34-72 86" id="al"/><path fill="#a9afb8" d="M114-157C55-157 80-60 75 0H25v-261h50l-1 109c12-26 28-41 61-42 86-1 58 113 63 194h-50c-7-57 23-157-34-157" id="am"/><path fill="#a9afb8" d="M133-34C117-15 103 5 69 4 32 3 11-16 11-54c-1-60 55-63 116-61 1-26-3-47-28-47-18 1-26 9-28 27l-52-2c7-38 36-58 82-57s74 22 75 68l1 82c-1 14 12 18 25 15v27c-30 8-71 5-69-32zm-48 3c29 0 43-24 42-57-32 0-66-3-65 30 0 17 8 27 23 27" id="an"/><path fill="#a9afb8" d="M135-194c87-1 58 113 63 194h-50c-7-57 23-157-34-157-59 0-34 97-39 157H25l-1-190h47c2 12-1 28 3 38 12-26 28-41 61-42" id="ao"/><path fill="#a9afb8" d="M185-48c-13 30-37 53-82 52C43 2 14-33 14-96s30-98 90-98c62 0 83 45 84 108H66c0 31 8 55 39 56 18 0 30-7 34-22zm-45-69c5-46-57-63-70-21-2 6-4 13-4 21h74" id="ap"/><path fill="#a9afb8" d="M25 0v-261h50V0H25" id="aq"/><g id="d"><use transform="matrix(0.0728395061728395,0,0,0.0728395061728395,0,0)" xlink:href="#al"/><use transform="matrix(0.0728395061728395,0,0,0.0728395061728395,18.86543209876543,0)" xlink:href="#am"/><use transform="matrix(0.0728395061728395,0,0,0.0728395061728395,34.81728395061728,0)" xlink:href="#an"/><use transform="matrix(0.0728395061728395,0,0,0.0728395061728395,49.38518518518518,0)" xlink:href="#ao"/><use transform="matrix(0.0728395061728395,0,0,0.0728395061728395,65.33703703703704,0)" xlink:href="#ao"/><use transform="matrix(0.0728395061728395,0,0,0.0728395061728395,81.28888888888889,0)" xlink:href="#ap"/><use transform="matrix(0.0728395061728395,0,0,0.0728395061728395,95.85679012345679,0)" xlink:href="#aq"/></g><path fill="#a9afb8" d="M169-182c-1-43-94-46-97-3 18 66 151 10 154 114 3 95-165 93-204 36-6-8-10-19-12-30l50-8c3 46 112 56 116 5-17-69-150-10-154-114-4-87 153-88 188-35 5 8 8 18 10 28" id="ar"/><path fill="#a9afb8" d="M85 4C-2 5 27-109 22-190h50c7 57-23 150 33 157 60-5 35-97 40-157h50l1 190h-47c-2-12 1-28-3-38-12 25-28 42-61 42" id="as"/><path fill="#a9afb8" d="M135-194c53 0 70 44 70 98 0 56-19 98-73 100-31 1-45-17-59-34 3 33 2 69 2 105H25l-1-265h48c2 10 0 23 3 31 11-24 29-35 60-35zM114-30c33 0 39-31 40-66 0-38-9-64-40-64-56 0-55 130 0 130" id="at"/><path fill="#a9afb8" d="M110-194c64 0 96 36 96 99 0 64-35 99-97 99-61 0-95-36-95-99 0-62 34-99 96-99zm-1 164c35 0 45-28 45-65 0-40-10-65-43-65-34 0-45 26-45 65 0 36 10 65 43 65" id="au"/><path fill="#a9afb8" d="M135-150c-39-12-60 13-60 57V0H25l-1-190h47c2 13-1 29 3 40 6-28 27-53 61-41v41" id="av"/><path fill="#a9afb8" d="M115-3C79 11 28 4 28-45v-112H4v-33h27l15-45h31v45h36v33H77v99c-1 23 16 31 38 25v30" id="aw"/><g id="e"><use transform="matrix(0.0728395061728395,0,0,0.0728395061728395,0,0)" xlink:href="#ar"/><use transform="matrix(0.0728395061728395,0,0,0.0728395061728395,17.48148148148148,0)" xlink:href="#as"/><use transform="matrix(0.0728395061728395,0,0,0.0728395061728395,33.43333333333333,0)" xlink:href="#at"/><use transform="matrix(0.0728395061728395,0,0,0.0728395061728395,49.38518518518518,0)" xlink:href="#at"/><use transform="matrix(0.0728395061728395,0,0,0.0728395061728395,65.33703703703704,0)" xlink:href="#au"/><use transform="matrix(0.0728395061728395,0,0,0.0728395061728395,81.28888888888889,0)" xlink:href="#av"/><use transform="matrix(0.0728395061728395,0,0,0.0728395061728395,91.48641975308642,0)" xlink:href="#aw"/></g><path fill="#a9afb8" d="M179-190L93 31C79 59 56 82 12 73V49c39 6 53-20 64-50L1-190h34L92-34l54-156h33" id="ax"/><path fill="#a9afb8" d="M84 4C-5 8 30-112 23-190h32v120c0 31 7 50 39 49 72-2 45-101 50-169h31l1 190h-30c-1-10 1-25-2-33-11 22-28 36-60 37" id="ay"/><path fill="#a9afb8" d="M106-169C34-169 62-67 57 0H25v-261h32l-1 103c12-21 28-36 61-36 89 0 53 116 60 194h-32v-121c2-32-8-49-39-48" id="az"/><path fill="#a9afb8" d="M141-36C126-15 110 5 73 4 37 3 15-17 15-53c-1-64 63-63 125-63 3-35-9-54-41-54-24 1-41 7-42 31l-33-3c5-37 33-52 76-52 45 0 72 20 72 64v82c-1 20 7 32 28 27v20c-31 9-61-2-59-35zM48-53c0 20 12 33 32 33 41-3 63-29 60-74-43 2-92-5-92 41" id="aA"/><path fill="#a9afb8" d="M100-194c62-1 85 37 85 99 1 63-27 99-86 99S16-35 15-95c0-66 28-99 85-99zM99-20c44 1 53-31 53-75 0-43-8-75-51-75s-53 32-53 75 10 74 51 75" id="aB"/><g id="f"><use transform="matrix(0.04248971193415638,0,0,0.04248971193415638,0,0)" xlink:href="#ax"/><use transform="matrix(0.04248971193415638,0,0,0.04248971193415638,7.648148148148148,0)" xlink:href="#ay"/><use transform="matrix(0.04248971193415638,0,0,0.04248971193415638,16.14609053497942,0)" xlink:href="#az"/><use transform="matrix(0.04248971193415638,0,0,0.04248971193415638,24.644032921810698,0)" xlink:href="#aA"/><use transform="matrix(0.04248971193415638,0,0,0.04248971193415638,33.141975308641975,0)" xlink:href="#aB"/></g><path fill="#a9afb8" d="M135-143c-3-34-86-38-87 0 15 53 115 12 119 90S17 21 10-45l28-5c4 36 97 45 98 0-10-56-113-15-118-90-4-57 82-63 122-42 12 7 21 19 24 35" id="aC"/><g id="g"><use transform="matrix(0.04248971193415638,0,0,0.04248971193415638,0,0)" xlink:href="#ax"/><use transform="matrix(0.04248971193415638,0,0,0.04248971193415638,7.648148148148148,0)" xlink:href="#aA"/><use transform="matrix(0.04248971193415638,0,0,0.04248971193415638,16.14609053497942,0)" xlink:href="#aC"/><use transform="matrix(0.04248971193415638,0,0,0.04248971193415638,23.79423868312757,0)" xlink:href="#ay"/><use transform="matrix(0.04248971193415638,0,0,0.04248971193415638,32.29218106995884,0)" xlink:href="#aB"/></g><path fill="#a9afb8" d="M32 76v-337h29V76H32" id="aD"/><use transform="matrix(0.04248971193415638,0,0,0.04248971193415638,0,0)" xlink:href="#aD" id="h"/><path fill="#a9afb8" d="M153-248C145-148 188 4 80 4 36 3 13-21 6-62l32-5c4 25 16 42 43 43 27 0 39-20 39-49v-147H72v-28h81" id="aE"/><path fill="#a9afb8" d="M117-194c89-4 53 116 60 194h-32v-121c0-31-8-49-39-48C34-167 62-67 57 0H25l-1-190h30c1 10-1 24 2 32 11-22 29-35 61-36" id="aF"/><path fill="#a9afb8" d="M100-194c63 0 86 42 84 106H49c0 40 14 67 53 68 26 1 43-12 49-29l28 8c-11 28-37 45-77 45C44 4 14-33 15-96c1-61 26-98 85-98zm52 81c6-60-76-77-97-28-3 7-6 17-6 28h103" id="aG"/><g id="i"><use transform="matrix(0.04248971193415638,0,0,0.04248971193415638,0,0)" xlink:href="#aE"/><use transform="matrix(0.04248971193415638,0,0,0.04248971193415638,7.648148148148148,0)" xlink:href="#ay"/><use transform="matrix(0.04248971193415638,0,0,0.04248971193415638,16.14609053497942,0)" xlink:href="#aF"/><use transform="matrix(0.04248971193415638,0,0,0.04248971193415638,24.644032921810698,0)" xlink:href="#aG"/></g><path fill="#a9afb8" d="M101-251c82-7 93 87 43 132L82-64C71-53 59-42 53-27h129V0H18c2-99 128-94 128-182 0-28-16-43-45-43s-46 15-49 41l-32-3c6-41 34-60 81-64" id="aH"/><path fill="#a9afb8" d="M54-142c48-35 137-8 131 61C196 18 31 33 14-55l32-4c7 23 22 37 52 37 35-1 51-22 54-58 4-55-73-65-99-34H22l8-134h141v27H59" id="aI"/><path fill="#a9afb8" d="M68-38c1 34 0 65-14 84H32c9-13 17-26 17-46H33v-38h35" id="aJ"/><g id="j"><use transform="matrix(0.04248971193415638,0,0,0.04248971193415638,0,0)" xlink:href="#aH"/><use transform="matrix(0.04248971193415638,0,0,0.04248971193415638,8.497942386831275,0)" xlink:href="#aI"/><use transform="matrix(0.04248971193415638,0,0,0.04248971193415638,16.99588477366255,0)" xlink:href="#aJ"/></g><path fill="#a9afb8" d="M101-251c68 0 85 55 85 127S166 4 100 4C33 4 14-52 14-124c0-73 17-127 87-127zm-1 229c47 0 54-49 54-102s-4-102-53-102c-51 0-55 48-55 102 0 53 5 102 54 102" id="aK"/><path fill="#a9afb8" d="M27 0v-27h64v-190l-56 39v-29l58-41h29v221h61V0H27" id="aL"/><g id="k"><use transform="matrix(0.04248971193415638,0,0,0.04248971193415638,0,0)" xlink:href="#aH"/><use transform="matrix(0.04248971193415638,0,0,0.04248971193415638,8.497942386831275,0)" xlink:href="#aK"/><use transform="matrix(0.04248971193415638,0,0,0.04248971193415638,16.99588477366255,0)" xlink:href="#aH"/><use transform="matrix(0.04248971193415638,0,0,0.04248971193415638,25.493827160493822,0)" xlink:href="#aL"/></g><path fill="#fff" d="M240 0l2-218c-23 76-54 145-80 218h-23L58-218 59 0H30v-248h44l77 211c21-75 51-140 76-211h43V0h-30" id="aM"/><path fill="#fff" d="M210-169c-67 3-38 105-44 169h-31v-121c0-29-5-50-35-48C34-165 62-65 56 0H25l-1-190h30c1 10-1 24 2 32 10-44 99-50 107 0 11-21 27-35 58-36 85-2 47 119 55 194h-31v-121c0-29-5-49-35-48" id="aN"/><path fill="#fff" d="M115-194c53 0 69 39 70 98 0 66-23 100-70 100C84 3 66-7 56-30L54 0H23l1-261h32v101c10-23 28-34 59-34zm-8 174c40 0 45-34 45-75 0-40-5-75-45-74-42 0-51 32-51 76 0 43 10 73 51 73" id="aO"/><path fill="#fff" d="M114-163C36-179 61-72 57 0H25l-1-190h30c1 12-1 29 2 39 6-27 23-49 58-41v29" id="aP"/><g id="l"><use transform="matrix(0.05,0,0,0.05,0,0)" xlink:href="#aM"/><use transform="matrix(0.05,0,0,0.05,14.950000000000001,0)" xlink:href="#ab"/><use transform="matrix(0.05,0,0,0.05,24.950000000000003,0)" xlink:href="#aN"/><use transform="matrix(0.05,0,0,0.05,39.900000000000006,0)" xlink:href="#aO"/><use transform="matrix(0.05,0,0,0.05,49.900000000000006,0)" xlink:href="#ab"/><use transform="matrix(0.05,0,0,0.05,59.900000000000006,0)" xlink:href="#aP"/></g><path fill="#fff" d="M205 0l-28-72H64L36 0H1l101-248h38L239 0h-34zm-38-99l-47-123c-12 45-31 82-46 123h93" id="aQ"/><path fill="#fff" d="M108 0H70L1-190h34L89-25l56-165h34" id="aR"/><path fill="#fff" d="M24-231v-30h32v30H24zM24 0v-190h32V0H24" id="aS"/><g id="m"><use transform="matrix(0.05,0,0,0.05,0,0)" xlink:href="#aQ"/><use transform="matrix(0.05,0,0,0.05,11.65,0)" xlink:href="#aR"/><use transform="matrix(0.05,0,0,0.05,20.65,0)" xlink:href="#Z"/><use transform="matrix(0.05,0,0,0.05,30.649999999999995,0)" xlink:href="#aS"/><use transform="matrix(0.05,0,0,0.05,34.6,0)" xlink:href="#ac"/><use transform="matrix(0.05,0,0,0.05,38.550000000000004,0)" xlink:href="#Z"/><use transform="matrix(0.05,0,0,0.05,48.550000000000004,0)" xlink:href="#aO"/><use transform="matrix(0.05,0,0,0.05,58.550000000000004,0)" xlink:href="#ac"/><use transform="matrix(0.05,0,0,0.05,62.5,0)" xlink:href="#ab"/></g><path fill="#fff" d="M96-169c-40 0-48 33-48 73s9 75 48 75c24 0 41-14 43-38l32 2c-6 37-31 61-74 61-59 0-76-41-82-99-10-93 101-131 147-64 4 7 5 14 7 22l-32 3c-4-21-16-35-41-35" id="aT"/><path fill="#fff" d="M135-143c-3-34-86-38-87 0 15 53 115 12 119 90S17 21 10-45l28-5c4 36 97 45 98 0-10-56-113-15-118-90-4-57 82-63 122-42 12 7 21 19 24 35" id="aU"/><g id="n"><use transform="matrix(0.05,0,0,0.05,0,0)" xlink:href="#aO"/><use transform="matrix(0.05,0,0,0.05,10,0)" xlink:href="#Z"/><use transform="matrix(0.05,0,0,0.05,20,0)" xlink:href="#ac"/><use transform="matrix(0.05,0,0,0.05,23.95,0)" xlink:href="#Z"/><use transform="matrix(0.05,0,0,0.05,33.95,0)" xlink:href="#aa"/><use transform="matrix(0.05,0,0,0.05,43.95,0)" xlink:href="#aT"/><use transform="matrix(0.05,0,0,0.05,52.95,0)" xlink:href="#ab"/><use transform="matrix(0.05,0,0,0.05,62.95,0)" xlink:href="#aU"/></g><path fill="#333" d="M379-1365c368 0 677 218 677 573 0 172-83 346-249 522C639-90 470 0 299 0 185 0 128-80 128-239c0-257 31-558 68-915-53-11-80-43-80-95 0-56 32-93 97-108 26-6 82-8 166-8zm20 204c-15 77-48 489-71 917 0 13 0 27 1 41 116-22 232-92 347-210 119-123 179-241 179-355-1-195-66-277-208-343-75-35-158-50-248-50" id="aV"/><path fill="#333" d="M369 0C201 0 119-119 119-294c0-119 26-272 77-457 80-290 99-377 125-524 7-13 27-26 60-41 71-33 211-49 419-49 129 0 193 36 193 107 0 50-48 105-99 101-142-10-258-9-397 20-11 59-34 158-69 297 146-57 246-85 301-85 53 0 100 43 100 96 0 43-23 80-73 99-127 49-178 54-389 129-29 119-44 224-44 314 0 58 10 87 30 87 66 0 151-30 256-90s173-91 205-91c50 0 101 49 101 99 0 30-19 57-51 87C794-129 500 0 369 0" id="aW"/><path fill="#333" d="M492-1365c272 0 549 114 549 360 0 140-81 265-244 374-130 87-276 146-439 180-7 56-15 301-32 372-12 53-46 79-94 79-53 0-99-48-99-101 0-201 55-864 50-1044-38-23-57-56-57-99 0-39 24-69 72-90s147-31 294-31zm348 355c0-132-280-161-454-151-1 136-2 303-2 501 100-31 192-72 276-122 120-70 180-146 180-228" id="aX"/><path fill="#333" d="M609-1364c323 0 519 229 519 557 0 183-51 357-152 522C860-95 716 0 544 0 271 0 97-283 97-570c0-191 38-362 113-512 95-188 228-282 399-282zm319 550c0-231-116-347-349-347-81 0-151 81-210 243-48 132-72 248-72 348 0 161 47 272 142 333 35 23 69 34 100 34 113 0 208-76 287-229 68-131 102-258 102-382" id="aY"/><path fill="#333" d="M196-1063c0-251 371-378 608-255 71 37 119 87 150 151 35 73-14 152-87 150-26 0-63-25-111-73s-102-72-162-72c-72 0-200 37-200 99 0 43 47 111 142 203 145 142 234 232 266 271 95 116 142 225 142 328C944-95 791 0 613 0 494 0 170-60 118-111c-29-29-48-55-48-87-1-69 67-120 140-92h-2c162 59 305 89 429 89 69 0 104-25 104-75 0-69-47-151-142-245-86-86-177-167-261-254-98-100-142-199-142-288" id="aZ"/><path fill="#333" d="M46-1227c0-128 188-119 328-120 79-1 391-35 488-35 99 0 148 35 148 105 0 65-48 98-145 98-76 0-153 3-232 8 1 179-14 796-13 976C622-79 604-4 510 0c-53 2-99-44-99-97v-270c21-312 24-505 22-785-143 13-240 20-291 20-64 0-96-32-96-95" id="ba"/><path fill="#333" d="M270-1365c53 0 101 46 100 99-5 357-80 777-80 1073C290-64 254 0 183 0 132 0 82-50 82-101c0-298 47-662 55-976 2-76 19-138 34-189 19-66 52-99 99-99" id="bb"/><path fill="#333" d="M829-1263c0-55 42-106 96-102 141 10 133 224 150 372 25 219 36 341 36 365 0 117-18 227-55 328C983-97 875 5 732 5 532 5 402-187 343-570c-16 123-24 243-24 360C319-70 282 0 207 0c-53 0-99-44-99-97 0-315 85-1025 186-1197 27-46 56-71 93-71 53 0 88 33 105 99 5 21 8 92 8 213 0 153 26 313 55 481 43 253 101 379 172 379 116 0 183-303 183-438 0-120-81-513-81-632" id="bc"/><path fill="#333" d="M621-594c163 0 326 124 326 282S736 5 573 0C387-6 235-158 176-307c-32-81-50-172-50-277 0-291 84-515 251-672 123-114 255-148 401-60 53 32 90 76 121 123 44 67-17 153-85 152-24 0-53-21-88-61s-68-60-100-60c-180 0-298 367-298 568 0 189 80 393 249 393 76 0 150-57 167-118-25-60-81-80-164-74-50 4-95-50-95-100 0-67 45-101 136-101" id="bd"/><g id="o"><use transform="matrix(0.0087890625,0,0,0.0087890625,0,0)" xlink:href="#aV"/><use transform="matrix(0.0087890625,0,0,0.0087890625,9.84375,0)" xlink:href="#aW"/><use transform="matrix(0.0087890625,0,0,0.0087890625,19.4150390625,0)" xlink:href="#aX"/><use transform="matrix(0.0087890625,0,0,0.0087890625,28.7578125,0)" xlink:href="#aY"/><use transform="matrix(0.0087890625,0,0,0.0087890625,39.48046875,0)" xlink:href="#aZ"/><use transform="matrix(0.0087890625,0,0,0.0087890625,48.884765625,0)" xlink:href="#ba"/><use transform="matrix(0.0087890625,0,0,0.0087890625,58.18359375,0)" xlink:href="#bb"/><use transform="matrix(0.0087890625,0,0,0.0087890625,62.0947265625,0)" xlink:href="#bc"/><use transform="matrix(0.0087890625,0,0,0.0087890625,72.8525390625,0)" xlink:href="#bd"/></g><path fill="#333" d="M585-1365c52 0 105 52 103 104 0 2-6 43-19 123 131 10 196 52 196 126 0 55-51 107-106 107-108 0-355-108-355 57 0 82 146 76 217 100 52 17 77 52 77 101 0 65-54 97-162 97-23 1-103-6-126-5-66 0-99 25-99 75 0 35 16 60 49 76 40 19 142 29 307 29 58 0 103 48 103 105 0 59-44 103-103 103-47 0-86-1-117-2-4 40-8 80-11 120-10 33-43 49-100 49-92 0-115-94-94-193C168-229 79-310 79-435c0-100 50-180 150-241-111-92-72-239 29-331 56-51 121-89 198-111 8-165 51-247 129-247" id="be"/><use transform="matrix(0.0087890625,0,0,0.0087890625,0,0)" xlink:href="#be" id="p"/><path fill="#333" d="M1318-1365c50 0 103 50 100 100-10 151-187 568-251 746-42 119-107 332-145 435-42 112-161 111-205 2-9-23-20-69-34-138-17-86-43-213-76-384-30 121-72 279-128 471-25 85-42 143-123 143-41 0-72-22-91-66-8-19-18-59-29-120-38-220-218-897-246-1087-8-52 45-102 98-102 44 0 77 24 99 73 7 15 11 53 22 113 33 173 101 434 160 701 72-277 121-491 147-642 10-57 20-94 27-114 31-93 161-82 185 7 6 22 10 66 10 133 0 150 44 362 101 635l239-724c8-25 19-62 42-109 25-50 60-73 98-73" id="bf"/><path fill="#333" d="M925-1365c50 0 101 48 101 99 0 165-53 833-94 1164C923-33 882 0 831 0c-53 0-101-49-101-102 0-145 29-345 45-490-111 9-252 35-425 78-6 58-9 145-9 260 0 35-10 86-22 153C307-33 270 0 220 0c-53 0-103-48-102-101 6-372 65-764 56-1090-3-108 18-171 108-174 55-2 99 41 99 97v544c167-44 304-66 413-66 7-75 10-182 10-321 8-35 11-88 22-155s48-99 99-99" id="bg"/><path fill="#333" d="M387-1365c369 0 678 217 678 573 0 172-83 346-249 522C647-90 478 0 307 0 194 0 137-80 137-239c0-257 30-558 68-915-53-11-80-43-80-95 0-56 32-93 97-108 26-6 81-8 165-8zm21 204c-15 76-47 491-72 917 0 13 1 27 2 41 116-22 231-92 346-210 120-123 180-241 180-355-1-196-67-277-209-343-74-35-157-50-247-50" id="bh"/><path fill="#333" d="M432-1365c342 0 623 232 623 568 0 219-132 374-395 466 145 90 217 167 217 230 0 52-52 98-104 96-17 0-39-10-66-29-90-65-203-166-304-203v78C403-53 368 0 299 0c-53 0-99-44-99-97v-374c17-145 25-361 25-650-2 5-10 7-24 7-53 2-99-46-99-99 0-112 194-152 330-152zm257 786c221-128 209-317 21-469-89-71-178-111-268-119-1 97-2 329-2 698 90-27 172-66 249-110" id="bi"/><path fill="#333" d="M922-654c-9 182 20 369 29 555 5 90-140 139-183 58-2-3-13-31-31-85-54-160-191-263-414-306-19 75-30 243-58 360-12 50-51 72-98 72-55 0-99-53-99-108 1-366 195-896 360-1117 69-92 141-140 222-140 182 0 273 207 273 621 0 19 1 49-1 90zM724-476v-400c-20-103-13-145-35-225-11-40-25-60-40-60-32 0-83 65-154 195-56 103-99 215-130 336 137 27 256 79 359 154" id="bj"/><path fill="#333" d="M1319-1365c51 0 104 50 101 100-10 151-188 568-251 746-42 119-107 332-145 435-41 112-162 111-205 2-9-23-20-69-34-138-17-86-44-213-77-384-29 121-72 278-128 471-24 85-42 143-123 143-41 0-71-22-90-66-8-19-18-59-29-120-39-219-218-896-246-1087-8-52 44-102 97-102 45 0 77 25 99 73 7 15 12 53 23 113 33 173 101 434 160 701 72-277 121-491 147-642 10-57 21-94 27-114 29-93 161-81 184 7 6 22 11 66 11 133 0 150 43 362 100 635l239-724c8-25 20-62 43-109 25-50 60-73 97-73" id="bk"/><g id="q"><use transform="matrix(0.0087890625,0,0,0.0087890625,0,0)" xlink:href="#bf"/><use transform="matrix(0.0087890625,0,0,0.0087890625,13.11328125,0)" xlink:href="#bb"/><use transform="matrix(0.0087890625,0,0,0.0087890625,17.0244140625,0)" xlink:href="#ba"/><use transform="matrix(0.0087890625,0,0,0.0087890625,26.3232421875,0)" xlink:href="#bg"/><use transform="matrix(0.0087890625,0,0,0.0087890625,36.3603515625,0)" xlink:href="#bh"/><use transform="matrix(0.0087890625,0,0,0.0087890625,46.318359375,0)" xlink:href="#bi"/><use transform="matrix(0.0087890625,0,0,0.0087890625,56.14453125,0)" xlink:href="#bj"/><use transform="matrix(0.0087890625,0,0,0.0087890625,64.9599609375,0)" xlink:href="#bk"/><use transform="matrix(0.0087890625,0,0,0.0087890625,78.099609375,0)" xlink:href="#bb"/><use transform="matrix(0.0087890625,0,0,0.0087890625,82.0107421875,0)" xlink:href="#bc"/><use transform="matrix(0.0087890625,0,0,0.0087890625,92.7685546875,0)" xlink:href="#bd"/></g><path fill="#fff" d="M85-194c31 0 48 13 60 33l-1-100h32l1 261h-30c-2-10 0-23-3-31C134-8 116 4 85 4 32 4 16-35 15-94c0-66 23-100 70-100zm9 24c-40 0-46 34-46 75 0 40 6 74 45 74 42 0 51-32 51-76 0-42-9-74-50-73" id="bl"/><path fill="#fff" d="M177-190C167-65 218 103 67 71c-23-6-38-20-44-43l32-5c15 47 100 32 89-28v-30C133-14 115 1 83 1 29 1 15-40 15-95c0-56 16-97 71-98 29-1 48 16 59 35 1-10 0-23 2-32h30zM94-22c36 0 50-32 50-73 0-42-14-75-50-75-39 0-46 34-46 75s6 73 46 73" id="bm"/><g id="r"><use transform="matrix(0.05,0,0,0.05,0,0)" xlink:href="#ad"/><use transform="matrix(0.05,0,0,0.05,12,0)" xlink:href="#ab"/><use transform="matrix(0.05,0,0,0.05,22,0)" xlink:href="#aa"/><use transform="matrix(0.05,0,0,0.05,32,0)" xlink:href="#bl"/><use transform="matrix(0.05,0,0,0.05,42,0)" xlink:href="#aS"/><use transform="matrix(0.05,0,0,0.05,45.95,0)" xlink:href="#aa"/><use transform="matrix(0.05,0,0,0.05,55.95,0)" xlink:href="#bm"/></g><path fill="#fff" d="M185-189c-5-48-123-54-124 2 14 75 158 14 163 119 3 78-121 87-175 55-17-10-28-26-33-46l33-7c5 56 141 63 141-1 0-78-155-14-162-118-5-82 145-84 179-34 5 7 8 16 11 25" id="bn"/><path fill="#fff" d="M59-47c-2 24 18 29 38 22v24C64 9 27 4 27-40v-127H5v-23h24l9-43h21v43h35v23H59v120" id="bo"/><path fill="#fff" d="M143 0L79-87 56-68V0H24v-261h32v163l83-92h37l-77 82L181 0h-38" id="bp"/><g id="s"><use transform="matrix(0.05,0,0,0.05,0,0)" xlink:href="#bn"/><use transform="matrix(0.05,0,0,0.05,12,0)" xlink:href="#bo"/><use transform="matrix(0.05,0,0,0.05,17,0)" xlink:href="#Z"/><use transform="matrix(0.05,0,0,0.05,27,0)" xlink:href="#bp"/><use transform="matrix(0.05,0,0,0.05,36,0)" xlink:href="#ab"/></g><path fill="#fff" d="M18-150v-26h174v26H18zm0 90v-26h174v26H18" id="bq"/><use transform="matrix(0.05,0,0,0.05,0,0)" xlink:href="#bq" id="t"/><path fill="#fff" d="M16-82v-28h88v28H16" id="br"/><path fill="#fff" d="M115-194c55 1 70 41 70 98S169 2 115 4C84 4 66-9 55-30l1 105H24l-1-265h31l2 30c10-21 28-34 59-34zm-8 174c40 0 45-34 45-75s-6-73-45-74c-42 0-51 32-51 76 0 43 10 73 51 73" id="bs"/><g id="u"><use transform="matrix(0.05,0,0,0.05,0,0)" xlink:href="#aU"/><use transform="matrix(0.05,0,0,0.05,9,0)" xlink:href="#bo"/><use transform="matrix(0.05,0,0,0.05,14,0)" xlink:href="#Z"/><use transform="matrix(0.05,0,0,0.05,24,0)" xlink:href="#bp"/><use transform="matrix(0.05,0,0,0.05,33,0)" xlink:href="#ab"/><use transform="matrix(0.05,0,0,0.05,43,0)" xlink:href="#br"/><use transform="matrix(0.05,0,0,0.05,48.95,0)" xlink:href="#bs"/><use transform="matrix(0.05,0,0,0.05,58.95,0)" xlink:href="#ae"/><use transform="matrix(0.05,0,0,0.05,68.95,0)" xlink:href="#ae"/><use transform="matrix(0.05,0,0,0.05,78.95,0)" xlink:href="#ac"/><use transform="matrix(0.05,0,0,0.05,82.9,0)" xlink:href="#br"/><use transform="matrix(0.05,0,0,0.05,88.85000000000001,0)" xlink:href="#bo"/><use transform="matrix(0.05,0,0,0.05,93.85000000000001,0)" xlink:href="#ae"/><use transform="matrix(0.05,0,0,0.05,103.85000000000001,0)" xlink:href="#bp"/><use transform="matrix(0.05,0,0,0.05,112.85000000000001,0)" xlink:href="#ab"/><use transform="matrix(0.05,0,0,0.05,122.85000000000001,0)" xlink:href="#aa"/></g><path fill="#fff" d="M80-196l47-18 7 23-49 13 32 44-20 13-27-46-27 45-21-12 33-44-49-13 8-23 47 19-2-53h23" id="bt"/><use transform="matrix(0.05,0,0,0.05,0,0)" xlink:href="#bt" id="v"/><g id="w"><use transform="matrix(0.05,0,0,0.05,0,0)" xlink:href="#aU"/><use transform="matrix(0.05,0,0,0.05,9,0)" xlink:href="#bo"/><use transform="matrix(0.05,0,0,0.05,14,0)" xlink:href="#Z"/><use transform="matrix(0.05,0,0,0.05,24,0)" xlink:href="#bp"/><use transform="matrix(0.05,0,0,0.05,33,0)" xlink:href="#ab"/><use transform="matrix(0.05,0,0,0.05,43,0)" xlink:href="#br"/><use transform="matrix(0.05,0,0,0.05,48.95,0)" xlink:href="#bs"/><use transform="matrix(0.05,0,0,0.05,58.95,0)" xlink:href="#ae"/><use transform="matrix(0.05,0,0,0.05,68.95,0)" xlink:href="#ae"/><use transform="matrix(0.05,0,0,0.05,78.95,0)" xlink:href="#ac"/><use transform="matrix(0.05,0,0,0.05,82.9,0)" xlink:href="#br"/><use transform="matrix(0.05,0,0,0.05,88.85000000000001,0)" xlink:href="#bo"/><use transform="matrix(0.05,0,0,0.05,93.85000000000001,0)" xlink:href="#ae"/><use transform="matrix(0.05,0,0,0.05,103.85000000000001,0)" xlink:href="#bp"/><use transform="matrix(0.05,0,0,0.05,112.85000000000001,0)" xlink:href="#ab"/><use transform="matrix(0.05,0,0,0.05,122.85000000000001,0)" xlink:href="#aa"/><use transform="matrix(0.05,0,0,0.05,132.85000000000002,0)" xlink:href="#br"/><use transform="matrix(0.05,0,0,0.05,138.8,0)" xlink:href="#bs"/><use transform="matrix(0.05,0,0,0.05,148.8,0)" xlink:href="#aP"/><use transform="matrix(0.05,0,0,0.05,154.75,0)" xlink:href="#aS"/><use transform="matrix(0.05,0,0,0.05,158.7,0)" xlink:href="#aT"/><use transform="matrix(0.05,0,0,0.05,167.7,0)" xlink:href="#ab"/></g><g id="x"><use transform="matrix(0.05,0,0,0.05,0,0)" xlink:href="#bn"/><use transform="matrix(0.05,0,0,0.05,12,0)" xlink:href="#bo"/><use transform="matrix(0.05,0,0,0.05,17,0)" xlink:href="#Z"/><use transform="matrix(0.05,0,0,0.05,27,0)" xlink:href="#bp"/><use transform="matrix(0.05,0,0,0.05,36,0)" xlink:href="#ab"/></g><g id="y"><use transform="matrix(0.05,0,0,0.05,0,0)" xlink:href="#ad"/><use transform="matrix(0.05,0,0,0.05,12,0)" xlink:href="#ae"/><use transform="matrix(0.05,0,0,0.05,22,0)" xlink:href="#ae"/><use transform="matrix(0.05,0,0,0.05,32,0)" xlink:href="#ac"/></g><path fill="#fff" d="M127-220V0H93v-220H8v-28h204v28h-85" id="bu"/><g id="z"><use transform="matrix(0.05,0,0,0.05,0,0)" xlink:href="#bu"/><use transform="matrix(0.05,0,0,0.05,8.950000000000001,0)" xlink:href="#ae"/><use transform="matrix(0.05,0,0,0.05,18.950000000000003,0)" xlink:href="#bp"/><use transform="matrix(0.05,0,0,0.05,27.950000000000003,0)" xlink:href="#ab"/><use transform="matrix(0.05,0,0,0.05,37.95,0)" xlink:href="#aa"/></g><path fill="#333" d="M768-362c52-3 102 50 102 101 0 27-17 56-47 89C758-102 542 0 413 0 205 0 76-203 79-422c3-220 72-486 151-640 103-201 221-303 359-303 167 0 251 128 251 385 0 123-35 185-106 185-48 0-101-46-99-94 2-77 27-279-39-278-99 4-207 230-243 339-48 149-75 282-75 401 0 146 56 219 169 219 45 0 105-26 180-77s122-77 141-77" id="bv"/><g id="A"><use transform="matrix(0.0087890625,0,0,0.0087890625,0,0)" xlink:href="#bv"/><use transform="matrix(0.0087890625,0,0,0.0087890625,8.40234375,0)" xlink:href="#bi"/><use transform="matrix(0.0087890625,0,0,0.0087890625,18.3779296875,0)" xlink:href="#aW"/><use transform="matrix(0.0087890625,0,0,0.0087890625,28.16015625,0)" xlink:href="#bj"/><use transform="matrix(0.0087890625,0,0,0.0087890625,37.546875,0)" xlink:href="#ba"/><use transform="matrix(0.0087890625,0,0,0.0087890625,46.845703125,0)" xlink:href="#aW"/></g><path fill="#333" d="M186 0C125 1 80-61 94-128c102-498 136-682 239-1056 16-58 29-97 39-118 39-81 152-87 186 3 8 21 18 60 27 118 29 181 80 412 149 693 44-195 134-593 229-824 15-37 48-53 85-53 50 0 90 31 101 97 20 117 17 225 52 381 45 201 159 605 163 785 2 54-42 102-96 102-45 0-83-20-96-65-37-130-44-258-87-432-40-161-61-264-70-309-35 138-85 345-146 622-13 58-24 96-31 117-30 83-132 87-176 19-11-18-25-49-39-97-63-219-121-453-172-703-35 145-84 365-140 660-11 60-19 102-29 123-19 43-51 65-96 65" id="bw"/><path fill="#333" d="M188 0C127 1 82-61 96-128c102-498 136-682 239-1056 16-58 29-97 39-118 39-81 152-87 186 3 8 21 18 60 27 118 29 181 79 412 149 693 44-195 133-594 228-824 15-37 48-53 86-53 50 0 89 31 100 97 19 117 18 225 53 381 45 201 158 605 162 785 1 54-41 102-95 102-46 0-83-20-96-65-38-130-44-258-87-432-40-161-61-264-70-309-35 138-86 345-147 622-13 58-23 96-30 117-29 83-132 87-176 19-11-18-25-49-39-97-63-219-122-453-173-703-35 145-85 365-140 660-11 60-19 101-29 123-20 43-51 65-95 65" id="bx"/><path fill="#333" d="M111-254c0-80 75-479 73-483 3-23 17-167 40-434-41-20-62-51-62-94 0-67 48-100 145-100 431 0 647 127 647 380 0 161-86 280-258 359 120 81 180 177 180 290 0 173-116 256-272 302C530-12 459 0 391 0 204 0 111-85 111-254zm642-722c0-105-210-177-326-186-9 140-24 282-43 426 246-59 369-139 369-240zm-77 638c-27-89-136-153-326-193-27 162-48 229-34 323 82 18 157 3 237-24 75-26 116-61 123-106" id="by"/><g id="B"><use transform="matrix(0.0087890625,0,0,0.0087890625,0,0)" xlink:href="#bw"/><use transform="matrix(0.0087890625,0,0,0.0087890625,12.8408203125,0)" xlink:href="#aW"/><use transform="matrix(0.0087890625,0,0,0.0087890625,22.623046875,0)" xlink:href="#bx"/><use transform="matrix(0.0087890625,0,0,0.0087890625,35.5078125,0)" xlink:href="#by"/><use transform="matrix(0.0087890625,0,0,0.0087890625,44.630859375,0)" xlink:href="#aW"/><use transform="matrix(0.0087890625,0,0,0.0087890625,54.4130859375,0)" xlink:href="#bi"/></g><path fill="#333" d="M196-1063c0-251 371-378 608-255 71 37 119 87 150 151 35 73-14 152-87 150-26 0-63-25-111-73s-102-72-162-72c-72 0-200 37-200 99 0 43 47 111 142 203 145 142 234 232 266 271 95 116 142 225 142 328C944-95 791 0 613 0 494 0 170-60 118-111c-29-29-48-55-48-87-1-69 67-120 140-92h-2c162 59 305 89 429 89 69 0 104-25 104-75 0-69-47-151-142-245-86-86-177-167-261-254-98-100-142-199-142-288" id="bz"/><path fill="#333" d="M819-1377c51-2 99 48 99 100 0 45-37 111-112 198-69 79-142 155-210 234-77 90-113 163-113 215 0 67 40 139 121 214 9 8 85 66 227 174 81 61 121 110 121 146 0 52-54 107-105 105-17 0-40-10-67-29-196-143-322-233-435-405-11 59-17 288-43 364-14 42-49 61-95 61-56 0-96-49-96-104 0-132 56-634 60-717 3-65 6-162 6-293 7-35 10-86 21-152 11-67 48-99 99-99 53 0 101 46 101 99 0 47-7 172-21 377 82-84 176-223 268-326 95-107 151-162 174-162" id="bA"/><g id="C"><use transform="matrix(0.0087890625,0,0,0.0087890625,0,0)" xlink:href="#bz"/><use transform="matrix(0.0087890625,0,0,0.0087890625,9.38671875,0)" xlink:href="#ba"/><use transform="matrix(0.0087890625,0,0,0.0087890625,18.685546875,0)" xlink:href="#bj"/><use transform="matrix(0.0087890625,0,0,0.0087890625,28.072265625,0)" xlink:href="#bA"/><use transform="matrix(0.0087890625,0,0,0.0087890625,37.458984375,0)" xlink:href="#bb"/><use transform="matrix(0.0087890625,0,0,0.0087890625,41.3701171875,0)" xlink:href="#bc"/><use transform="matrix(0.0087890625,0,0,0.0087890625,52.1279296875,0)" xlink:href="#bd"/></g><g id="D"><use transform="matrix(0.0087890625,0,0,0.0087890625,0,0)" xlink:href="#bz"/><use transform="matrix(0.0087890625,0,0,0.0087890625,9.38671875,0)" xlink:href="#ba"/><use transform="matrix(0.0087890625,0,0,0.0087890625,18.685546875,0)" xlink:href="#bj"/><use transform="matrix(0.0087890625,0,0,0.0087890625,28.072265625,0)" xlink:href="#bA"/><use transform="matrix(0.0087890625,0,0,0.0087890625,37.458984375,0)" xlink:href="#aW"/></g><path fill="#333" d="M488-1365c273 0 550 113 550 360 0 140-81 265-244 374-130 87-276 146-439 180-8 56-16 299-32 372-12 53-47 79-94 79-53 0-99-48-99-101 0-200 54-864 49-1044-37-23-56-56-56-99 0-39 25-69 73-90s145-31 292-31zm348 355c0-132-280-161-454-151-1 136-1 303-1 501 100-31 192-72 276-122 119-70 179-146 179-228" id="bB"/><path fill="#333" d="M759-451c68-46 151 19 151 87 0 27-17 54-48 86C767-182 491 0 329 0 186 0 114-109 114-326c0-169 46-507 46-695 0-139-8-341 120-344 53-2 103 46 101 99-4-2-27 472-40 636-16 198-27 312-27 343 0 57 11 86 32 86 61 0 169-62 325-185 19-16 49-38 88-65" id="bC"/><g id="E"><use transform="matrix(0.0087890625,0,0,0.0087890625,0,0)" xlink:href="#bB"/><use transform="matrix(0.0087890625,0,0,0.0087890625,9.31640625,0)" xlink:href="#aY"/><use transform="matrix(0.0087890625,0,0,0.0087890625,20.0390625,0)" xlink:href="#aY"/><use transform="matrix(0.0087890625,0,0,0.0087890625,30.76171875,0)" xlink:href="#bC"/></g><path fill="#333" d="M46-1227c0-128 188-119 328-120 79-1 391-35 488-35 99 0 148 35 148 105 0 65-48 98-145 98-76 0-153 3-232 8 1 179-14 796-13 976C622-79 604-4 510 0c-53 2-99-44-99-97v-270c21-312 24-505 22-785-143 13-240 20-291 20-64 0-96-32-96-95" id="bD"/><g id="F"><use transform="matrix(0.0087890625,0,0,0.0087890625,0,0)" xlink:href="#bD"/><use transform="matrix(0.0087890625,0,0,0.0087890625,8.47265625,0)" xlink:href="#aY"/><use transform="matrix(0.0087890625,0,0,0.0087890625,19.1953125,0)" xlink:href="#bA"/><use transform="matrix(0.0087890625,0,0,0.0087890625,28.58203125,0)" xlink:href="#aW"/><use transform="matrix(0.0087890625,0,0,0.0087890625,38.3642578125,0)" xlink:href="#bc"/></g><path fill="#333" d="M108-101c0-144 39-657 39-763 0-78 7-179 29-235 46-116 122-195 235-232 69-23 183-34 342-34 78 0 117 33 117 99 0 83-48 100-162 100-195-1-308 48-343 145-25 70-17 205-22 302 195-81 317-121 367-121 54 0 101 56 101 110 0 37-23 69-72 88-119 47-231 77-408 144-1 97 0 317-24 397C287-35 257 0 208 0c-50 0-100-50-100-101" id="bE"/><g id="G"><use transform="matrix(0.0087890625,0,0,0.0087890625,0,0)" xlink:href="#bD"/><use transform="matrix(0.0087890625,0,0,0.0087890625,9.28125,0)" xlink:href="#bi"/><use transform="matrix(0.0087890625,0,0,0.0087890625,19.107421875,0)" xlink:href="#bj"/><use transform="matrix(0.0087890625,0,0,0.0087890625,28.494140625,0)" xlink:href="#bc"/><use transform="matrix(0.0087890625,0,0,0.0087890625,39.251953125,0)" xlink:href="#aZ"/><use transform="matrix(0.0087890625,0,0,0.0087890625,48.65625,0)" xlink:href="#bE"/><use transform="matrix(0.0087890625,0,0,0.0087890625,56.4873046875,0)" xlink:href="#aY"/><use transform="matrix(0.0087890625,0,0,0.0087890625,67.2099609375,0)" xlink:href="#bi"/><use transform="matrix(0.0087890625,0,0,0.0087890625,76.7373046875,0)" xlink:href="#bx"/></g><path fill="#333" d="M104-254c0-80 75-479 73-483 4-23 17-167 40-434-41-20-62-51-62-94 0-67 48-100 145-100 431 0 647 127 647 380 0 161-86 280-258 359 120 81 180 177 180 290 0 173-116 256-272 302C523-12 452 0 384 0 197 0 104-85 104-254zm642-722c0-105-210-177-326-186-9 140-24 282-43 426 246-59 369-139 369-240zm-77 638c-27-89-136-153-326-193-27 162-48 229-34 323 82 18 157 3 237-24 75-26 116-61 123-106" id="bF"/><path fill="#333" d="M807-1260c0-54 40-105 96-105 43 0 76 24 99 73 18 39 27 131 27 277 0 274-20 485-61 631C895-128 757 0 555 0 385 0 262-90 189-270c-51-126-76-289-76-488 0-289 18-467 53-534 26-49 59-73 99-73 52 0 105 52 99 104-14 128-48 300-48 513 0 128 14 239 41 332 41 144 108 216 201 216 105 0 179-98 225-293 29-124 45-265 45-422 0-66-21-279-21-345" id="bG"/><g id="H"><use transform="matrix(0.0087890625,0,0,0.0087890625,0,0)" xlink:href="#bF"/><use transform="matrix(0.0087890625,0,0,0.0087890625,9.017578125,0)" xlink:href="#bG"/><use transform="matrix(0.0087890625,0,0,0.0087890625,19.037109375,0)" xlink:href="#bi"/><use transform="matrix(0.0087890625,0,0,0.0087890625,29.0126953125,0)" xlink:href="#bc"/></g><path fill="#fff" d="M266 0h-40l-56-210L115 0H75L2-248h35L96-30l15-64 43-154h32l59 218 59-218h35" id="bH"/><path fill="#fff" d="M206 0h-36l-40-164L89 0H53L-1-190h32L70-26l43-164h34l41 164 42-164h31" id="bI"/><g id="I"><use transform="matrix(0.05,0,0,0.05,0,0)" xlink:href="#ad"/><use transform="matrix(0.05,0,0,0.05,12,0)" xlink:href="#ab"/><use transform="matrix(0.05,0,0,0.05,22,0)" xlink:href="#aa"/><use transform="matrix(0.05,0,0,0.05,32,0)" xlink:href="#bl"/><use transform="matrix(0.05,0,0,0.05,42,0)" xlink:href="#aS"/><use transform="matrix(0.05,0,0,0.05,45.95,0)" xlink:href="#aa"/><use transform="matrix(0.05,0,0,0.05,55.95,0)" xlink:href="#bm"/><use transform="matrix(0.05,0,0,0.05,65.95,0)" xlink:href="#bH"/><use transform="matrix(0.05,0,0,0.05,82.9,0)" xlink:href="#aS"/><use transform="matrix(0.05,0,0,0.05,86.85000000000001,0)" xlink:href="#bo"/><use transform="matrix(0.05,0,0,0.05,91.85000000000001,0)" xlink:href="#Y"/><use transform="matrix(0.05,0,0,0.05,101.85000000000001,0)" xlink:href="#bl"/><use transform="matrix(0.05,0,0,0.05,111.85000000000001,0)" xlink:href="#aP"/><use transform="matrix(0.05,0,0,0.05,117.80000000000001,0)" xlink:href="#Z"/><use transform="matrix(0.05,0,0,0.05,127.80000000000001,0)" xlink:href="#bI"/><use transform="matrix(0.05,0,0,0.05,140.75,0)" xlink:href="#Z"/><use transform="matrix(0.05,0,0,0.05,150.75,0)" xlink:href="#ac"/></g><path fill="#333" d="M806-1260c0-54 39-105 95-105 43 0 76 24 99 73 18 39 27 131 27 277 0 274-20 484-61 631C894-128 756 0 553 0 384 0 262-90 188-270c-51-126-77-289-77-488 0-289 18-467 53-534 26-49 59-73 99-73 53 0 105 52 99 104-14 128-48 300-48 513 0 128 14 239 41 332 41 144 108 216 201 216 105 0 180-98 226-293 29-124 44-265 44-422 0-66-20-279-20-345" id="bJ"/><g id="J"><use transform="matrix(0.0087890625,0,0,0.0087890625,0,0)" xlink:href="#bJ"/><use transform="matrix(0.0087890625,0,0,0.0087890625,9.9931640625,0)" xlink:href="#bc"/><use transform="matrix(0.0087890625,0,0,0.0087890625,20.7509765625,0)" xlink:href="#aZ"/><use transform="matrix(0.0087890625,0,0,0.0087890625,30.1552734375,0)" xlink:href="#ba"/><use transform="matrix(0.0087890625,0,0,0.0087890625,39.4541015625,0)" xlink:href="#bj"/><use transform="matrix(0.0087890625,0,0,0.0087890625,48.8408203125,0)" xlink:href="#bA"/><use transform="matrix(0.0087890625,0,0,0.0087890625,58.2275390625,0)" xlink:href="#bb"/><use transform="matrix(0.0087890625,0,0,0.0087890625,62.138671875,0)" xlink:href="#bc"/><use transform="matrix(0.0087890625,0,0,0.0087890625,72.896484375,0)" xlink:href="#bd"/></g><path fill="#fff" d="M101-234c-31-9-42 10-38 44h38v23H63V0H32v-167H5v-23h27c-7-52 17-82 69-68v24" id="bK"/><g id="K"><use transform="matrix(0.05,0,0,0.05,0,0)" xlink:href="#ad"/><use transform="matrix(0.05,0,0,0.05,12,0)" xlink:href="#aP"/><use transform="matrix(0.05,0,0,0.05,17.95,0)" xlink:href="#ae"/><use transform="matrix(0.05,0,0,0.05,27.950000000000003,0)" xlink:href="#ae"/><use transform="matrix(0.05,0,0,0.05,37.95,0)" xlink:href="#bK"/></g><g id="L"><use transform="matrix(0.05,0,0,0.05,0,0)" xlink:href="#ae"/><use transform="matrix(0.05,0,0,0.05,10,0)" xlink:href="#bK"/></g><g id="M"><use transform="matrix(0.05,0,0,0.05,0,0)" xlink:href="#bI"/><use transform="matrix(0.05,0,0,0.05,12.950000000000001,0)" xlink:href="#aS"/><use transform="matrix(0.05,0,0,0.05,16.900000000000002,0)" xlink:href="#bo"/><use transform="matrix(0.05,0,0,0.05,21.900000000000002,0)" xlink:href="#Y"/><use transform="matrix(0.05,0,0,0.05,31.900000000000002,0)" xlink:href="#bl"/><use transform="matrix(0.05,0,0,0.05,41.900000000000006,0)" xlink:href="#aP"/><use transform="matrix(0.05,0,0,0.05,47.85000000000001,0)" xlink:href="#Z"/><use transform="matrix(0.05,0,0,0.05,57.85,0)" xlink:href="#bI"/><use transform="matrix(0.05,0,0,0.05,70.80000000000001,0)" xlink:href="#Z"/><use transform="matrix(0.05,0,0,0.05,80.80000000000001,0)" xlink:href="#ac"/></g><g id="N"><use transform="matrix(0.0087890625,0,0,0.0087890625,0,0)" xlink:href="#bv"/><use transform="matrix(0.0087890625,0,0,0.0087890625,8.40234375,0)" xlink:href="#bi"/><use transform="matrix(0.0087890625,0,0,0.0087890625,18.3779296875,0)" xlink:href="#aW"/><use transform="matrix(0.0087890625,0,0,0.0087890625,28.16015625,0)" xlink:href="#bj"/><use transform="matrix(0.0087890625,0,0,0.0087890625,37.546875,0)" xlink:href="#ba"/><use transform="matrix(0.0087890625,0,0,0.0087890625,46.845703125,0)" xlink:href="#aW"/></g><path fill="#fff" d="M30 0v-248h187v28H63v79h144v27H63v87h162V0H30" id="bL"/><path fill="#fff" d="M232-93c-1 65-40 97-104 97C67 4 28-28 28-90v-158h33c8 89-33 224 67 224 102 0 64-133 71-224h33v155" id="bM"/><g id="O"><use transform="matrix(0.05,0,0,0.05,0,0)" xlink:href="#bL"/><use transform="matrix(0.05,0,0,0.05,12,0)" xlink:href="#aa"/><use transform="matrix(0.05,0,0,0.05,22,0)" xlink:href="#bl"/><use transform="matrix(0.05,0,0,0.05,32,0)" xlink:href="#bM"/><use transform="matrix(0.05,0,0,0.05,44.95,0)" xlink:href="#aa"/><use transform="matrix(0.05,0,0,0.05,54.95,0)" xlink:href="#aU"/><use transform="matrix(0.05,0,0,0.05,63.95,0)" xlink:href="#bo"/><use transform="matrix(0.05,0,0,0.05,68.95,0)" xlink:href="#Z"/><use transform="matrix(0.05,0,0,0.05,78.95,0)" xlink:href="#bp"/><use transform="matrix(0.05,0,0,0.05,87.95,0)" xlink:href="#ab"/></g><g id="P"><use transform="matrix(0.0087890625,0,0,0.0087890625,0,0)" xlink:href="#bB"/><use transform="matrix(0.0087890625,0,0,0.0087890625,9.31640625,0)" xlink:href="#aW"/><use transform="matrix(0.0087890625,0,0,0.0087890625,19.0986328125,0)" xlink:href="#bc"/><use transform="matrix(0.0087890625,0,0,0.0087890625,29.8564453125,0)" xlink:href="#bh"/><use transform="matrix(0.0087890625,0,0,0.0087890625,39.814453125,0)" xlink:href="#bb"/><use transform="matrix(0.0087890625,0,0,0.0087890625,43.7255859375,0)" xlink:href="#bc"/><use transform="matrix(0.0087890625,0,0,0.0087890625,54.4833984375,0)" xlink:href="#bd"/></g><g id="Q"><use transform="matrix(0.0087890625,0,0,0.0087890625,0,0)" xlink:href="#bD"/><use transform="matrix(0.0087890625,0,0,0.0087890625,9.28125,0)" xlink:href="#bb"/><use transform="matrix(0.0087890625,0,0,0.0087890625,13.1923828125,0)" xlink:href="#bx"/><use transform="matrix(0.0087890625,0,0,0.0087890625,26.0771484375,0)" xlink:href="#aW"/><use transform="matrix(0.0087890625,0,0,0.0087890625,35.859375,0)" xlink:href="#aY"/><use transform="matrix(0.0087890625,0,0,0.0087890625,46.58203125,0)" xlink:href="#bG"/><use transform="matrix(0.0087890625,0,0,0.0087890625,56.6015625,0)" xlink:href="#ba"/></g><path fill="#333" d="M362 0C195 0 113-120 113-294c0-119 25-272 76-457 80-290 99-377 125-524 7-13 27-26 60-41 71-33 211-49 420-49 128 0 192 36 192 107 0 50-48 105-99 101-142-10-258-9-397 20-11 59-33 158-68 297 145-57 245-85 300-85 53 0 101 43 101 96 0 43-23 79-74 99-127 49-178 54-389 129-29 119-44 224-44 314 0 58 10 87 30 87 66 0 151-30 256-90s173-91 205-91c51 0 101 49 101 99 0 30-19 57-51 87C788-129 492 0 362 0" id="bN"/><g id="R"><use transform="matrix(0.0087890625,0,0,0.0087890625,0,0)" xlink:href="#bN"/><use transform="matrix(0.0087890625,0,0,0.0087890625,9.6416015625,0)" xlink:href="#bc"/><use transform="matrix(0.0087890625,0,0,0.0087890625,20.3994140625,0)" xlink:href="#bh"/><use transform="matrix(0.0087890625,0,0,0.0087890625,30.357421875,0)" xlink:href="#bJ"/><use transform="matrix(0.0087890625,0,0,0.0087890625,40.3505859375,0)" xlink:href="#bc"/><use transform="matrix(0.0087890625,0,0,0.0087890625,51.1083984375,0)" xlink:href="#aZ"/><use transform="matrix(0.0087890625,0,0,0.0087890625,60.5126953125,0)" xlink:href="#ba"/><use transform="matrix(0.0087890625,0,0,0.0087890625,69.8115234375,0)" xlink:href="#bj"/><use transform="matrix(0.0087890625,0,0,0.0087890625,79.1982421875,0)" xlink:href="#bA"/><use transform="matrix(0.0087890625,0,0,0.0087890625,88.5849609375,0)" xlink:href="#aW"/></g><g id="S"><use transform="matrix(0.0087890625,0,0,0.0087890625,0,0)" xlink:href="#bv"/><use transform="matrix(0.0087890625,0,0,0.0087890625,8.40234375,0)" xlink:href="#bC"/><use transform="matrix(0.0087890625,0,0,0.0087890625,16.453125,0)" xlink:href="#bj"/><use transform="matrix(0.0087890625,0,0,0.0087890625,25.83984375,0)" xlink:href="#bb"/><use transform="matrix(0.0087890625,0,0,0.0087890625,29.7509765625,0)" xlink:href="#bx"/></g><path fill="#333" d="M430-1365c342 0 623 231 623 568 0 219-131 374-394 466 145 90 217 167 217 230 0 52-53 98-105 96-17 0-39-10-66-29-90-66-201-166-304-203v78C401-53 366 0 297 0c-53 0-99-44-99-97v-374c17-145 26-361 26-650-3 5-11 7-24 7-53 2-99-46-99-99 0-112 193-152 329-152zm258 786c221-128 209-317 20-469-89-71-178-111-268-119-1 97-1 329-1 698 89-27 172-65 249-110" id="bO"/><g id="T"><use transform="matrix(0.0087890625,0,0,0.0087890625,0,0)" xlink:href="#bO"/><use transform="matrix(0.0087890625,0,0,0.0087890625,9.94921875,0)" xlink:href="#aW"/><use transform="matrix(0.0087890625,0,0,0.0087890625,19.7314453125,0)" xlink:href="#bk"/><use transform="matrix(0.0087890625,0,0,0.0087890625,31.552734375,0)" xlink:href="#bj"/><use transform="matrix(0.0087890625,0,0,0.0087890625,40.939453125,0)" xlink:href="#bi"/><use transform="matrix(0.0087890625,0,0,0.0087890625,50.9150390625,0)" xlink:href="#bh"/></g><g id="U"><use transform="matrix(0.05,0,0,0.05,0,0)" xlink:href="#X"/><use transform="matrix(0.05,0,0,0.05,12.950000000000001,0)" xlink:href="#aS"/><use transform="matrix(0.05,0,0,0.05,16.900000000000002,0)" xlink:href="#aP"/><use transform="matrix(0.05,0,0,0.05,22.85,0)" xlink:href="#aT"/><use transform="matrix(0.05,0,0,0.05,31.85,0)" xlink:href="#ac"/><use transform="matrix(0.05,0,0,0.05,35.800000000000004,0)" xlink:href="#ab"/><use transform="matrix(0.05,0,0,0.05,45.800000000000004,0)" xlink:href="#bs"/><use transform="matrix(0.05,0,0,0.05,55.800000000000004,0)" xlink:href="#ae"/><use transform="matrix(0.05,0,0,0.05,65.80000000000001,0)" xlink:href="#bl"/></g><g id="V"><use transform="matrix(0.0087890625,0,0,0.0087890625,0,0)" xlink:href="#aV"/><use transform="matrix(0.0087890625,0,0,0.0087890625,9.84375,0)" xlink:href="#bi"/><use transform="matrix(0.0087890625,0,0,0.0087890625,19.8193359375,0)" xlink:href="#aY"/><use transform="matrix(0.0087890625,0,0,0.0087890625,30.5419921875,0)" xlink:href="#aX"/><use transform="matrix(0.0087890625,0,0,0.0087890625,39.884765625,0)" xlink:href="#aZ"/></g><g id="W"><use transform="matrix(0.0087890625,0,0,0.0087890625,0,0)" xlink:href="#bO"/><use transform="matrix(0.0087890625,0,0,0.0087890625,9.94921875,0)" xlink:href="#aW"/><use transform="matrix(0.0087890625,0,0,0.0087890625,19.7314453125,0)" xlink:href="#bk"/><use transform="matrix(0.0087890625,0,0,0.0087890625,31.552734375,0)" xlink:href="#bj"/><use transform="matrix(0.0087890625,0,0,0.0087890625,40.939453125,0)" xlink:href="#bi"/><use transform="matrix(0.0087890625,0,0,0.0087890625,50.9150390625,0)" xlink:href="#bh"/></g></defs></g></svg>