<svg xmlns="http://www.w3.org/2000/svg" width="450" height="450" viewBox="0 0 450 450">
    <g fill="none" fill-rule="evenodd">
        <g>
            <g transform="translate(-179.000000, -352.000000) translate(179.000000, 352.000000)">
                <path d="M0 0H450V450H0z"/>
                <ellipse cx="223.351" cy="408.344" fill="#F5F5F5" fill-rule="nonzero" rx="121.689" ry="24.336"/>
                <g fill-rule="nonzero">
                    <path fill="#FFF" d="M66.393 55.332H72.774V75.951H66.393zM69.552 52.632c1.543.015 2.942-.904 3.543-2.325.6-1.421.284-3.065-.802-4.161-1.086-1.096-2.726-1.429-4.153-.842-1.427.588-2.359 1.978-2.359 3.521-.005 2.09 1.68 3.792 3.771 3.807z" transform="translate(34.000000, 5.000000)"/>
                    <path fill="#F5F5F5" d="M121.698 0.801L125.919 8.514 133.641 12.744 125.919 16.965 121.698 24.678 117.477 16.965 109.755 12.744 117.477 8.514z" transform="translate(34.000000, 5.000000)"/>
                    <path fill="#EBEBEB" d="M297.783 209.943L300.951 215.739 306.738 218.898 300.951 222.066 297.783 227.862 294.615 222.066 288.828 218.898 294.615 215.739z" transform="translate(34.000000, 5.000000)"/>
                    <path fill="#E0E0E0" d="M306.738 181.359L308.169 183.969 310.779 185.4 308.169 186.831 306.738 189.441 305.316 186.831 302.697 185.4 305.316 183.969zM91.539 3.699L92.97 6.318 95.58 7.74 92.97 9.171 91.539 11.781 90.117 9.171 87.498 7.74 90.117 6.318zM19.917 246.384c3.394-1.555 5.538-4.98 5.454-8.712 0-5.157-4.005-9.297-8.838-9.261-4.833.036-8.712 4.257-8.667 9.414-.027 3.766 2.219 7.176 5.688 8.64C.108 248.67.9 263.304.9 263.304l31.851-.27s.549-14.805-12.834-16.65z" transform="translate(34.000000, 5.000000)"/>
                    <path fill="#EBEBEB" d="M325.476 342.846c-.463-2.384-2.586-4.082-5.014-4.01-2.428.07-4.447 1.89-4.769 4.298-.338-2.404-2.366-4.21-4.792-4.268-2.427-.058-4.539 1.65-4.991 4.034-.235 1.706.197 3.437 1.206 4.833 1 1.376 2.173 2.616 3.492 3.69 1.8 1.593 3.429 3.078 5.211 4.662 1.8-1.602 3.267-3.105 5.031-4.707 1.313-1.085 2.478-2.337 3.465-3.726.985-1.396 1.4-3.115 1.161-4.806z" transform="translate(34.000000, 5.000000)"/>
                    <path fill="#E0E0E0" d="M346.221 153.135l3.411-.675 5.4-11.862-1.35-6.813s5.211-1.368 6.363 7.677c1.152 9.045 1.368 6.642 1.368 6.642s11.205-2.178 12.33-1.395c.819.576 3.33 11.646 4.644 17.658.748 2.965-.622 6.059-3.321 7.497-.374.184-.77.317-1.179.396-2.79.558-17.514 1.116-17.514 1.116l-5.895 1.17-4.257-21.411zM336.078 153.198L342.801 176.13 348.651 174.969 344.115 152.1z" transform="translate(34.000000, 5.000000)"/>
                </g>
                <g fill-rule="nonzero">
                    <path fill="#318FE7" d="M310.887 70.335c-18.163 8.828-40.043 1.266-48.879-16.893-8.828-18.163-1.266-40.043 16.893-48.879 8.722-4.242 18.772-4.845 27.938-1.677 9.167 3.168 16.7 9.848 20.941 18.57 4.242 8.722 4.845 18.772 1.677 27.938-3.168 9.167-9.848 16.7-18.57 20.941z" transform="translate(34.900000, 78.800000)"/>
                    <g>
                        <path fill="#FFF" stroke="#FFF" stroke-width=".9" d="M31.75 2.25c-6.438.134-13.252 1.723-19.688 3.938-.004-.046 0 19.687 0 19.687-1.162-.282-3.136-.085-4.516.573-2.558 1.226-3.955 3.703-3.115 5.534.837 1.827 3.591 2.319 6.15 1.094 2.341-1.323 3.45-3.264 3.45-5.232l.031-16.735c5.072-1.573 10.648-2.665 15.72-2.953v15.75c-1.477-.278-3.19.13-4.604.807-2.56 1.227-3.957 3.703-3.114 5.53.838 1.831 3.59 2.323 6.15 1.097 1.821-.87 3.536-2.39 3.536-5.434V2.25h0z" transform="translate(34.900000, 78.800000) translate(280.800000, 18.000000)"/>
                    </g>
                    <path fill="#318FE7" d="M347.4 173.484c-6.251-2.384-11.298-7.156-14.028-13.264-2.73-6.108-2.919-13.05-.525-19.298 2.382-6.25 7.152-11.298 13.258-14.03 6.106-2.73 13.047-2.922 19.295-.532 6.251 2.384 11.298 7.156 14.028 13.264 2.73 6.108 2.919 13.05.525 19.298-2.382 6.25-7.152 11.298-13.258 14.03-6.106 2.73-13.047 2.922-19.295.532z" transform="translate(34.900000, 78.800000)"/>
                    <g>
                        <path fill="#FFF" d="M1.912 2.119C1.912.175 3.25-.56 4.892.456L18.454 8.92c1.64 1.037 1.64 2.721 0 3.736L4.892 21.144c-1.641 1.015-2.98.28-2.98-1.663V2.12z" transform="translate(34.900000, 78.800000) translate(348.300000, 138.600000)"/>
                    </g>
                    <path fill="#318FE7" d="M19.467 56.916C8.845 56.916.234 48.306.234 37.683c0-10.622 8.61-19.233 19.233-19.233 5.1 0 9.993 2.026 13.6 5.633 3.607 3.607 5.633 8.5 5.633 13.6s-2.026 9.993-5.633 13.6c-3.607 3.607-8.5 5.633-13.6 5.633z" transform="translate(34.900000, 78.800000)"/>
                    <path fill="#FFF" d="M9.225 44.1c3.765 2.402 8.554 2.508 12.422.275 3.868-2.233 6.171-6.433 5.974-10.895.813-.59 1.517-1.318 2.079-2.151-.77.338-1.586.562-2.421.666.88-.514 1.545-1.33 1.872-2.295-.833.495-1.747.84-2.7 1.017-1.298-1.42-3.394-1.78-5.092-.874-1.698.906-2.565 2.848-2.108 4.717-3.382-.174-6.531-1.773-8.667-4.401-1.11 1.924-.54 4.379 1.305 5.616-.669-.017-1.324-.196-1.908-.522-.023 2.022 1.394 3.774 3.375 4.176-.62.169-1.269.193-1.899.072.552 1.71 2.128 2.88 3.924 2.916-1.753 1.344-3.963 1.948-6.156 1.683z" transform="translate(34.900000, 78.800000)"/>
                    <path fill="#455A64" d="M54 272.349c-17.786 4.224-35.63-6.76-39.87-24.543-2.038-8.55-.594-17.56 4.014-25.045 4.609-7.485 12.004-12.831 20.556-14.861 8.545-2.037 17.55-.595 25.032 4.008 7.482 4.603 12.83 11.99 14.865 20.535 2.038 8.554.59 17.567-4.024 25.053-4.614 7.486-12.016 12.83-20.573 14.853z" transform="translate(34.900000, 78.800000)"/>
                    <path fill="#FFF" d="M42.903 225.648c4.716-1.125 5.283-1.242 7.2-1.602 1.122-.252 2.279-.31 3.42-.171.835.1 1.638.387 2.349.837.718.436 1.332 1.022 1.8 1.719.637.957 1.106 2.017 1.386 3.132.531 1.845.684 2.403 1.8 7.119 1.116 4.716 1.233 5.283 1.593 7.2.257 1.121.315 2.279.171 3.42-.092.838-.379 1.642-.837 2.349-.43.72-1.014 1.334-1.71 1.8-.961.637-2.023 1.105-3.141 1.386-1.8.531-2.394.684-7.11 1.8s-5.283 1.242-7.2 1.602c-1.124.256-2.285.314-3.429.171-.836-.098-1.64-.384-2.349-.837-.71-.45-1.308-1.056-1.746-1.773-.643-.955-1.115-2.015-1.395-3.132-.522-1.845-.675-2.394-1.8-7.11s-1.242-5.283-1.602-7.2c-.247-1.126-.305-2.284-.171-3.429.224-1.683 1.153-3.192 2.556-4.149.956-.64 2.016-1.113 3.132-1.395 1.8-.522 2.403-.675 7.119-1.8m-.756-3.186c-4.797 1.143-5.4 1.305-7.263 1.845-1.458.362-2.843.97-4.095 1.8-2.148 1.485-3.575 3.803-3.933 6.39-.19 1.5-.122 3.022.198 4.5.369 1.899.486 2.511 1.629 7.308s1.305 5.4 1.8 7.254c.36 1.458.969 2.844 1.8 4.095.732 1.102 1.7 2.027 2.835 2.709 1.091.687 2.32 1.126 3.6 1.287 1.5.19 3.022.123 4.5-.198 1.899-.36 2.511-.486 7.308-1.629s5.4-1.305 7.254-1.8c1.456-.368 2.84-.976 4.095-1.8 1.073-.724 1.976-1.673 2.646-2.781.683-1.094 1.125-2.321 1.296-3.6.186-1.5.116-3.023-.207-4.5-.36-1.908-.486-2.511-1.629-7.308s-1.305-5.4-1.8-7.263c-.37-1.455-.978-2.839-1.8-4.095-.724-1.07-1.673-1.97-2.781-2.637-1.09-.692-2.32-1.135-3.6-1.296-1.5-.19-3.022-.123-4.5.198-1.908.369-2.511.486-7.308 1.629" transform="translate(34.900000, 78.800000)"/>
                    <path fill="#FFF" d="M44.19 231.057c-5.009 1.193-8.102 6.221-6.91 11.23 1.194 5.01 6.221 8.103 11.23 6.91 5.01-1.192 8.104-6.219 6.912-11.228-1.197-5.008-6.222-8.1-11.232-6.912m3.6 14.967c-3.254.768-6.515-1.245-7.286-4.499-.77-3.253 1.24-6.516 4.494-7.289 3.253-.773 6.517 1.237 7.292 4.489.373 1.565.108 3.214-.736 4.583-.844 1.37-2.198 2.346-3.764 2.716M55.656 227.952c.275 1.17-.45 2.341-1.62 2.618-1.168.276-2.34-.447-2.62-1.616-.277-1.168.444-2.342 1.612-2.622.564-.138 1.159-.044 1.653.26.493.305.845.795.975 1.36" transform="translate(34.900000, 78.800000)"/>
                    <path fill="#455A64" d="M304.929 243.198c-4.098.002-8.028-1.624-10.926-4.52-2.899-2.897-4.527-6.826-4.527-10.924s1.628-8.027 4.527-10.924c2.898-2.896 6.828-4.522 10.926-4.52 4.1-.007 8.036 1.617 10.938 4.514 2.902 2.897 4.533 6.83 4.533 10.93s-1.63 8.033-4.533 10.93c-2.902 2.897-6.837 4.521-10.938 4.514z" transform="translate(34.900000, 78.800000)"/>
                    <path fill="#FFF" d="M302.571 237.087h3.762V227.7h2.619l.288-3.15h-2.907v-1.8c0-.738.153-1.035.9-1.035h2.043v-3.276h-2.61c-2.799 0-4.059 1.233-4.059 3.6v2.52H300.6v3.141h1.953l.018 9.387z" transform="translate(34.900000, 78.800000)"/>
                </g>
                <g fill-rule="nonzero" transform="translate(135.700000, 41.900000)">
                    <path fill="#263238" d="M151.443 365.445L27.342 365.4c-14.912 0-27-12.088-27-27L.396 27.288c0-7.17 2.852-14.046 7.927-19.111C13.398 3.112 20.28.274 27.45.287L151.542.36c14.912 0 27 12.088 27 27l-.054 311.04c.012 7.176-2.834 14.062-7.908 19.137-5.075 5.074-11.96 7.92-19.137 7.908z"/>
                    <path fill="#FFF" d="M151.407 11.268h-24.066c-3.288.079-5.896 2.796-5.841 6.084v4.365c.036 1.584-.56 3.118-1.655 4.262-1.096 1.145-2.602 1.807-4.186 1.84H68.76c-1.585-.035-3.091-.7-4.187-1.845-1.095-1.146-1.69-2.681-1.654-4.266v-4.392c.065-3.297-2.545-6.027-5.841-6.111H27.549c-5.02-.012-9.84 1.974-13.393 5.52-3.555 3.545-5.552 8.36-5.552 13.38l-.063 303.669c0 10.438 8.462 18.9 18.9 18.9l123.858.072c5.013 0 9.82-1.991 13.364-5.536 3.545-3.544 5.536-8.351 5.536-13.364l.063-303.678c0-10.42-8.434-18.875-18.855-18.9z"/>
                    <path fill="#263238" d="M153.216 35.937c0 .081-3.132.171-6.984.198-3.852.027-6.993 0-6.993-.081s3.123-.18 6.984-.207c3.861-.027 6.993.009 6.993.09zM153.243 39.51c0 .081-3.123.171-6.984.207-3.861.036-6.993 0-6.993-.09s3.132-.171 6.993-.207c3.861-.036 6.984.009 6.984.09zM153.279 43.083c0 .081-3.132.18-6.993.207-3.861.027-6.984 0-6.993-.09-.009-.09 3.132-.171 6.993-.207 3.861-.036 6.993.009 6.993.09zM21.6 46.575h1.386l3.762-.09-.108.099c0-.828 0-1.737-.045-2.7v-1.566c.122-.62.632-1.09 1.26-1.161h1.8c.711.115 1.233.729 1.233 1.449 0 1.278 0 2.601.045 3.978l-.171-.171h4.743l-.18.18c0-1.908 0-3.888-.054-5.913v-1.503c-.041-.454-.286-.864-.666-1.116l-2.07-2.052-2.007-1.971-.963-.954c-.333-.324-.594-.657-.981-.738-.376-.099-.776-.023-1.089.207-.288.243-.594.585-.9.9l-1.71 1.719c-1.071 1.107-2.187 2.124-2.997 3.087-.24.567-.321 1.19-.234 1.8V46.143c.013.207.013.414 0 .621-.01-.189-.01-.378 0-.567v-1.701c0-.675 0-1.683-.063-2.7v-1.71-.9c-.002-.347.088-.689.261-.99.9-1.071 1.926-2.025 3.006-3.168l1.692-1.737c.306-.297.549-.594.9-.9.392-.299.9-.402 1.377-.279.448.165.843.448 1.143.819l.972.954 2.007 1.971 2.079 2.034c.195.175.373.368.531.576.156.239.243.516.252.801v1.512c0 2.025 0 4.005.045 5.913v.18H30.6v-.171-3.978c.012-.568-.394-1.058-.954-1.152h-1.728c-.497.05-.907.412-1.017.9V46.791h-4.932c-.13-.059-.254-.131-.369-.216z"/>
                    <path fill="#455A64" d="M103.5 283.869c-.432.068-.868.098-1.305.09l-3.546.072c-2.988.045-7.128.072-11.7.072-4.572 0-8.712 0-11.7-.072l-3.546-.072c-.437.007-.873-.023-1.305-.09.431-.073.868-.103 1.305-.09l3.546-.081c2.988 0 7.128-.063 11.7-.063 4.572 0 8.703 0 11.7.063l3.546.081c.437-.014.874.016 1.305.09zM155.493 292.005c0 .135-19.053.234-42.552.234s-42.552-.099-42.552-.234 19.053-.234 42.552-.234 42.552.108 42.552.234zM128.898 299.7c0 .135-13.095.234-29.25.234s-29.259-.099-29.259-.234 13.095-.234 29.259-.234 29.25.072 29.25.234z"/>
                    <path fill="#263238" d="M157.176 314.577l-2.646-2.655-2.52 2.511v-7.596h5.157l.009 7.74zm-2.646-2.988l.081.081 2.331 2.34v-6.93h-4.689v6.795l2.277-2.286zM86.769 313.587l-.9-.414c-1.114.524-2.443.115-3.069-.945-.626-1.06-.343-2.422.654-3.144.996-.722 2.378-.568 3.191.356.812.925.788 2.316-.056 3.211l.18.936zm-2.169-5.058c-1.277.089-2.265 1.157-2.253 2.438.012 1.28 1.02 2.33 2.298 2.395.411-.028.81-.155 1.161-.369l.693.306-.162-.675c.649-.708.815-1.733.425-2.61-.391-.878-1.265-1.44-2.225-1.431l.063-.054zM92.763 313.2l-1.062-2.61-2.007-1.8h4.86l-1.791 4.41zm-2.619-4.257l1.71 1.566.9 2.223 1.53-3.825-4.14.036z"/>
                    <path fill="#263238" d="M91.59 309.581H94.75800000000001V310.581H91.59z" transform="translate(93.173775, 309.670612) rotate(-33.050000) translate(-93.173775, -309.670612)"/>
                    <path fill="#318FE7" d="M79.11 309.294c-.148-.717-.79-1.223-1.522-1.198-.732.024-1.34.572-1.439 1.297-.1-.734-.72-1.286-1.462-1.3-.74-.013-1.381.516-1.508 1.246-.07.518.063 1.043.369 1.467.304.417.661.792 1.062 1.116.549.477 1.044.9 1.584 1.404.54-.486.99-.945 1.53-1.431.396-.331.747-.712 1.044-1.134.301-.426.424-.952.342-1.467z"/>
                    <path fill="#263238" d="M162.594 321.3v-.846-2.466c0-2.169 0-5.4-.045-9.504 0-8.271-.045-20.304-.081-35.397l.153.153-143.919.081.234-.234V321.3l-.225-.225 102.987.099 30.06.063h10.908-10.773l-30.015.063-103.14.108h-.234v-.108-48.447h.252l143.919.081h.153v.153c0 15.129-.063 27.198-.081 35.496v11.898c0 .558-.153.819-.153.819z"/>
                    <path fill="#EBEBEB" d="M28.566 277.267H60.444V317.137H28.566z" transform="translate(44.504769, 297.201501) rotate(-89.670000) translate(-44.504769, -297.201501)"/>
                    <path fill="#263238" d="M64.521 281.358H53.397l-28.8-.063.216-.207c-.045 9.495-.099 20.367-.153 31.869.045.063-.441-.441-.234-.234h10.845l10.35.063 18.666.135-.189.198c.09-9.576.171-17.514.234-23.094 0-2.772.063-4.95.081-6.471v-1.71-.603 32.067h-.198l-18.666-.072-10.35-.054H24.354l-.243-.243c.081-11.511.144-22.383.207-31.869v-.216h.216l28.89.261 8.1.108h2.673l.324.135z"/>
                    <path fill="#E0E0E0" d="M30.55 278.666H58.414V315.73699999999997H30.55z" transform="translate(44.482113, 297.201527) rotate(-89.670000) translate(-44.482113, -297.201527)"/>
                    <path fill="#F5F5F5" d="M25.848 311.004L38.898 293.76 46.854 304.641 52.326 298.881 62.919 311.22zM50.337 291.708c-.004 1.184-.72 2.249-1.816 2.698-1.096.448-2.354.193-3.187-.648-.833-.841-1.077-2.102-.618-3.193.459-1.091 1.53-1.798 2.714-1.791.775.002 1.517.313 2.062.864.546.55.85 1.295.845 2.07z"/>
                    <path fill="#263238" d="M91.881 74.583c-.143.024-.289.024-.432 0l-1.215.045-4.5.081c-3.789 0-9 .063-14.814.063s-11.025 0-14.814-.063l-4.5-.081-1.224-.045c-.14.025-.283.025-.423 0 .138-.034.28-.05.423-.045h1.224l4.5-.072c3.789-.045 9-.072 14.814-.072s11.025 0 14.814.072l4.5.072h1.215c.145-.004.29.011.432.045zM150.777 250.785l-3.924-3.942-3.753 3.735v-11.286h7.668l.009 11.493zm-3.924-4.428l.117.117 3.465 3.474v-10.296h-6.984v10.098l3.402-3.393zM51.003 249.597l-1.8-.819c-2.172 1.01-4.756.202-5.966-1.865s-.65-4.716 1.295-6.115c1.944-1.4 4.634-1.09 6.21.713 1.576 1.804 1.521 4.511-.126 6.25l.387 1.836zm-4.293-9.945c-1.698.014-3.259.934-4.095 2.411-.836 1.478-.821 3.289.04 4.752.862 1.463 2.438 2.355 4.136 2.341.81-.049 1.595-.296 2.286-.72l.081-.045 1.35.603-.306-1.332.063-.063c1.278-1.394 1.605-3.415.833-5.141-.773-1.727-2.497-2.83-4.388-2.806zM62.811 248.814l-2.106-5.139-3.942-3.6 9.576-.072-3.528 8.811zm-5.157-8.397l3.366 3.087 1.8 4.374 3.006-7.524-8.172.063z"/>
                    <path fill="#263238" d="M60.52 241.657H66.748V242.657H60.52z" transform="translate(63.634133, 241.832713) rotate(-33.050000) translate(-63.634133, -241.832713)"/>
                    <path fill="#318FE7" d="M35.937 241.2c-.28-1.423-1.551-2.433-3-2.386-1.45.047-2.653 1.137-2.841 2.575-.213-1.432-1.43-2.5-2.879-2.525-1.447-.024-2.7 1.002-2.962 2.426-.135 1.018.126 2.049.729 2.88.604.82 1.308 1.56 2.097 2.205 1.071.9 2.052 1.8 3.123 2.763 1.044-.954 1.944-1.854 2.997-2.817.778-.655 1.47-1.405 2.061-2.232.586-.841.827-1.875.675-2.889z"/>
                    <circle cx="35.064" cy="74.583" r="6.498" fill="#EBEBEB"/>
                    <path fill="#455A64" d="M148.329 213.525c0 .135-27.234.243-60.822.243s-60.831-.108-60.831-.243 27.234-.234 60.831-.234 60.822.108 60.822.234zM148.329 203.4c0 .126-27.234.234-60.822.234s-60.831-.108-60.831-.234 27.234-.234 60.831-.234 60.822.108 60.822.234zM92.889 223.794c0 .126-14.823.234-33.102.234-18.279 0-33.111-.108-33.111-.234s14.823-.234 33.111-.234c18.288 0 33.102.108 33.102.234z"/>
                    <path fill="#263238" d="M84.726 334.161c-.025 1.428-1.2 2.566-2.628 2.547-1.427-.02-2.57-1.19-2.555-2.619.014-1.428 1.181-2.575 2.609-2.565.691.007 1.352.29 1.835.784.483.495.749 1.162.739 1.853zM92.7 334.197c-.03 1.42-1.2 2.55-2.621 2.529-1.42-.022-2.557-1.186-2.544-2.607.013-1.42 1.17-2.564 2.591-2.559.692.005 1.354.286 1.837.781.484.496.749 1.164.737 1.856zM100.737 334.233c-.03 1.42-1.2 2.55-2.621 2.529-1.42-.022-2.557-1.186-2.544-2.607.013-1.42 1.17-2.564 2.591-2.559.691.007 1.352.29 1.835.784.483.495.749 1.162.739 1.853z"/>
                    <path fill="#E0E0E0" d="M19.521 87.435H163.45800000000003V175.45499999999998H19.521z"/>
                    <path fill="#F5F5F5" d="M32.814 175.482L74.052 120.276 99.63 154.8 116.955 136.332 150.948 175.446zM110.466 113.499c.004 3.765-2.261 7.16-5.739 8.604-3.477 1.443-7.48.65-10.144-2.011-2.664-2.661-3.461-6.665-2.021-10.143 1.44-3.479 4.833-5.747 8.598-5.747 5.136 0 9.301 4.161 9.306 9.297z"/>
                    <path fill="#263238" d="M163.071 257.265c0-1.881-.09-81.396-.216-199.116l.216.216H19.152l.234-.234v199.116l-.198-.189 143.937.189-143.937.198h-.189v-.198c0-55.737 0-124.65-.045-199.116v-.234H163.341v.207l-.108 143.802c0 17.514-.045 31.347-.054 40.815V256.293c0 .63-.108.972-.108.972z"/>
                </g>
                <g fill-rule="nonzero">
                    <path fill="#FFBE9D" d="M153.9 228.87l3.186-10.701c.558-2.322 1.296-5.058 2.286-8.181.9-2.808 3.186-5.76 5.274-7.884 3.249-3.303 4.797-3.321 6.975-5.076.198-.126.423-.315.612-.414.412-.224.773-.53 1.062-.9 1.881-2.034.072-5.193-3.753-4.887-2.871.225-7.569 1.044-15.201 8.919-.099.126-.198.225-.288.342-4.005 5.211-7.767-9.657-8.451-15.192-.269-1.738-1.313-3.259-2.838-4.134-1.525-.876-3.365-1.01-5.001-.366l-18.594 8.694c-1.774-.514-3.665-.451-5.4.18-2.696.946-4.231 3.787-3.546 6.561l7.551 30.069-22.149 73.71h47.745l10.53-70.74z" transform="translate(77.200000, 95.000000)"/>
                    <path fill="#318FE7" d="M190.62 161.172l-14.76 28.926-7.38-2.052-37.08 30.177c-3.147 2.575-7.772 2.176-10.431-.9l-14.13-16.407s28.485-12.267 33.75-22.419c5.265-10.152-.819-12.465-.819-12.465l13.401-15.228 37.449 10.368zM171.477 102.096s-21.6-4.779-52.011-34.011C89.055 38.853 74.781 0 71.1.216c-3.681.216-19.971-7.353-50.877 59.868-30.906 67.221-18.729 82.8-12.6 82.71 6.129-.09 47.898-11.763 73.98-8.802 26.082 2.961 59.607 16.56 59.607 16.56l30.267-48.456z" transform="translate(77.200000, 95.000000)"/>
                    <path fill="#318FE7" d="M217.368 138.735l-7.371 14.013-3.303 6.3c-4.527 8.612-15.005 12.172-23.841 8.1l-46.305-16.137 27-61.56 46.26 24.651c8.859 4.74 12.234 15.74 7.56 24.633z" transform="translate(77.200000, 95.000000)"/>
                    <g fill="#000" opacity=".4">
                        <path d="M81.468 49.635l-7.371 14.013-3.303 6.3c-4.527 8.612-15.005 12.172-23.841 8.1L.648 61.911l27-61.56 46.26 24.651c8.859 4.74 12.234 15.74 7.56 24.633z" transform="translate(77.200000, 95.000000) translate(135.900000, 89.100000)"/>
                    </g>
                    <path fill="#318FE7" d="M22.689 61.308C6.246 97.722-.603 130.176 7.389 133.785c7.992 3.609 27.819-22.977 44.262-59.4s23.292-68.859 15.3-72.477c-7.992-3.618-27.819 22.986-44.262 59.4z" transform="translate(77.200000, 95.000000)"/>
                    <g fill="#000" opacity=".5">
                        <path d="M19.089 60.408c-16.443 36.414-23.292 68.868-15.3 72.477 7.992 3.609 27.819-22.977 44.262-59.4s23.292-68.859 15.3-72.477c-7.992-3.618-27.819 22.986-44.262 59.4z" transform="translate(77.200000, 95.000000) translate(3.600000, 0.900000)"/>
                    </g>
                    <path fill="#318FE7" d="M221.346 158.985L208.791 155.043 216.558 140.283 225.972 146.133z" transform="translate(77.200000, 95.000000)"/>
                    <g fill="#000" opacity=".6">
                        <path d="M8.658 0.783L0.891 15.543 3.474 16.353 9.783 1.476z" transform="translate(77.200000, 95.000000) translate(207.900000, 139.500000)"/>
                    </g>
                    <path fill="#318FE7" d="M207.9 143.685c-.18.405-6.444-2.025-13.986-5.4-7.542-3.375-13.5-6.507-13.329-6.912.171-.405 6.444 2.034 13.995 5.445 7.551 3.411 13.509 6.462 13.32 6.867zM211.77 134.892c-.198.396-5.868-1.989-12.663-5.337s-12.141-6.381-11.943-6.786c.198-.405 5.859 1.989 12.654 5.337s12.15 6.381 11.952 6.786zM203.04 152.91c-.063.216-1.557-.126-3.933-.9-1.188-.369-2.601-.837-4.158-1.368-1.557-.531-3.15-1.377-4.869-2.16-6.867-3.186-12.114-6.3-11.943-6.678.171-.378 5.814 2.061 12.6 5.22 1.71.774 3.294 1.62 4.788 2.241 1.494.621 2.835 1.17 3.96 1.674 2.25 1.035 3.618 1.755 3.555 1.971zM56.214 53.217S37.44 41.571 27.171 66.942C16.902 92.313 36.648 96.48 36.648 96.48c8.527-13.428 15.114-27.992 19.566-43.263z" transform="translate(77.200000, 95.000000)"/>
                    <g fill="#000" opacity=".5">
                        <path d="M54.585.477c.117 0-.153 1.746-.729 4.851s-1.44 7.596-2.646 13.122l-2.61 8.883c-.474 1.59-.963 3.237-1.467 4.941l-.765 2.583c-.279.9-.648 1.719-.972 2.592l-4.239 10.944c-.369.954-.747 1.908-1.116 2.871-.369.963-.9 1.881-1.323 2.835l-2.79 5.76-2.799 5.751c-.477.9-.9 1.908-1.413 2.79-.513.882-1.053 1.8-1.566 2.655l-5.985 10.107c-.486.792-.9 1.611-1.44 2.367l-1.557 2.205-2.988 4.212-5.4 7.533c-3.6 4.347-6.606 7.776-8.676 10.161-1.017 1.291-2.14 2.496-3.357 3.6.846-1.405 1.81-2.736 2.88-3.978 1.998-2.547 4.815-6.111 8.271-10.494l5.175-7.587 2.898-4.221c.504-.72 1.008-1.458 1.521-2.205.513-.747.9-1.566 1.395-2.367L28.8 70.29l1.539-2.646c.531-.9.9-1.8 1.395-2.772l2.772-5.715c.9-1.935 1.863-3.834 2.781-5.715.432-.9.954-1.854 1.314-2.808l1.125-2.844 4.302-10.8c.333-.9.711-1.701.999-2.565.288-.864.531-1.71.792-2.556l1.53-4.887 2.763-8.775 3.123-12.96c.313-1.626.765-3.221 1.35-4.77z" transform="translate(77.200000, 95.000000) translate(21.600000, 22.500000)"/>
                    </g>
                    <g fill="#000" opacity=".4">
                        <path d="M.621 26.1c1.719 3.114 3.465 6.3 5.994 8.757S12.6 39.06 16.2 38.7c3.6-.36 6.885-3.294 6.921-6.84 1.692 1.269 4.293.585 5.697-1.008s1.863-3.798 2.025-5.913c2.304 1.359 5.508.288 7.047-1.899 1.43-2.306 1.76-5.13.9-7.704-.877-2.53-2.123-4.917-3.699-7.083 1.8.144 3.654.27 5.238-.531 1.584-.801 2.7-2.907 1.737-4.419-.633-.844-1.55-1.43-2.583-1.647C36.702.756 34.758.09 31.86.423c-.666 0 1.161 7.632-16.992 18.054C4.095 24.642.621 26.1.621 26.1z" transform="translate(77.200000, 95.000000) translate(110.700000, 172.800000)"/>
                    </g>
                    <path fill="#EB996E" d="M152.199 209.88c0 .081-1.215-.153-3.177-.099-5.158.123-10.014 2.453-13.338 6.399-1.269 1.494-1.8 2.583-1.917 2.538.075-.28.193-.548.351-.792.385-.686.822-1.341 1.305-1.962 3.279-4.161 8.301-6.568 13.599-6.516.785.005 1.568.077 2.34.216.29.022.573.095.837.216z" transform="translate(77.200000, 95.000000)"/>
                    <path fill="#FFBE9D" d="M112.5 194.031c2.925 2.808 4.923 5.913 7.992 8.739 1.395 1.287 3.6 3.717 5.4 4.041 1.8.324 3.06.081 3.798-1.665.603-1.413-.477-3.348-1.215-4.5-1.953-3.069-3.825-5.463-5.283-7.848-.693-1.116.198-1.35.522-.828 1.404 1.458 3.51 2.7 4.77 4.311 1.728 2.169 2.034 5.058 6.552 4.14.604-.098 1.177-.335 1.674-.693 1.701-1.305 1.8-3.6 1.062-5.4-.637-1.39-1.487-2.67-2.52-3.798 1.926 2.169 4.023 4.5 7.083 4.698 1.772.215 3.486-.713 4.275-2.313.9-2.052-.387-4.041-1.692-5.643-2.31-2.848-4.88-5.476-7.677-7.848-1.045-.878-2.362-1.364-3.726-1.377-1.584 0-3.6.288-4.5 1.656-1.039 1.334-1.485 3.035-1.233 4.707 0 0-3.96-2.007-7.146.09-1.961 1.378-3.37 3.406-3.978 5.724l-4.158 3.807z" transform="translate(77.200000, 95.000000)"/>
                    <path fill="#FFBE9D" d="M133.605 177.183c-1.297-1.506-1.52-3.66-.558-5.4.675-1.323 1.521-2.61 2.385-2.898 3.771-1.269 20.259 1.584 20.106 5.238-.153 3.654-1.359 5.4-10.296 4.113-1.575-.225-4.041-.531-4.041-.531l-2.16 3.24-5.436-3.762z" transform="translate(77.200000, 95.000000)"/>
                    <path fill="#EB996E" d="M136.557 192.501c-2.164-3.568-5.319-6.43-9.081-8.235.614.099 1.205.306 1.746.612 2.71 1.31 4.984 3.372 6.552 5.94.363.508.629 1.078.783 1.683zM139.329 181.26c-.081.072-1.17-.81-2.655-1.719-.621-.393-1.264-.75-1.926-1.071-.513-.234-.855-.297-.846-.369.009-.072.387-.108.954.063.73.235 1.426.565 2.07.981 1.521.927 2.52 2.016 2.403 2.115zM142.101 177.858c-1.073.125-2.16.002-3.177-.36-.744-.228-1.436-.6-2.034-1.098-.45-.387-.639-.702-.594-.747.866.56 1.793 1.019 2.763 1.368 1.031.211 2.048.49 3.042.837zM126.081 197.028c-.568-.596-1.072-1.25-1.503-1.953-1.028-1.663-2.327-3.141-3.843-4.374-1.572-1.15-3.52-1.664-5.454-1.44-.793.142-1.565.387-2.295.729 0 0 .162-.189.531-.414.526-.319 1.105-.538 1.71-.648 2.035-.329 4.117.174 5.778 1.395 1.566 1.259 2.874 2.808 3.852 4.563.467.678.877 1.395 1.224 2.142zM138.69 233.478c-2.22.472-4.469.794-6.732.963-2.25.326-4.521.495-6.795.504 2.223-.472 4.475-.793 6.741-.963 2.248-.32 4.515-.49 6.786-.504z" transform="translate(77.200000, 95.000000)"/>
                </g>
                <g fill="#318FE7" fill-rule="nonzero">
                    <path d="M322.767.756L323.784 2.619 325.638 3.636 323.784 4.653 322.767 6.507 321.75 4.653 319.896 3.636 321.75 2.619zM344.016 46.809L345.033 48.672 346.887 49.689 345.033 50.706 344.016 52.56 342.999 50.706 341.136 49.689 342.999 48.672zM3.51 169.677L4.527 171.54 6.39 172.557 4.527 173.565 3.51 175.428 2.493 173.565.639 172.557 2.493 171.54zM294.894 12.204L297.243 16.497 301.536 18.846 297.243 21.186 294.894 25.479 292.554 21.186 288.261 18.846 292.554 16.497zM22.554 140.49L24.894 144.765 29.178 147.105 24.894 149.454 22.554 153.729 20.214 149.454 15.93 147.105 20.214 144.765zM349.794 242.604L352.134 246.888 356.409 249.228 352.134 251.568 349.794 255.852 347.454 251.568 343.17 249.228 347.454 246.888z" transform="translate(34.900000, 28.400000)"/>
                </g>
            </g>
        </g>
    </g>
</svg>
