<svg xmlns="http://www.w3.org/2000/svg" width="450" height="450" viewBox="0 0 450 450">
    <g fill="none" fill-rule="evenodd">
        <g>
            <g>
                <path d="M0 0H450V450H0z" transform="translate(-719.000000, -352.000000) translate(719.000000, 352.000000)"/>
                <path fill="#F5F5F5" fill-rule="nonzero" d="M397.57 191.77c1.53-41.42-13.35-83.34-46.15-103.29-16.19-9.85-35.12-15.62-54.06-14.77-20.32.91-39.45 9.18-58.61 16-19.16 6.82-39.91 12.27-59.66 7.43-14.29-3.5-26.86-12.15-41-16.09C82.38 65.54 33.87 128.75 61.13 179c6.69 12.32 17 22.2 25.67 33.23 8.67 11.03 15.94 24.35 14.77 38.32-1 11.57-7.56 21.87-10.29 33.15-5.22 21.61 5.14 45.38 23.05 58.55 17.91 13.17 42.07 16.24 63.67 10.82 21.6-5.42 40.6-18.68 55.57-35.1 8-8.8 15.84-19.08 27.35-22.07 11.05-2.86 22.44 1.8 33.65 3.94 20.946 3.874 42.563-1.044 59.77-13.6 27.05-20.01 41.85-57.04 43.23-94.47z" transform="translate(-719.000000, -352.000000) translate(719.000000, 352.000000)"/>
                <g fill="#F5F5F5" fill-rule="nonzero" transform="translate(-719.000000, -352.000000) translate(719.000000, 352.000000) translate(84.000000, 367.000000)">
                    <ellipse cx="135.39" cy="27.16" rx="135.21" ry="27.04"/>
                </g>
                <g transform="translate(-719.000000, -352.000000) translate(719.000000, 352.000000) translate(259.000000, 34.000000)">
                    <rect width="109.55" height="119.53" x=".41" y=".45" fill="#FFF" fill-rule="nonzero" stroke="#263238" stroke-linecap="round" stroke-linejoin="round" rx="6.03"/>
                    <path fill="#263238" fill-rule="nonzero" stroke="#263238" stroke-linecap="round" stroke-linejoin="round" d="M6.44.45h97.48c3.314 0 6 2.686 6 6v6.26H.41V6.48c-.008-1.602.625-3.14 1.757-4.273C3.3 1.075 4.838.442 6.44.45h0z"/>
                    <path stroke="#263238" stroke-linecap="round" stroke-linejoin="round" d="M6.38 64.27L50.46 64.27M6.38 69.96L50.46 69.96M6.38 75.65L50.46 75.65M6.38 81.34L50.46 81.34M6.38 87.03L50.46 87.03M6.38 92.73L50.46 92.73M6.38 98.42L50.46 98.42M6.38 104.11L50.46 104.11M6.38 109.8L50.46 109.8M58.21 64.27L102.29 64.27M58.21 69.96L102.29 69.96M58.21 75.65L102.29 75.65M58.21 81.34L102.29 81.34M58.21 87.03L102.29 87.03M58.21 92.73L102.29 92.73M58.21 98.42L102.29 98.42M58.21 104.11L102.29 104.11M58.21 109.8L102.29 109.8"/>
                    <path fill="#318FE7" fill-rule="nonzero" d="M35.86 28.24c.217-.676.332-1.38.34-2.09 0-2.59-2.63-2.74-5.21-2.74h-.65v-.61H41.6v.61c-2.93 0-4 1.87-4.91 4.64l-6 17.91c-.45 1.33-.83 2.32-2.24 2.32h-.12l-5.28-17.11L18.14 46c-.46 1.33-.84 2.32-2.25 2.32h-.11L8.1 23.41H5.4v-.61h9.88v.61h-2.81l5.7 19.62h.23L22.7 30l-2-6.54H18v-.66h9.89v.61h-2.81l5.7 19.62H31l4.86-14.79z"/>
                    <path fill="#318FE7" fill-rule="nonzero" stroke="#263238" stroke-linecap="round" stroke-linejoin="round" stroke-width="2" d="M57.24 17.13H102.6V58.129999999999995H57.24z"/>
                    <path fill="#263238" fill-rule="nonzero" stroke="#263238" stroke-linecap="round" stroke-linejoin="round" d="M102.6 34.27c-1.521.087-3.033.297-4.52.63-6.89 1.5-8.69 11.39-16.48 11.39-6.9 0-7.49-9.29-17.38-10.49-2.406-.379-4.87.057-7 1.24v21.09h45.38V34.27z"/>
                    <path fill="#FFF" fill-rule="nonzero" stroke="#263238" stroke-linecap="round" stroke-linejoin="round" d="M72.31 26.51c.004 2.065-1.237 3.928-3.144 4.72-1.906.792-4.102.356-5.562-1.104s-1.896-3.656-1.104-5.562c.792-1.907 2.655-3.148 4.72-3.144 2.811 0 5.09 2.279 5.09 5.09zM3.7 4.04H104.67V7.93H3.7z"/>
                    <path fill="#263238" fill-rule="nonzero" stroke="#263238" stroke-linecap="round" stroke-linejoin="round" d="M98.37 143.83H54.66c-3.579 0-6.48 2.901-6.48 6.48v23.38c0 3.579 2.901 6.48 6.48 6.48H56c-1.36 3-4 7.6-8.17 10.33 0 0 8.87-.62 18.11-10.33h32.41c3.579 0 6.48-2.901 6.48-6.48v-23.38c0-3.571-2.889-6.469-6.46-6.48h0z"/>
                    <path fill="#318FE7" fill-rule="nonzero" stroke="#263238" stroke-linecap="round" stroke-linejoin="round" d="M69 161.17c.004-1.353-.808-2.574-2.057-3.094-1.25-.52-2.688-.234-3.645.722-.956.957-1.241 2.396-.722 3.645.52 1.249 1.741 2.061 3.094 2.057 1.837-.005 3.325-1.493 3.33-3.33h0zM80.33 161.17c0-1.84-1.49-3.33-3.33-3.33s-3.33 1.49-3.33 3.33 1.49 3.33 3.33 3.33c1.837-.005 3.325-1.493 3.33-3.33zM91.67 161.17c.004-1.352-.807-2.573-2.055-3.093-1.248-.52-2.686-.237-3.643.718-.957.954-1.245 2.392-.729 3.64.517 1.25 1.735 2.065 3.087 2.065 1.838-.005 3.329-1.492 3.34-3.33z"/>
                </g>
                <g transform="translate(-719.000000, -352.000000) translate(719.000000, 352.000000) translate(75.000000, 48.000000)">
                    <path fill="#318FE7" fill-rule="nonzero" stroke="#263238" stroke-linecap="round" stroke-linejoin="round" d="M42 .63h72c3.568 0 6.46 2.892 6.46 6.46V57H35.57V7.09c0-3.556 2.874-6.443 6.43-6.46h0z"/>
                    <path fill="#263238" fill-rule="nonzero" stroke="#263238" stroke-linecap="round" stroke-linejoin="round" d="M35.57 48.95H120.41999999999999V56.97H35.57z"/>
                    <path fill="#FFF" fill-rule="nonzero" stroke="#263238" stroke-linecap="round" stroke-linejoin="round" d="M39.46 51.69H116.53999999999999V54.23H39.46z"/>
                    <circle cx="78" cy="26.21" r="11.72" fill="#263238" fill-rule="nonzero" stroke="#263238" stroke-linecap="round" stroke-linejoin="round"/>
                    <path fill="#FFF" fill-rule="nonzero" stroke="#263238" stroke-linecap="round" stroke-linejoin="round" d="M72.71 18.92L85.36 26.22 72.71 33.52z"/>
                    <rect width="86.17" height="36.33" x=".37" y="77.5" fill="#263238" fill-rule="nonzero" stroke="#263238" stroke-linecap="round" stroke-linejoin="round" rx="2.82"/>
                    <path fill="#318FE7" fill-rule="nonzero" d="M10.63 82.45l.42.7c-1.9 1.06-3.67 2.92-3.67 5.1-.05.757.208 1.5.715 2.065.506.565 1.218.902 1.975.935.28 0 .47-.14.47-.42 0-.28-.14-.37-.42-.42-.78-.211-1.292-.956-1.21-1.76.015-.627.286-1.221.751-1.643.465-.422 1.083-.634 1.709-.587.68.002 1.332.28 1.804.77.473.49.728 1.15.706 1.83-.01.855-.367 1.67-.99 2.256-.622.587-1.456.895-2.31.854-1.063.069-2.105-.316-2.868-1.06-.762-.744-1.174-1.776-1.132-2.84-.03-2.53 1.92-4.57 4.05-5.78zm8.59 0l.42.7c-1.91 1.06-3.67 2.92-3.67 5.1-.052.757.205 1.503.711 2.068.507.565 1.22.901 1.979.932.28 0 .47-.14.47-.42 0-.28-.14-.37-.42-.42-.78-.211-1.292-.956-1.21-1.76.012-.628.283-1.224.748-1.646.466-.423 1.085-.634 1.712-.584.68.002 1.332.28 1.804.77.473.49.728 1.15.706 1.83-.013.854-.37 1.667-.992 2.253-.622.586-1.455.895-2.308.857-1.062.066-2.102-.32-2.864-1.064-.762-.742-1.175-1.773-1.136-2.836-.04-2.53 1.91-4.57 4.05-5.78z"/>
                    <path stroke="#FFF" stroke-linecap="round" stroke-linejoin="round" d="M27.44 89.85L76.48 89.85M27.44 94.06L76.48 94.06M27.44 98.27L76.48 98.27M27.44 102.49L76.48 102.49"/>
                    <circle cx="64.812" cy="151.832" r="18.57" fill="#263238" fill-rule="nonzero" stroke="#263238" stroke-linecap="round" stroke-linejoin="round" transform="translate(64.811834, 151.832038) rotate(-9.270000) translate(-64.811834, -151.832038)"/>
                    <circle cx="64.816" cy="151.853" r="15.67" fill="#FFF" fill-rule="nonzero" stroke="#263238" stroke-linecap="round" stroke-linejoin="round" transform="translate(64.816352, 151.853207) rotate(-48.710000) translate(-64.816352, -151.853207)"/>
                    <path stroke="#263238" stroke-linecap="round" stroke-linejoin="round" stroke-width="2" d="M64.82 140.5L64.82 151.83 72.48 151.83"/>
                </g>
                <g transform="translate(-719.000000, -352.000000) translate(719.000000, 352.000000) translate(125.000000, 95.000000)">
                    <path fill="#FFD1D1" fill-rule="nonzero" d="M131 104.87s10.65 22.73 10.65 23.93c0 1.2-9.45 6.34-11.25 7.42-1.396.795-2.835 1.513-4.31 2.15l1.08 10.53s16.27-3.71 23.09-7.42 6.58-7.9 5-14.12c-1.58-6.22-12.09-30.26-12.09-30.26L131 104.87z"/>
                    <path fill="#FFD1D1" fill-rule="nonzero" d="M150.23 141.48c6.82-3.71 6.58-7.9 5-14.12-1.58-6.22-12.09-30.26-12.09-30.26l-1.7 1.08-.54 1s9.81 24.08 10.4 32.1c.4 5.39-10.45 12.11-17.62 15.95 5.32-1.41 12.56-3.58 16.55-5.75z" opacity=".651" style="mix-blend-mode:multiply"/>
                    <path stroke="#263238" stroke-linecap="round" stroke-linejoin="round" d="M131 104.87s10.65 22.73 10.65 23.93c0 1.2-9.45 6.34-11.25 7.42-1.396.795-2.835 1.513-4.31 2.15l1.08 10.53s16.27-3.71 23.09-7.42 6.58-7.9 5-14.12c-1.58-6.22-12.09-30.26-12.09-30.26L131 104.87z"/>
                    <path fill="#FFD1D1" fill-rule="nonzero" d="M54.16 99.85s-7.77 28.47-8 33.5c-.23 5.03 15.43 14.95 16 15.55.57.6-.89-17.3-.89-17.3l5.31-26-12.42-5.75z"/>
                    <path fill="#FFD1D1" fill-rule="nonzero" d="M57.72 102.18l-.17-.77-3.39-1.56s-7.77 28.47-8 33.5c-.23 5.03 15.43 14.95 16 15.55.23.24.14-2.44-.05-5.75-4.66-3.95-11.35-9.51-12.13-11.85" opacity=".651" style="mix-blend-mode:multiply"/>
                    <path stroke="#263238" stroke-linecap="round" stroke-linejoin="round" d="M54.16 99.85s-7.77 28.47-8 33.5c-.23 5.03 15.43 14.95 16 15.55.57.6-.89-17.3-.89-17.3l5.31-26-12.42-5.75z"/>
                    <path fill="#318FE7" fill-rule="nonzero" stroke="#263238" stroke-linecap="round" stroke-linejoin="round" d="M90.65 71.25s-3 2.16-8.85 2.4c-5.85.24-6.13-4-13.4-4-8.81 0-19.86 27.87-19.86 27.87s5.5 5.39 10.89 7.66c2.982 1.306 6.117 2.23 9.33 2.75l.84 18.31h59.34l.71-18.31L148.2 95.9s-9.1-16.27-13.52-22.37c-4.42-6.1-11.85-3.83-14.12-2.28-2.27 1.55-9 1.92-11.48 1.56-3.235-.716-6.433-1.594-9.58-2.63 0 0-3.82-3.18-8.85 1.07z"/>
                    <path stroke="#263238" stroke-linecap="round" stroke-linejoin="round" stroke-width=".5" d="M69.36 77.71L69.12 108.1M71.51 80.47s.84 14.83 4 23.09M76.06 104.75c.683 2.016 1.522 3.975 2.51 5.86M73.42 78.79c1.135 5.392 2.738 10.676 4.79 15.79M125 81.42s-2.87 11.73-5.39 17M129.65 107.98L129.53 84.29M128.34 84.77s-2.16 15-7.42 22.85M125.71 104.63s-2.4 4.55-4.07 6.94M87.3 73.05s1.68 10.29 4.07 15.55c2.39 5.26 6.58 6.34 10.17 4.79 3.59-1.55 6.22-9.22 6-19"/>
                    <path fill="#318FE7" fill-rule="nonzero" stroke="#263238" stroke-linecap="round" stroke-linejoin="round" d="M78.81 51.51s-2.28-3.94-4.07-1.91c-1.79 2.03 1.44 6.7 3.23 8.25 1.79 1.55 3.11.6 3-1.07-.11-1.67-2.16-5.27-2.16-5.27z"/>
                    <path fill="#FFD1D1" fill-rule="nonzero" d="M78.81 51.51s-2.28-3.94-4.07-1.91c-1.79 2.03 1.44 6.7 3.23 8.25 1.79 1.55 3.11.6 3-1.07-.11-1.67-2.16-5.27-2.16-5.27z"/>
                    <path stroke="#263238" stroke-linecap="round" stroke-linejoin="round" d="M78.81 51.51s-2.28-3.94-4.07-1.91c-1.79 2.03 1.44 6.7 3.23 8.25 1.79 1.55 3.11.6 3-1.07-.11-1.67-2.16-5.27-2.16-5.27z"/>
                    <path fill="#318FE7" fill-rule="nonzero" stroke="#263238" stroke-linecap="round" stroke-linejoin="round" d="M115 51.51s2.27-3.94 4.07-1.91c1.8 2.03-1.44 6.7-3.23 8.25-1.79 1.55-3.12.6-3-1.07.12-1.67 2.16-5.27 2.16-5.27z"/>
                    <path fill="#FFD1D1" fill-rule="nonzero" d="M115 51.51s2.27-3.94 4.07-1.91c1.8 2.03-1.44 6.7-3.23 8.25-1.79 1.55-3.12.6-3-1.07.12-1.67 2.16-5.27 2.16-5.27z"/>
                    <path stroke="#263238" stroke-linecap="round" stroke-linejoin="round" d="M115 51.51s2.27-3.94 4.07-1.91c1.8 2.03-1.44 6.7-3.23 8.25-1.79 1.55-3.12.6-3-1.07.12-1.67 2.16-5.27 2.16-5.27z"/>
                    <path fill="#FEBBBB" fill-rule="nonzero" stroke="#263238" stroke-linecap="round" stroke-linejoin="round" d="M89.57 70.42c1.13 5.106 2.569 10.139 4.31 15.07 2.16 5.38 6.22 5.38 7.9 1.91 1.68-3.47 2.75-16.4 2.75-16.4s-11.25 1.57-14.96-.58z"/>
                    <path fill="#FFD1D1" fill-rule="nonzero" d="M79.05 52.83s5.59 26.169 20.13 25c14.54-1.169 16.12-27.95 16.51-28.55.39-.6-1-12.56-7.66-17.71s-14.12-7.41-20.58-1.79c-6.46 5.62-10.56 14.79-8.4 23.05z"/>
                    <path stroke="#263238" stroke-linecap="round" stroke-linejoin="round" d="M79.05 52.83s4.681 25.96 19.384 25.073c14.703-.886 16.866-28.023 17.256-28.623.39-.6-1-12.56-7.66-17.71s-14.12-7.41-20.58-1.79c-6.46 5.62-10.56 14.79-8.4 23.05zM87.18 60.49c1.419 1.025 3.322 1.072 4.79.12M102.38 60.49c1.416 1.023 3.315 1.07 4.78.12M94.82 56.46s-2.28-5.63-9.81-3M101.09 55.77s1.91-5.51 8.73-2.28"/>
                    <path stroke="#263238" stroke-linecap="round" stroke-linejoin="round" d="M96.27 60.9c0 3.08-3.53 5.57-7.89 5.57-4.36 0-7.9-2.49-7.9-5.57s3.3-4.36 7.66-4.36 8.13 1.29 8.13 4.36zM114.46 60.9c0 3.08-3.54 5.57-7.9 5.57s-7.89-2.49-7.89-5.57 3.29-4.36 7.65-4.36 8.14 1.29 8.14 4.36z"/>
                    <path fill="#FFF" fill-rule="nonzero" stroke="#263238" stroke-linecap="round" stroke-linejoin="round" d="M13.63 156.83l-.49 121.23c0 .795.645 1.44 1.44 1.44h0c.774 0 1.408-.616 1.43-1.39L19.47 157l-5.84-.17zM5.47 185.17L5 310.5c-.003.383.148.75.419 1.021.27.27.638.422 1.021.419h0c.772 0 1.408-.608 1.44-1.38l3.45-125.23-5.86-.16zM181.23 156.83l.49 121.23c.003.381-.147.747-.415 1.018-.269.27-.634.422-1.015.422h0c-.776 0-1.413-.614-1.44-1.39L175.4 157l5.83-.17zM189.4 185.17l.49 125.33c.003.383-.148.75-.419 1.021-.27.27-.638.422-1.021.419h0c-.77 0-1.403-.61-1.43-1.38l-3.46-125.23 5.84-.16zM62.29 190.38L62 301.62c-.066.577.336 1.102.91 1.19h0c.56-.078.962-.577.92-1.14L66 190.51l-3.71-.13zM132.7 186.8l.27 97.08c.048.488-.295.928-.78 1h0c-.484-.072-.824-.514-.77-1l-1.85-97 3.13-.08zM61.2 186.8l.27 97.08c.048.488-.295.928-.78 1h0c-.484-.072-.824-.514-.77-1l-1.85-97 3.13-.08z"/>
                    <path fill="#FFF" fill-rule="nonzero" stroke="#263238" stroke-linecap="round" stroke-linejoin="round" d="M130.69 190.38l.31 111.24c.066.577-.336 1.102-.91 1.19h0c-.557-.082-.957-.578-.92-1.14L127 190.51l3.69-.13z"/>
                    <ellipse cx="96" cy="188" fill="#FFF" fill-rule="nonzero" stroke="#263238" stroke-linecap="round" stroke-linejoin="round" rx="44.5" ry="10.17"/>
                    <path fill="#FFF" fill-rule="nonzero" stroke="#263238" stroke-linecap="round" stroke-linejoin="round" d="M74.33 274.33s-2.33 3.34-.66 5c1.67 1.66 3.33 1 3.16 2.67-.17 1.67-2.83 7.33-5.16 13.33s2.5 12 7 10.34c4.5-1.66 4-18.34 4.66-21.34.66-3 1.17-3.5 1-6.33-.17-2.83-.33-5.83-2.5-6.17-2.17-.34-6.5 1.34-7.5 2.5z"/>
                    <path fill="#318FE7" fill-rule="nonzero" stroke="#263238" stroke-linecap="round" stroke-linejoin="round" d="M81.48 301.07c-3-1.14-7.6-.91-10.19-.65.87 3.77 4.2 6.42 7.38 5.25 1.33-.49 2.2-2.27 2.81-4.6z"/>
                    <path fill="#FFD1D1" fill-rule="nonzero" stroke="#263238" stroke-linecap="round" stroke-linejoin="round" d="M69.17 267s4.83 8.17 6.16 10.33 5.84 1.5 6.34-1.5-1.84-11.33-1.84-11.33l-10 2.5h-.66z"/>
                    <path fill="#318FE7" fill-rule="nonzero" stroke="#263238" stroke-linecap="round" stroke-linejoin="round" d="M57.67 254s-1.34 2.17-.67 3.67 2.5 5.83 3.67 8 6.5 3.5 12.66 2.5 9.67-3.84 9.84-6.34c.17-2.5-1-5.83-1.84-9.83-.84-4-3-3.83-6-3.83s-15.16 3.5-17.66 5.83z"/>
                    <path fill="#263238" fill-rule="nonzero" stroke="#263238" stroke-linecap="round" stroke-linejoin="round" d="M75.67 205c.09-4.1 2.46-6.12 2.64-8.93.282-3.715-.025-7.451-.91-11.07l-4.56-6.23c-13.12.17-22.52.39-22.67.44-.5.16-.84 3-1.17 5.33 0 0-5.57.71-4.57 16.21.14 2.16 5.76 27.15 6.17 30 2.5 17.41 8.07 26.13 8.07 26.13s.5 2.17 7 1.67 13-4.83 13-4.83-3.34-33.89-3-48.72z"/>
                    <path fill="#FFF" fill-rule="nonzero" stroke="#263238" stroke-linecap="round" stroke-linejoin="round" d="M48.1 182s-6.89 1-11.11 5.82-.64 8 7.56 7.14c8.2-.86 17.66-9.25 18.06-9.7.4-.45-8.55-6.15-14.51-3.26z"/>
                    <path fill="#FFD1D1" fill-rule="nonzero" stroke="#263238" stroke-linecap="round" stroke-linejoin="round" d="M60.33 185c4.39.226 8.745.896 13 2 5.67 1.67 15.67 5 18 5S93 183.33 93 181.67c0-1.66-30-2.67-33.67-2.67-3.67 0 1 6 1 6z"/>
                    <path fill="#318FE7" fill-rule="nonzero" stroke="#263238" stroke-linecap="round" stroke-linejoin="round" d="M93 181.67S90.33 183 89.33 188s-2.33 7.67-.33 9 10.67 2.33 12 1 5-8 5.67-12.33c.67-4.33-13.67-4-13.67-4z"/>
                    <path fill="#263238" fill-rule="nonzero" stroke="#263238" stroke-linecap="round" stroke-linejoin="round" d="M104.33 183.33c-1.55 1.779-2.788 3.808-3.66 6-.707 2.295-1.265 4.633-1.67 7 3.19.875 6.31 1.991 9.33 3.34 5.34 2.33 14.34 4 23 6s11 4 14 4 6.67-2.34 11.34-8 .66-17.67-4-21.34c-4.66-3.67-29.67-6.66-33-5.66-3.33 1-15.34 8.66-15.34 8.66z"/>
                    <path fill="#318FE7" fill-rule="nonzero" stroke="#263238" stroke-linecap="round" stroke-linejoin="round" d="M41.79 195.05c-.659-2.992-1.993-5.793-3.9-8.19-.31.29-.61.59-.9.92-3.71 4.22-1.39 7.22 4.8 7.27z"/>
                    <path stroke="#FFF" stroke-linecap="round" stroke-linejoin="round" stroke-width=".5" d="M75.16 197.69s-3.44 36.81-10.46 42.54M72.73 232.63s-2.73 12-9.89 16.77M117 191s-10.67.67-3.67 5.33S133 204 133 204"/>
                    <path fill="#263238" fill-rule="nonzero" stroke="#263238" stroke-linecap="round" stroke-linejoin="round" d="M194.46 178.39l-3.6-3.24-8.32-18c-.806-1.672-2.504-2.727-4.36-2.71H16.58c-1.86-.021-3.563 1.035-4.37 2.71L1.84 179.57l-1.71-.63v5.13l.08-.06c.21 1.416 1.439 2.456 2.87 2.43h188.59c1.515.035 2.784-1.137 2.87-2.65l-.08-5.4z"/>
                    <path fill="#FFF" fill-rule="nonzero" stroke="#263238" stroke-linecap="round" stroke-linejoin="round" d="M191.67 181.75H3.08c-.95.038-1.851-.415-2.388-1.2-.536-.784-.631-1.789-.252-2.66l11.77-25.43c.803-1.678 2.51-2.736 4.37-2.71h161.6c1.857-.022 3.558 1.035 4.36 2.71l11.77 25.43c.38.871.284 1.876-.252 2.66-.537.785-1.439 1.238-2.388 1.2h0z"/>
                    <path fill="#318FE7" fill-rule="nonzero" d="M12.63 164.67s-4.27 2.93-1.6 4c2.67 1.07 33.36.27 37.1-.8 3.74-1.07 8-10.94 8-12.54 0-1.6-5.38-2.75-7.36-2.84-1.98-.09-28.14 1.5-28.14 1.5l-8 10.68z" opacity=".5" style="mix-blend-mode:multiply"/>
                    <ellipse fill="#318FE7" fill-rule="nonzero" opacity=".5" style="mix-blend-mode:multiply" cx="165.29" cy="165.2" rx="10.94" ry="4.54"/>
                    <ellipse fill="#318FE7" fill-rule="nonzero" opacity=".5" style="mix-blend-mode:multiply" cx="95.64" cy="168.01" rx="39.23" ry="7.34"/>
                    <path fill="#318FE7" fill-rule="nonzero" stroke="#263238" stroke-linecap="round" stroke-linejoin="round" d="M157.29 147.34s-.72-2.87-3.11-1.91c-2.39.96-2.15 7.3-1.68 10.89.47 3.59 3.71 1.91 3.71 1.91v-2.15s-1.19.95-1.79-.36c-.6-1.31-.48-7.9.12-7.78.6.12 1.79 2.15 1.79 2.15s.36-.23.96-2.75z"/>
                    <path fill="#318FE7" fill-rule="nonzero" stroke="#263238" stroke-linecap="round" stroke-linejoin="round" d="M155.57 147.82v15.72c0 1.85 4.25 3.35 9.5 3.35s9.49-1.5 9.49-3.35v-15.72h-18.99z"/>
                    <path fill="#FFF" fill-rule="nonzero" stroke="#263238" stroke-linecap="round" stroke-linejoin="round" d="M174.56 147.82c0 1.6-4.25 2.89-9.49 2.89s-9.5-1.29-9.5-2.89 4.25-2.89 9.5-2.89 9.49 1.3 9.49 2.89z"/>
                    <path fill="#FFF" fill-rule="nonzero" stroke="#263238" stroke-linecap="round" stroke-linejoin="round" d="M173.32 147.82c0 1.39-3.7 2.51-8.25 2.51s-8.26-1.12-8.26-2.51c0-1.39 3.7-2.51 8.26-2.51s8.25 1.12 8.25 2.51z"/>
                    <path fill="#263238" fill-rule="nonzero" stroke="#263238" stroke-linecap="round" stroke-linejoin="round" d="M158.7 149.42c4.157 1.213 8.573 1.213 12.73 0-4.157-1.213-8.573-1.213-12.73 0z"/>
                    <path fill="#FFF" fill-rule="nonzero" stroke="#263238" stroke-linecap="round" stroke-linejoin="round" d="M11.45 155L11.57 160.38 47.82 160.74 47.82 154.52z"/>
                    <path fill="#FFF" fill-rule="nonzero" stroke="#263238" stroke-linecap="round" stroke-linejoin="round" d="M47.82 160.74L53.09 149.38 53.09 146.03 47.58 155.6z"/>
                    <path fill="#FFF" fill-rule="nonzero" stroke="#263238" stroke-linecap="round" stroke-linejoin="round" d="M11.45 159.9L11.57 165.29 47.82 165.65 47.82 159.43z"/>
                    <path fill="#FFF" fill-rule="nonzero" stroke="#263238" stroke-linecap="round" stroke-linejoin="round" d="M47.82 165.65L53.09 154.28 53.09 150.93 47.58 160.5zM25.45 141.36s.84-1.67-.36-2.39c-1.2-.72-2.51 1-3.23 1.55-.72.55-15.79 10.53-16.27 12.09-.48 1.56 0 5 3.23 5.38 3.23.38 6.1-1.79 7.54-2.15 1.44-.36 2-.48 2-.48l9.93-13.4-2.84-.6z"/>
                    <path fill="#FFF" fill-rule="nonzero" stroke="#263238" stroke-linecap="round" stroke-linejoin="round" d="M8.82 158c3.23.36 6.1-1.79 7.54-2.15 1.44-.36 2-.48 2-.48l.36-.49-9.33-1.9c-1.044-.983-2.622-1.131-3.83-.36-.45 1.54.03 5.01 3.26 5.38z"/>
                    <path fill="#FFF" fill-rule="nonzero" stroke="#263238" stroke-linecap="round" stroke-linejoin="round" d="M9.42 153h28c8.74 0 11.37-.48 11.37-.48l5.38-11.13s-17 1.08-22.25.72c-2.17-.063-4.33-.303-6.46-.72L9.42 153z"/>
                    <path fill="#FFF" fill-rule="nonzero" stroke="#263238" stroke-linecap="round" stroke-linejoin="round" d="M9.42 153l.48 2.15s22.73.12 28.71.12 10.53.24 10.53.24l-.36-3-39.36.49zM49.14 155.48L54.16 143.99 54.16 141.36 48.78 152.49zM129.9 168.92H61.35c-.307.003-.602-.117-.82-.333-.217-.216-.34-.51-.34-.817h0c0-.307.123-.6.34-.817.218-.216.513-.336.82-.333h68.55c.306-.003.6.118.816.334.216.216.337.51.334.816h0c.003.306-.118.6-.334.816-.216.216-.51.337-.816.334zM130.48 166.6H60.76c-.53.001-.968-.411-1-.94l-3.79-45.55c-.034-.285.055-.572.247-.786.191-.214.466-.336.753-.334h77.31c.287-.002.562.12.753.334.192.214.281.5.247.786l-3.79 45.55c-.032.533-.476.946-1.01.94h0z"/>
                    <path fill="#FFF" fill-rule="nonzero" stroke="#263238" stroke-linecap="round" stroke-linejoin="round" d="M102.2 143.58c0 2.72-2.95 4.92-6.58 4.92s-6.59-2.2-6.59-4.92c0-2.72 2.95-4.91 6.59-4.91 3.64 0 6.58 2.2 6.58 4.91z"/>
                    <path stroke="#263238" stroke-linecap="round" stroke-linejoin="round" d="M170.33 108c1.07-.834 1.821-2.01 2.13-3.33.225-.99.2-2.021-.07-3M162.35 143.66s6.65-4 4.48-8.57-9.51-7.6-9.51-14.72c0-6.14 6.53-8.41 10.79-10.87"/>
                    <path stroke="#263238" stroke-linecap="round" stroke-linejoin="round" d="M168.49 143.53s3.71-2.47 3.71-6.39c0-2.63-2.81-4.35-6.52-8.58M163.63 126s-2.43-1.91-.64-5.5"/>
                    <path fill="#263238" fill-rule="nonzero" d="M107.33 21.25c1.19-.25 3.74-1.23 5.46-5.22.053-.122.056-.26.007-.384-.048-.124-.145-.223-.267-.276-.254-.106-.546.01-.66.26-1.58 3.66-3.84 4.47-4.78 4.65 1.682-2.036 2.611-4.59 2.63-7.23 0-6.94-6.43-12.56-14.36-12.56S81 6.11 81 13.05c.005 2.534.85 4.996 2.4 7-1.51-.08-4.06.56-7.29 4.33-.192.198-.192.512 0 .71.093.077.21.12.33.12.147 0 .287-.066.38-.18 4.13-4.81 6.86-4 7.41-3.78-.934.514-1.809 1.127-2.61 1.83-4.61 4.15-7.42 12-7.06 18.54.405 4.338 1.977 8.485 4.55 12 3.348-2.396 6.125-5.504 8.13-9.1 1.494-2.641 2.83-5.37 4-8.17 0 2.93.38 6.47 1.92 9 2.263 4.07 6.563 6.585 11.22 6.56.79.011 1.578-.066 2.35-.23.137-.034.253-.125.32-.25 3.86.82 7.7.75 8.29-.07.95-1.31 2.3-5.4 2.75-10.4.82-8.48-4.52-15.84-10.76-19.71zM94.09 44.74c-1.94-3.17-1.88-8.34-1.65-11.31l.13-.34c.187 6.188 3.179 11.954 8.13 15.67 1.35.933 2.848 1.633 4.43 2.07-2.45.17-7.49-.3-11.04-6.09z"/>
                    <path stroke="#FFF" stroke-linecap="round" stroke-linejoin="round" stroke-width=".5" d="M94.26 29s-.82 6.06 6.88 12 15 3.6 15 3.6M95.39 27s8.11 11.81 19.31 8.73M91.38 23.07c-2.607-1.324-5.734-1.085-8.11.62-4.31 2.87-6.47 9.65-6.47 9.65M91.59 26.36s-3.49-.93-5.65 1.23c-1.053.954-1.953 2.064-2.67 3.29"/>
                </g>
            </g>
        </g>
    </g>
</svg>
