<svg xmlns="http://www.w3.org/2000/svg" xmlns:xlink="http://www.w3.org/1999/xlink" xmlns:lucid="lucid" width="985" height="813"><g transform="translate(-126 -180)" lucid:page-tab-id="0_0"><path d="M0 0h1760v1360H0z" fill="#fff"/><path d="M798 233.7h290.66v740H798z" stroke="#000" stroke-opacity="0" fill="#fff"/><path d="M555.3 233.7H798v740H555.3z" stroke="#000" stroke-opacity="0" fill="#f6f6f7"/><path d="M361.62 233.7H555.3v740H361.6z" stroke="#000" stroke-opacity="0" fill="#fff"/><path d="M167.4 233.7h192.93v740H167.4z" stroke="#000" stroke-opacity="0" fill="#f6f6f7"/><path d="M167.4 313.7h194.22v160h-194.2z" stroke="#000" stroke-opacity="0" stroke-width="2" fill="#fff" fill-opacity="0"/><use xlink:href="#a" transform="matrix(1,0,0,1,172.41493250432558,318.70817001812026) translate(8 37.65972222222222)"/><use xlink:href="#b" transform="matrix(1,0,0,1,172.41493250432558,318.70817001812026) translate(87.80246913580248 37.65972222222222)"/><use xlink:href="#c" transform="matrix(1,0,0,1,172.41493250432558,318.70817001812026) translate(8 58.99305555555556)"/><use xlink:href="#d" transform="matrix(1,0,0,1,172.41493250432558,318.70817001812026) translate(47.01234567901235 58.99305555555556)"/><use xlink:href="#e" transform="matrix(1,0,0,1,172.41493250432558,318.70817001812026) translate(8 80.3263888888889)"/><use xlink:href="#f" transform="matrix(1,0,0,1,172.41493250432558,318.70817001812026) translate(8 101.65972222222223)"/><use xlink:href="#g" transform="matrix(1,0,0,1,172.41493250432558,318.70817001812026) translate(68.19753086419755 101.65972222222223)"/><use xlink:href="#h" transform="matrix(1,0,0,1,172.41493250432558,318.70817001812026) translate(8 122.99305555555557)"/><path d="M360.33 672.04h194.2v223.33h-194.2z" stroke="#000" stroke-opacity="0" stroke-width="2" fill="#fff" fill-opacity="0"/><use xlink:href="#a" transform="matrix(1,0,0,1,365.33256001368363,677.0415033514537) translate(8 20.90972222222222)"/><use xlink:href="#b" transform="matrix(1,0,0,1,365.33256001368363,677.0415033514537) translate(87.80246913580248 20.90972222222222)"/><use xlink:href="#i" transform="matrix(1,0,0,1,365.33256001368363,677.0415033514537) translate(8 42.24305555555556)"/><use xlink:href="#j" transform="matrix(1,0,0,1,365.33256001368363,677.0415033514537) translate(49.48148148148149 42.24305555555556)"/><use xlink:href="#k" transform="matrix(1,0,0,1,365.33256001368363,677.0415033514537) translate(8 63.57638888888889)"/><use xlink:href="#a" transform="matrix(1,0,0,1,365.33256001368363,677.0415033514537) translate(8 84.90972222222223)"/><use xlink:href="#b" transform="matrix(1,0,0,1,365.33256001368363,677.0415033514537) translate(87.80246913580248 84.90972222222223)"/><use xlink:href="#l" transform="matrix(1,0,0,1,365.33256001368363,677.0415033514537) translate(8 106.24305555555557)"/><use xlink:href="#m" transform="matrix(1,0,0,1,365.33256001368363,677.0415033514537) translate(56.39506172839507 106.24305555555557)"/><use xlink:href="#e" transform="matrix(1,0,0,1,365.33256001368363,677.0415033514537) translate(8 127.57638888888891)"/><use xlink:href="#n" transform="matrix(1,0,0,1,365.33256001368363,677.0415033514537) translate(8 148.90972222222226)"/><use xlink:href="#o" transform="matrix(1,0,0,1,365.33256001368363,677.0415033514537) translate(87.80246913580248 148.90972222222226)"/><use xlink:href="#p" transform="matrix(1,0,0,1,365.33256001368363,677.0415033514537) translate(8 170.2430555555556)"/><use xlink:href="#e" transform="matrix(1,0,0,1,365.33256001368363,677.0415033514537) translate(8 191.57638888888894)"/><use xlink:href="#n" transform="matrix(1,0,0,1,365.33256001368363,677.0415033514537) translate(8 212.90972222222229)"/><use xlink:href="#q" transform="matrix(1,0,0,1,365.33256001368363,677.0415033514537) translate(87.80246913580248 212.90972222222229)"/><path d="M554 306.58h242.5v160H554z" stroke="#000" stroke-opacity="0" stroke-width="2" fill="#fff" fill-opacity="0"/><g><use xlink:href="#a" transform="matrix(1,0,0,1,559.00290623043,311.5789421408996) translate(8 23.59722222222222)"/><use xlink:href="#r" transform="matrix(1,0,0,1,559.00290623043,311.5789421408996) translate(87.80246913580248 23.59722222222222)"/><use xlink:href="#s" transform="matrix(1,0,0,1,559.00290623043,311.5789421408996) translate(162.76543209876547 23.59722222222222)"/><use xlink:href="#o" transform="matrix(1,0,0,1,559.00290623043,311.5789421408996) translate(187.45679012345684 23.59722222222222)"/><use xlink:href="#t" transform="matrix(1,0,0,1,559.00290623043,311.5789421408996) translate(8 44.93055555555556)"/><use xlink:href="#k" transform="matrix(1,0,0,1,559.00290623043,311.5789421408996) translate(8 66.2638888888889)"/><use xlink:href="#a" transform="matrix(1,0,0,1,559.00290623043,311.5789421408996) translate(8 87.59722222222223)"/><use xlink:href="#u" transform="matrix(1,0,0,1,559.00290623043,311.5789421408996) translate(87.80246913580248 87.59722222222223)"/><use xlink:href="#v" transform="matrix(1,0,0,1,559.00290623043,311.5789421408996) translate(124.3456790123457 87.59722222222223)"/><use xlink:href="#e" transform="matrix(1,0,0,1,559.00290623043,311.5789421408996) translate(8 108.93055555555557)"/><use xlink:href="#w" transform="matrix(1,0,0,1,559.00290623043,311.5789421408996) translate(8 130.2638888888889)"/><use xlink:href="#x" transform="matrix(1,0,0,1,559.00290623043,311.5789421408996) translate(106.61728395061729 130.2638888888889)"/><use xlink:href="#y" transform="matrix(1,0,0,1,559.00290623043,311.5789421408996) translate(166.76543209876544 130.2638888888889)"/></g><path d="M796.5 723.7h290.87v160H796.5z" stroke="#000" stroke-opacity="0" stroke-width="2" fill="#fff" fill-opacity="0"/><g><use xlink:href="#z" transform="matrix(1,0,0,1,801.4984694120187,728.7081700181204) translate(8 14.222222222222223)"/><use xlink:href="#A" transform="matrix(1,0,0,1,801.4984694120187,728.7081700181204) translate(60.2962962962963 14.222222222222223)"/><use xlink:href="#B" transform="matrix(1,0,0,1,801.4984694120187,728.7081700181204) translate(101.7283950617284 14.222222222222223)"/><use xlink:href="#C" transform="matrix(1,0,0,1,801.4984694120187,728.7081700181204) translate(177.62962962962965 14.222222222222223)"/><use xlink:href="#D" transform="matrix(1,0,0,1,801.4984694120187,728.7081700181204) translate(210.17283950617286 14.222222222222223)"/><use xlink:href="#e" transform="matrix(1,0,0,1,801.4984694120187,728.7081700181204) translate(8 35.55555555555556)"/><use xlink:href="#n" transform="matrix(1,0,0,1,801.4984694120187,728.7081700181204) translate(8 56.88888888888889)"/><use xlink:href="#E" transform="matrix(1,0,0,1,801.4984694120187,728.7081700181204) translate(87.80246913580248 56.88888888888889)"/><use xlink:href="#s" transform="matrix(1,0,0,1,801.4984694120187,728.7081700181204) translate(157.8271604938272 56.88888888888889)"/><use xlink:href="#F" transform="matrix(1,0,0,1,801.4984694120187,728.7081700181204) translate(182.51851851851856 56.88888888888889)"/><use xlink:href="#G" transform="matrix(1,0,0,1,801.4984694120187,728.7081700181204) translate(8 78.22222222222223)"/><use xlink:href="#e" transform="matrix(1,0,0,1,801.4984694120187,728.7081700181204) translate(8 99.55555555555557)"/><use xlink:href="#n" transform="matrix(1,0,0,1,801.4984694120187,728.7081700181204) translate(8 120.88888888888891)"/><use xlink:href="#E" transform="matrix(1,0,0,1,801.4984694120187,728.7081700181204) translate(87.80246913580248 120.88888888888891)"/><use xlink:href="#s" transform="matrix(1,0,0,1,801.4984694120187,728.7081700181204) translate(157.8271604938272 120.88888888888891)"/><use xlink:href="#o" transform="matrix(1,0,0,1,801.4984694120187,728.7081700181204) translate(182.51851851851856 120.88888888888891)"/><use xlink:href="#H" transform="matrix(1,0,0,1,801.4984694120187,728.7081700181204) translate(8 142.22222222222226)"/></g><path d="M360.33 573.9l-65.44-.04-32.08-25.33-32.57 25.33-64.13.03v55h194.2z" stroke="#000" stroke-opacity="0" fill="#d85656"/><g><use xlink:href="#I" transform="matrix(1,0,0,1,166.12456476850758,548.5298129754195) translate(59.16666666666667 58.5)"/><use xlink:href="#J" transform="matrix(1,0,0,1,166.12456476850758,548.5298129754195) translate(109.16666666666667 58.5)"/></g><g><path d="M360.2 628.8h72.7l24.43 25.3 24.05-25.3h72.72l.1-55.18-194.2.24z" stroke="#000" stroke-opacity="0" fill="#eb6b6b"/></g><g><use xlink:href="#I" transform="matrix(1,-2.4492935982947064e-16,2.4492935982947064e-16,1,360,573.6153625935327) translate(59.16666666666667 33)"/><use xlink:href="#K" transform="matrix(1,-2.4492935982947064e-16,2.4492935982947064e-16,1,360,573.6153625935327) translate(109.16666666666667 33)"/></g><path d="M796.5 573.6l-97.06-.04-24.24-24.67-24.24 24.66H554l.1 55.33h242.4z" stroke="#000" stroke-opacity="0" fill="#ff8080"/><g><use xlink:href="#I" transform="matrix(1,0,0,1,554.00290623043,548.8937848672954) translate(83.16666666666667 58)"/><use xlink:href="#L" transform="matrix(1,0,0,1,554.00290623043,548.8937848672954) translate(133.16666666666669 58)"/></g><g><path d="M796.5 628.8h121.2l24.23 25 24.24-25h121.2v-55.2H796.5z" stroke="#000" stroke-opacity="0" fill="#ffa0a0"/></g><g><use xlink:href="#M" transform="matrix(1,-2.4492935982947064e-16,2.4492935982947064e-16,1,796.4984694120186,573.5856369989705) translate(107.16666666666667 33)"/><use xlink:href="#N" transform="matrix(1,-2.4492935982947064e-16,2.4492935982947064e-16,1,796.4984694120186,573.5856369989705) translate(157.16666666666669 33)"/></g><defs><path fill="#333" d="M212-179c-10-28-35-45-73-45-59 0-87 40-87 99 0 60 29 101 89 101 43 0 62-24 78-52l27 14C228-24 195 4 139 4 59 4 22-46 18-125c-6-104 99-153 187-111 19 9 31 26 39 46" id="O"/><path fill="#333" d="M24-231v-30h32v30H24zM24 0v-190h32V0H24" id="P"/><path fill="#333" d="M114-163C36-179 61-72 57 0H25l-1-190h30c1 12-1 29 2 39 6-27 23-49 58-41v29" id="Q"/><path fill="#333" d="M96-169c-40 0-48 33-48 73s9 75 48 75c24 0 41-14 43-38l32 2c-6 37-31 61-74 61-59 0-76-41-82-99-10-93 101-131 147-64 4 7 5 14 7 22l-32 3c-4-21-16-35-41-35" id="R"/><path fill="#333" d="M24 0v-261h32V0H24" id="S"/><path fill="#333" d="M100-194c63 0 86 42 84 106H49c0 40 14 67 53 68 26 1 43-12 49-29l28 8c-11 28-37 45-77 45C44 4 14-33 15-96c1-61 26-98 85-98zm52 81c6-60-76-77-97-28-3 7-6 17-6 28h103" id="T"/><path fill="#333" d="M115-194c55 1 70 41 70 98S169 2 115 4C84 4 66-9 55-30l1 105H24l-1-265h31l2 30c10-21 28-34 59-34zm-8 174c40 0 45-34 45-75s-6-73-45-74c-42 0-51 32-51 76 0 43 10 73 51 73" id="U"/><path fill="#333" d="M100-194c62-1 85 37 85 99 1 63-27 99-86 99S16-35 15-95c0-66 28-99 85-99zM99-20c44 1 53-31 53-75 0-43-8-75-51-75s-53 32-53 75 10 74 51 75" id="V"/><path fill="#333" d="M85-194c31 0 48 13 60 33l-1-100h32l1 261h-30c-2-10 0-23-3-31C134-8 116 4 85 4 32 4 16-35 15-94c0-66 23-100 70-100zm9 24c-40 0-46 34-46 75 0 40 6 74 45 74 42 0 51-32 51-76 0-42-9-74-50-73" id="W"/><g id="a"><use transform="matrix(0.04938271604938272,0,0,0.04938271604938272,0,0)" xlink:href="#O"/><use transform="matrix(0.04938271604938272,0,0,0.04938271604938272,12.790123456790125,0)" xlink:href="#P"/><use transform="matrix(0.04938271604938272,0,0,0.04938271604938272,16.69135802469136,0)" xlink:href="#Q"/><use transform="matrix(0.04938271604938272,0,0,0.04938271604938272,22.567901234567906,0)" xlink:href="#R"/><use transform="matrix(0.04938271604938272,0,0,0.04938271604938272,31.45679012345679,0)" xlink:href="#S"/><use transform="matrix(0.04938271604938272,0,0,0.04938271604938272,35.35802469135803,0)" xlink:href="#T"/><use transform="matrix(0.04938271604938272,0,0,0.04938271604938272,45.23456790123458,0)" xlink:href="#U"/><use transform="matrix(0.04938271604938272,0,0,0.04938271604938272,55.111111111111114,0)" xlink:href="#V"/><use transform="matrix(0.04938271604938272,0,0,0.04938271604938272,64.98765432098767,0)" xlink:href="#W"/></g><path fill="#333" d="M30-248c87 1 191-15 191 75 0 78-77 80-158 76V0H30v-248zm33 125c57 0 124 11 124-50 0-59-68-47-124-48v98" id="X"/><path fill="#333" d="M59-47c-2 24 18 29 38 22v24C64 9 27 4 27-40v-127H5v-23h24l9-43h21v43h35v23H59v120" id="Y"/><g id="b"><use transform="matrix(0.04938271604938272,0,0,0.04938271604938272,0,0)" xlink:href="#X"/><use transform="matrix(0.04938271604938272,0,0,0.04938271604938272,11.851851851851853,0)" xlink:href="#Q"/><use transform="matrix(0.04938271604938272,0,0,0.04938271604938272,17.728395061728396,0)" xlink:href="#V"/><use transform="matrix(0.04938271604938272,0,0,0.04938271604938272,27.60493827160494,0)" xlink:href="#Y"/><use transform="matrix(0.04938271604938272,0,0,0.04938271604938272,32.543209876543216,0)" xlink:href="#V"/><use transform="matrix(0.04938271604938272,0,0,0.04938271604938272,42.41975308641976,0)" xlink:href="#R"/><use transform="matrix(0.04938271604938272,0,0,0.04938271604938272,51.308641975308646,0)" xlink:href="#V"/><use transform="matrix(0.04938271604938272,0,0,0.04938271604938272,61.18518518518519,0)" xlink:href="#S"/></g><path fill="#333" d="M190 0L58-211 59 0H30v-248h39L202-35l-2-213h31V0h-41" id="Z"/><path fill="#333" d="M63-220v92h138v28H63V0H30v-248h175v28H63" id="aa"/><path fill="#333" d="M127-220V0H93v-220H8v-28h204v28h-85" id="ab"/><g id="c"><use transform="matrix(0.04938271604938272,0,0,0.04938271604938272,0,0)" xlink:href="#Z"/><use transform="matrix(0.04938271604938272,0,0,0.04938271604938272,12.790123456790125,0)" xlink:href="#aa"/><use transform="matrix(0.04938271604938272,0,0,0.04938271604938272,23.60493827160494,0)" xlink:href="#ab"/></g><path fill="#333" d="M108 0H70L1-190h34L89-25l56-165h34" id="ac"/><path fill="#333" d="M206 0h-36l-40-164L89 0H53L-1-190h32L70-26l43-164h34l41 164 42-164h31" id="ad"/><g id="d"><use transform="matrix(0.04938271604938272,0,0,0.04938271604938272,0,0)" xlink:href="#X"/><use transform="matrix(0.04938271604938272,0,0,0.04938271604938272,11.851851851851853,0)" xlink:href="#Q"/><use transform="matrix(0.04938271604938272,0,0,0.04938271604938272,17.728395061728396,0)" xlink:href="#T"/><use transform="matrix(0.04938271604938272,0,0,0.04938271604938272,27.60493827160494,0)" xlink:href="#ac"/><use transform="matrix(0.04938271604938272,0,0,0.04938271604938272,36.49382716049383,0)" xlink:href="#P"/><use transform="matrix(0.04938271604938272,0,0,0.04938271604938272,40.39506172839506,0)" xlink:href="#T"/><use transform="matrix(0.04938271604938272,0,0,0.04938271604938272,50.27160493827161,0)" xlink:href="#ad"/></g><path fill="#333" d="M185-189c-5-48-123-54-124 2 14 75 158 14 163 119 3 78-121 87-175 55-17-10-28-26-33-46l33-7c5 56 141 63 141-1 0-78-155-14-162-118-5-82 145-84 179-34 5 7 8 16 11 25" id="ae"/><path fill="#333" d="M141-36C126-15 110 5 73 4 37 3 15-17 15-53c-1-64 63-63 125-63 3-35-9-54-41-54-24 1-41 7-42 31l-33-3c5-37 33-52 76-52 45 0 72 20 72 64v82c-1 20 7 32 28 27v20c-31 9-61-2-59-35zM48-53c0 20 12 33 32 33 41-3 63-29 60-74-43 2-92-5-92 41" id="af"/><path fill="#333" d="M117-194c89-4 53 116 60 194h-32v-121c0-31-8-49-39-48C34-167 62-67 57 0H25l-1-190h30c1 10-1 24 2 32 11-22 29-35 61-36" id="ag"/><g id="f"><use transform="matrix(0.04938271604938272,0,0,0.04938271604938272,0,0)" xlink:href="#ae"/><use transform="matrix(0.04938271604938272,0,0,0.04938271604938272,11.851851851851853,0)" xlink:href="#V"/><use transform="matrix(0.04938271604938272,0,0,0.04938271604938272,21.7283950617284,0)" xlink:href="#S"/><use transform="matrix(0.04938271604938272,0,0,0.04938271604938272,25.629629629629633,0)" xlink:href="#af"/><use transform="matrix(0.04938271604938272,0,0,0.04938271604938272,35.50617283950618,0)" xlink:href="#ag"/><use transform="matrix(0.04938271604938272,0,0,0.04938271604938272,45.38271604938272,0)" xlink:href="#af"/></g><path fill="#333" d="M197 0v-115H63V0H30v-248h33v105h134v-105h34V0h-34" id="ah"/><path fill="#333" d="M143 0L79-87 56-68V0H24v-261h32v163l83-92h37l-77 82L181 0h-38" id="ai"/><path fill="#333" d="M106-169C34-169 62-67 57 0H25v-261h32l-1 103c12-21 28-36 61-36 89 0 53 116 60 194h-32v-121c2-32-8-49-39-48" id="aj"/><g id="g"><use transform="matrix(0.04938271604938272,0,0,0.04938271604938272,0,0)" xlink:href="#ah"/><use transform="matrix(0.04938271604938272,0,0,0.04938271604938272,12.790123456790125,0)" xlink:href="#af"/><use transform="matrix(0.04938271604938272,0,0,0.04938271604938272,22.66666666666667,0)" xlink:href="#R"/><use transform="matrix(0.04938271604938272,0,0,0.04938271604938272,31.555555555555557,0)" xlink:href="#ai"/><use transform="matrix(0.04938271604938272,0,0,0.04938271604938272,40.44444444444445,0)" xlink:href="#af"/><use transform="matrix(0.04938271604938272,0,0,0.04938271604938272,50.320987654320994,0)" xlink:href="#Y"/><use transform="matrix(0.04938271604938272,0,0,0.04938271604938272,55.25925925925927,0)" xlink:href="#aj"/><use transform="matrix(0.04938271604938272,0,0,0.04938271604938272,65.13580246913581,0)" xlink:href="#V"/><use transform="matrix(0.04938271604938272,0,0,0.04938271604938272,75.01234567901236,0)" xlink:href="#ag"/></g><path fill="#333" d="M198-261c85 0 136 45 136 128 0 61-22 111-78 115-29 2-39-18-37-44-12 23-32 44-66 44-41 0-58-28-58-68 0-60 30-105 88-108 29-1 43 15 54 32l7-28h28c-9 45-23 84-27 134-1 11 6 17 14 16 39-4 51-48 51-92 0-69-42-107-112-107-93 0-145 59-145 153C53-15 94 26 168 27c43 0 78-13 106-28l9 19c-30 18-67 32-115 32C79 50 28-1 28-86c0-107 62-175 170-175zM158-41c46 0 70-43 70-90 0-26-17-40-43-40-44 0-59 41-61 85-1 26 9 45 34 45" id="ak"/><path fill="#333" d="M205 0l-28-72H64L36 0H1l101-248h38L239 0h-34zm-38-99l-47-123c-12 45-31 82-46 123h93" id="al"/><path fill="#333" d="M135-143c-3-34-86-38-87 0 15 53 115 12 119 90S17 21 10-45l28-5c4 36 97 45 98 0-10-56-113-15-118-90-4-57 82-63 122-42 12 7 21 19 24 35" id="am"/><g id="h"><use transform="matrix(0.04938271604938272,0,0,0.04938271604938272,0,0)" xlink:href="#ak"/><use transform="matrix(0.04938271604938272,0,0,0.04938271604938272,18.024691358024693,0)" xlink:href="#al"/><use transform="matrix(0.04938271604938272,0,0,0.04938271604938272,29.876543209876544,0)" xlink:href="#am"/><use transform="matrix(0.04938271604938272,0,0,0.04938271604938272,38.76543209876543,0)" xlink:href="#P"/><use transform="matrix(0.04938271604938272,0,0,0.04938271604938272,42.666666666666664,0)" xlink:href="#af"/></g><path fill="#333" d="M160-131c35 5 61 23 61 61C221 17 115-2 30 0v-248c76 3 177-17 177 60 0 33-19 50-47 57zm-97-11c50-1 110 9 110-42 0-47-63-36-110-37v79zm0 115c55-2 124 14 124-45 0-56-70-42-124-44v89" id="an"/><g id="i"><use transform="matrix(0.04938271604938272,0,0,0.04938271604938272,0,0)" xlink:href="#an"/><use transform="matrix(0.04938271604938272,0,0,0.04938271604938272,11.851851851851853,0)" xlink:href="#T"/><use transform="matrix(0.04938271604938272,0,0,0.04938271604938272,21.7283950617284,0)" xlink:href="#Y"/><use transform="matrix(0.04938271604938272,0,0,0.04938271604938272,26.666666666666668,0)" xlink:href="#af"/></g><path fill="#333" d="M233-177c-1 41-23 64-60 70L243 0h-38l-65-103H63V0H30v-248c88 3 205-21 203 71zM63-129c60-2 137 13 137-47 0-61-80-42-137-45v92" id="ao"/><g id="j"><use transform="matrix(0.04938271604938272,0,0,0.04938271604938272,0,0)" xlink:href="#ao"/><use transform="matrix(0.04938271604938272,0,0,0.04938271604938272,12.790123456790125,0)" xlink:href="#T"/><use transform="matrix(0.04938271604938272,0,0,0.04938271604938272,22.66666666666667,0)" xlink:href="#S"/><use transform="matrix(0.04938271604938272,0,0,0.04938271604938272,26.567901234567902,0)" xlink:href="#T"/><use transform="matrix(0.04938271604938272,0,0,0.04938271604938272,36.44444444444445,0)" xlink:href="#af"/><use transform="matrix(0.04938271604938272,0,0,0.04938271604938272,46.320987654320994,0)" xlink:href="#am"/><use transform="matrix(0.04938271604938272,0,0,0.04938271604938272,55.209876543209894,0)" xlink:href="#T"/></g><path fill="#333" d="M140-251c81 0 123 46 123 126C263-46 219 4 140 4 59 4 17-45 17-125s42-126 123-126zm0 227c63 0 89-41 89-101s-29-99-89-99c-61 0-89 39-89 99S79-25 140-24" id="ap"/><g id="l"><use transform="matrix(0.04938271604938272,0,0,0.04938271604938272,0,0)" xlink:href="#ap"/><use transform="matrix(0.04938271604938272,0,0,0.04938271604938272,13.827160493827162,0)" xlink:href="#U"/><use transform="matrix(0.04938271604938272,0,0,0.04938271604938272,23.703703703703706,0)" xlink:href="#T"/><use transform="matrix(0.04938271604938272,0,0,0.04938271604938272,33.580246913580254,0)" xlink:href="#ag"/></g><path fill="#333" d="M84 4C-5 8 30-112 23-190h32v120c0 31 7 50 39 49 72-2 45-101 50-169h31l1 190h-30c-1-10 1-25-2-33-11 22-28 36-60 37" id="aq"/><g id="m"><use transform="matrix(0.04938271604938272,0,0,0.04938271604938272,0,0)" xlink:href="#ae"/><use transform="matrix(0.04938271604938272,0,0,0.04938271604938272,11.851851851851853,0)" xlink:href="#V"/><use transform="matrix(0.04938271604938272,0,0,0.04938271604938272,21.7283950617284,0)" xlink:href="#aq"/><use transform="matrix(0.04938271604938272,0,0,0.04938271604938272,31.60493827160494,0)" xlink:href="#Q"/><use transform="matrix(0.04938271604938272,0,0,0.04938271604938272,37.48148148148149,0)" xlink:href="#R"/><use transform="matrix(0.04938271604938272,0,0,0.04938271604938272,46.37037037037038,0)" xlink:href="#T"/></g><g id="n"><use transform="matrix(0.04938271604938272,0,0,0.04938271604938272,0,0)" xlink:href="#O"/><use transform="matrix(0.04938271604938272,0,0,0.04938271604938272,12.790123456790125,0)" xlink:href="#P"/><use transform="matrix(0.04938271604938272,0,0,0.04938271604938272,16.69135802469136,0)" xlink:href="#Q"/><use transform="matrix(0.04938271604938272,0,0,0.04938271604938272,22.567901234567906,0)" xlink:href="#R"/><use transform="matrix(0.04938271604938272,0,0,0.04938271604938272,31.45679012345679,0)" xlink:href="#S"/><use transform="matrix(0.04938271604938272,0,0,0.04938271604938272,35.35802469135803,0)" xlink:href="#T"/><use transform="matrix(0.04938271604938272,0,0,0.04938271604938272,45.23456790123458,0)" xlink:href="#U"/><use transform="matrix(0.04938271604938272,0,0,0.04938271604938272,55.111111111111114,0)" xlink:href="#V"/><use transform="matrix(0.04938271604938272,0,0,0.04938271604938272,64.98765432098767,0)" xlink:href="#W"/></g><g id="o"><use transform="matrix(0.04938271604938272,0,0,0.04938271604938272,0,0)" xlink:href="#al"/><use transform="matrix(0.04938271604938272,0,0,0.04938271604938272,11.851851851851853,0)" xlink:href="#U"/><use transform="matrix(0.04938271604938272,0,0,0.04938271604938272,21.7283950617284,0)" xlink:href="#U"/></g><path fill="#333" d="M30-248c118-7 216 8 213 122C240-48 200 0 122 0H30v-248zM63-27c89 8 146-16 146-99s-60-101-146-95v194" id="ar"/><path fill="#333" d="M177-190C167-65 218 103 67 71c-23-6-38-20-44-43l32-5c15 47 100 32 89-28v-30C133-14 115 1 83 1 29 1 15-40 15-95c0-56 16-97 71-98 29-1 48 16 59 35 1-10 0-23 2-32h30zM94-22c36 0 50-32 50-73 0-42-14-75-50-75-39 0-46 34-46 75s6 73 46 73" id="as"/><g id="p"><use transform="matrix(0.04938271604938272,0,0,0.04938271604938272,0,0)" xlink:href="#ar"/><use transform="matrix(0.04938271604938272,0,0,0.04938271604938272,12.790123456790125,0)" xlink:href="#T"/><use transform="matrix(0.04938271604938272,0,0,0.04938271604938272,22.66666666666667,0)" xlink:href="#ac"/><use transform="matrix(0.04938271604938272,0,0,0.04938271604938272,31.555555555555557,0)" xlink:href="#T"/><use transform="matrix(0.04938271604938272,0,0,0.04938271604938272,41.4320987654321,0)" xlink:href="#S"/><use transform="matrix(0.04938271604938272,0,0,0.04938271604938272,45.333333333333336,0)" xlink:href="#V"/><use transform="matrix(0.04938271604938272,0,0,0.04938271604938272,55.20987654320988,0)" xlink:href="#U"/><use transform="matrix(0.04938271604938272,0,0,0.04938271604938272,65.08641975308643,0)" xlink:href="#P"/><use transform="matrix(0.04938271604938272,0,0,0.04938271604938272,68.98765432098767,0)" xlink:href="#ag"/><use transform="matrix(0.04938271604938272,0,0,0.04938271604938272,78.86419753086422,0)" xlink:href="#as"/></g><path fill="#333" d="M210-169c-67 3-38 105-44 169h-31v-121c0-29-5-50-35-48C34-165 62-65 56 0H25l-1-190h30c1 10-1 24 2 32 10-44 99-50 107 0 11-21 27-35 58-36 85-2 47 119 55 194h-31v-121c0-29-5-49-35-48" id="at"/><path fill="#333" d="M179-190L93 31C79 59 56 82 12 73V49c39 6 53-20 64-50L1-190h34L92-34l54-156h33" id="au"/><g id="q"><use transform="matrix(0.04938271604938272,0,0,0.04938271604938272,0,0)" xlink:href="#O"/><use transform="matrix(0.04938271604938272,0,0,0.04938271604938272,12.790123456790125,0)" xlink:href="#V"/><use transform="matrix(0.04938271604938272,0,0,0.04938271604938272,22.66666666666667,0)" xlink:href="#at"/><use transform="matrix(0.04938271604938272,0,0,0.04938271604938272,37.4320987654321,0)" xlink:href="#at"/><use transform="matrix(0.04938271604938272,0,0,0.04938271604938272,52.19753086419754,0)" xlink:href="#aq"/><use transform="matrix(0.04938271604938272,0,0,0.04938271604938272,62.074074074074076,0)" xlink:href="#ag"/><use transform="matrix(0.04938271604938272,0,0,0.04938271604938272,71.95061728395062,0)" xlink:href="#P"/><use transform="matrix(0.04938271604938272,0,0,0.04938271604938272,75.85185185185186,0)" xlink:href="#Y"/><use transform="matrix(0.04938271604938272,0,0,0.04938271604938272,80.79012345679013,0)" xlink:href="#au"/></g><g id="r"><use transform="matrix(0.04938271604938272,0,0,0.04938271604938272,0,0)" xlink:href="#X"/><use transform="matrix(0.04938271604938272,0,0,0.04938271604938272,11.851851851851853,0)" xlink:href="#Q"/><use transform="matrix(0.04938271604938272,0,0,0.04938271604938272,17.728395061728396,0)" xlink:href="#V"/><use transform="matrix(0.04938271604938272,0,0,0.04938271604938272,27.60493827160494,0)" xlink:href="#Y"/><use transform="matrix(0.04938271604938272,0,0,0.04938271604938272,32.543209876543216,0)" xlink:href="#V"/><use transform="matrix(0.04938271604938272,0,0,0.04938271604938272,42.41975308641976,0)" xlink:href="#R"/><use transform="matrix(0.04938271604938272,0,0,0.04938271604938272,51.308641975308646,0)" xlink:href="#V"/><use transform="matrix(0.04938271604938272,0,0,0.04938271604938272,61.18518518518519,0)" xlink:href="#S"/></g><g id="s"><use transform="matrix(0.04938271604938272,0,0,0.04938271604938272,0,0)" xlink:href="#V"/><use transform="matrix(0.04938271604938272,0,0,0.04938271604938272,9.876543209876544,0)" xlink:href="#ag"/></g><g id="t"><use transform="matrix(0.04938271604938272,0,0,0.04938271604938272,0,0)" xlink:href="#an"/><use transform="matrix(0.04938271604938272,0,0,0.04938271604938272,11.851851851851853,0)" xlink:href="#T"/><use transform="matrix(0.04938271604938272,0,0,0.04938271604938272,21.7283950617284,0)" xlink:href="#Y"/><use transform="matrix(0.04938271604938272,0,0,0.04938271604938272,26.666666666666668,0)" xlink:href="#af"/></g><g id="u"><use transform="matrix(0.04938271604938272,0,0,0.04938271604938272,0,0)" xlink:href="#al"/><use transform="matrix(0.04938271604938272,0,0,0.04938271604938272,11.851851851851853,0)" xlink:href="#U"/><use transform="matrix(0.04938271604938272,0,0,0.04938271604938272,21.7283950617284,0)" xlink:href="#U"/></g><g id="v"><use transform="matrix(0.04938271604938272,0,0,0.04938271604938272,0,0)" xlink:href="#ao"/><use transform="matrix(0.04938271604938272,0,0,0.04938271604938272,12.790123456790125,0)" xlink:href="#T"/><use transform="matrix(0.04938271604938272,0,0,0.04938271604938272,22.66666666666667,0)" xlink:href="#S"/><use transform="matrix(0.04938271604938272,0,0,0.04938271604938272,26.567901234567902,0)" xlink:href="#T"/><use transform="matrix(0.04938271604938272,0,0,0.04938271604938272,36.44444444444445,0)" xlink:href="#af"/><use transform="matrix(0.04938271604938272,0,0,0.04938271604938272,46.320987654320994,0)" xlink:href="#am"/><use transform="matrix(0.04938271604938272,0,0,0.04938271604938272,55.209876543209894,0)" xlink:href="#T"/></g><g id="w"><use transform="matrix(0.04938271604938272,0,0,0.04938271604938272,0,0)" xlink:href="#ab"/><use transform="matrix(0.04938271604938272,0,0,0.04938271604938272,8.839506172839506,0)" xlink:href="#V"/><use transform="matrix(0.04938271604938272,0,0,0.04938271604938272,18.71604938271605,0)" xlink:href="#ai"/><use transform="matrix(0.04938271604938272,0,0,0.04938271604938272,27.60493827160494,0)" xlink:href="#T"/><use transform="matrix(0.04938271604938272,0,0,0.04938271604938272,37.48148148148148,0)" xlink:href="#ag"/><use transform="matrix(0.04938271604938272,0,0,0.04938271604938272,47.358024691358025,0)" xlink:href="#V"/><use transform="matrix(0.04938271604938272,0,0,0.04938271604938272,57.23456790123457,0)" xlink:href="#at"/><use transform="matrix(0.04938271604938272,0,0,0.04938271604938272,72,0)" xlink:href="#P"/><use transform="matrix(0.04938271604938272,0,0,0.04938271604938272,75.90123456790124,0)" xlink:href="#R"/><use transform="matrix(0.04938271604938272,0,0,0.04938271604938272,84.79012345679013,0)" xlink:href="#am"/></g><g id="x"><use transform="matrix(0.04938271604938272,0,0,0.04938271604938272,0,0)" xlink:href="#ar"/><use transform="matrix(0.04938271604938272,0,0,0.04938271604938272,12.790123456790125,0)" xlink:href="#T"/><use transform="matrix(0.04938271604938272,0,0,0.04938271604938272,22.66666666666667,0)" xlink:href="#am"/><use transform="matrix(0.04938271604938272,0,0,0.04938271604938272,31.555555555555557,0)" xlink:href="#P"/><use transform="matrix(0.04938271604938272,0,0,0.04938271604938272,35.4567901234568,0)" xlink:href="#as"/><use transform="matrix(0.04938271604938272,0,0,0.04938271604938272,45.33333333333334,0)" xlink:href="#ag"/></g><path fill="#333" d="M9 0v-24l116-142H16v-24h144v24L44-24h123V0H9" id="av"/><g id="y"><use transform="matrix(0.04938271604938272,0,0,0.04938271604938272,0,0)" xlink:href="#aa"/><use transform="matrix(0.04938271604938272,0,0,0.04938271604938272,10.814814814814815,0)" xlink:href="#P"/><use transform="matrix(0.04938271604938272,0,0,0.04938271604938272,14.71604938271605,0)" xlink:href="#ag"/><use transform="matrix(0.04938271604938272,0,0,0.04938271604938272,24.592592592592595,0)" xlink:href="#af"/><use transform="matrix(0.04938271604938272,0,0,0.04938271604938272,34.46913580246914,0)" xlink:href="#S"/><use transform="matrix(0.04938271604938272,0,0,0.04938271604938272,38.370370370370374,0)" xlink:href="#P"/><use transform="matrix(0.04938271604938272,0,0,0.04938271604938272,42.27160493827161,0)" xlink:href="#av"/><use transform="matrix(0.04938271604938272,0,0,0.04938271604938272,51.1604938271605,0)" xlink:href="#T"/></g><g id="z"><use transform="matrix(0.04938271604938272,0,0,0.04938271604938272,0,0)" xlink:href="#ab"/><use transform="matrix(0.04938271604938272,0,0,0.04938271604938272,8.839506172839506,0)" xlink:href="#V"/><use transform="matrix(0.04938271604938272,0,0,0.04938271604938272,18.71604938271605,0)" xlink:href="#ai"/><use transform="matrix(0.04938271604938272,0,0,0.04938271604938272,27.60493827160494,0)" xlink:href="#T"/><use transform="matrix(0.04938271604938272,0,0,0.04938271604938272,37.48148148148148,0)" xlink:href="#ag"/></g><path fill="#333" d="M33 0v-248h34V0H33" id="aw"/><path fill="#333" d="M68-38c1 34 0 65-14 84H32c9-13 17-26 17-46H33v-38h35" id="ax"/><g id="A"><use transform="matrix(0.04938271604938272,0,0,0.04938271604938272,0,0)" xlink:href="#aw"/><use transform="matrix(0.04938271604938272,0,0,0.04938271604938272,4.938271604938272,0)" xlink:href="#ar"/><use transform="matrix(0.04938271604938272,0,0,0.04938271604938272,17.7283950617284,0)" xlink:href="#ap"/><use transform="matrix(0.04938271604938272,0,0,0.04938271604938272,31.555555555555557,0)" xlink:href="#ax"/></g><g id="B"><use transform="matrix(0.04938271604938272,0,0,0.04938271604938272,0,0)" xlink:href="#al"/><use transform="matrix(0.04938271604938272,0,0,0.04938271604938272,11.851851851851853,0)" xlink:href="#P"/><use transform="matrix(0.04938271604938272,0,0,0.04938271604938272,15.753086419753087,0)" xlink:href="#Q"/><use transform="matrix(0.04938271604938272,0,0,0.04938271604938272,21.629629629629633,0)" xlink:href="#W"/><use transform="matrix(0.04938271604938272,0,0,0.04938271604938272,31.506172839506174,0)" xlink:href="#Q"/><use transform="matrix(0.04938271604938272,0,0,0.04938271604938272,37.38271604938272,0)" xlink:href="#V"/><use transform="matrix(0.04938271604938272,0,0,0.04938271604938272,47.25925925925927,0)" xlink:href="#U"/><use transform="matrix(0.04938271604938272,0,0,0.04938271604938272,57.135802469135804,0)" xlink:href="#am"/><use transform="matrix(0.04938271604938272,0,0,0.04938271604938272,66.0246913580247,0)" xlink:href="#ax"/></g><g id="C"><use transform="matrix(0.04938271604938272,0,0,0.04938271604938272,0,0)" xlink:href="#X"/><use transform="matrix(0.04938271604938272,0,0,0.04938271604938272,11.851851851851853,0)" xlink:href="#Q"/><use transform="matrix(0.04938271604938272,0,0,0.04938271604938272,17.728395061728396,0)" xlink:href="#T"/></g><g id="D"><use transform="matrix(0.04938271604938272,0,0,0.04938271604938272,0,0)" xlink:href="#ae"/><use transform="matrix(0.04938271604938272,0,0,0.04938271604938272,11.851851851851853,0)" xlink:href="#af"/><use transform="matrix(0.04938271604938272,0,0,0.04938271604938272,21.7283950617284,0)" xlink:href="#S"/><use transform="matrix(0.04938271604938272,0,0,0.04938271604938272,25.629629629629633,0)" xlink:href="#T"/></g><g id="E"><use transform="matrix(0.04938271604938272,0,0,0.04938271604938272,0,0)" xlink:href="#X"/><use transform="matrix(0.04938271604938272,0,0,0.04938271604938272,11.851851851851853,0)" xlink:href="#Q"/><use transform="matrix(0.04938271604938272,0,0,0.04938271604938272,17.728395061728396,0)" xlink:href="#V"/><use transform="matrix(0.04938271604938272,0,0,0.04938271604938272,27.60493827160494,0)" xlink:href="#Y"/><use transform="matrix(0.04938271604938272,0,0,0.04938271604938272,32.543209876543216,0)" xlink:href="#V"/><use transform="matrix(0.04938271604938272,0,0,0.04938271604938272,42.41975308641976,0)" xlink:href="#R"/><use transform="matrix(0.04938271604938272,0,0,0.04938271604938272,51.308641975308646,0)" xlink:href="#V"/><use transform="matrix(0.04938271604938272,0,0,0.04938271604938272,61.18518518518519,0)" xlink:href="#S"/></g><g id="F"><use transform="matrix(0.04938271604938272,0,0,0.04938271604938272,0,0)" xlink:href="#ae"/><use transform="matrix(0.04938271604938272,0,0,0.04938271604938272,11.851851851851853,0)" xlink:href="#V"/><use transform="matrix(0.04938271604938272,0,0,0.04938271604938272,21.7283950617284,0)" xlink:href="#S"/><use transform="matrix(0.04938271604938272,0,0,0.04938271604938272,25.629629629629633,0)" xlink:href="#af"/><use transform="matrix(0.04938271604938272,0,0,0.04938271604938272,35.50617283950618,0)" xlink:href="#ag"/><use transform="matrix(0.04938271604938272,0,0,0.04938271604938272,45.38271604938272,0)" xlink:href="#af"/></g><path fill="#333" d="M240 0l2-218c-23 76-54 145-80 218h-23L58-218 59 0H30v-248h44l77 211c21-75 51-140 76-211h43V0h-30" id="ay"/><g id="G"><use transform="matrix(0.04938271604938272,0,0,0.04938271604938272,0,0)" xlink:href="#ay"/><use transform="matrix(0.04938271604938272,0,0,0.04938271604938272,14.765432098765434,0)" xlink:href="#af"/><use transform="matrix(0.04938271604938272,0,0,0.04938271604938272,24.641975308641978,0)" xlink:href="#P"/><use transform="matrix(0.04938271604938272,0,0,0.04938271604938272,28.543209876543212,0)" xlink:href="#ag"/><use transform="matrix(0.04938271604938272,0,0,0.04938271604938272,38.41975308641976,0)" xlink:href="#ag"/><use transform="matrix(0.04938271604938272,0,0,0.04938271604938272,48.296296296296305,0)" xlink:href="#T"/><use transform="matrix(0.04938271604938272,0,0,0.04938271604938272,58.17283950617284,0)" xlink:href="#Y"/></g><g id="H"><use transform="matrix(0.04938271604938272,0,0,0.04938271604938272,0,0)" xlink:href="#ao"/><use transform="matrix(0.04938271604938272,0,0,0.04938271604938272,12.790123456790125,0)" xlink:href="#T"/><use transform="matrix(0.04938271604938272,0,0,0.04938271604938272,22.66666666666667,0)" xlink:href="#S"/><use transform="matrix(0.04938271604938272,0,0,0.04938271604938272,26.567901234567902,0)" xlink:href="#T"/><use transform="matrix(0.04938271604938272,0,0,0.04938271604938272,36.44444444444445,0)" xlink:href="#af"/><use transform="matrix(0.04938271604938272,0,0,0.04938271604938272,46.320987654320994,0)" xlink:href="#am"/><use transform="matrix(0.04938271604938272,0,0,0.04938271604938272,55.209876543209894,0)" xlink:href="#T"/></g><path fill="#fff" d="M182-182c0 78-84 86-111 141h115V0H12c-6-101 99-100 120-180 1-22-12-31-33-32-23 0-32 14-35 34l-49-3c5-45 32-70 84-70 51 0 83 22 83 69" id="az"/><path fill="#fff" d="M101-251c68 0 84 54 84 127C185-50 166 4 99 4S15-52 14-124c-1-75 17-127 87-127zm-1 216c37-5 36-46 36-89s4-89-36-89c-39 0-36 45-36 89 0 43-3 85 36 89" id="aA"/><path fill="#fff" d="M23 0v-37h61v-169l-59 37v-38l62-41h46v211h57V0H23" id="aB"/><g id="I"><use transform="matrix(0.05555555555555555,0,0,0.05555555555555555,0,0)" xlink:href="#az"/><use transform="matrix(0.05555555555555555,0,0,0.05555555555555555,11.11111111111111,0)" xlink:href="#aA"/><use transform="matrix(0.05555555555555555,0,0,0.05555555555555555,22.22222222222222,0)" xlink:href="#az"/><use transform="matrix(0.05555555555555555,0,0,0.05555555555555555,33.33333333333333,0)" xlink:href="#aB"/></g><path fill="#fff" d="M140-251c80 0 125 45 125 126 0 70-33 111-92 124 6 28 34 38 68 31l-1 36C177 83 129 55 120 2 51-6 15-50 15-125c0-81 44-126 125-126zm-1 214c52 0 73-35 73-88 0-50-21-86-72-86-52 0-73 35-73 86s22 88 72 88" id="aC"/><g id="J"><use transform="matrix(0.05555555555555555,0,0,0.05555555555555555,0,0)" xlink:href="#aC"/><use transform="matrix(0.05555555555555555,0,0,0.05555555555555555,15.555555555555555,0)" xlink:href="#az"/></g><path fill="#fff" d="M128-127c34 4 56 21 59 58 7 91-148 94-172 28-4-9-6-17-7-26l51-5c1 24 16 35 40 36 23 0 39-12 38-36-1-31-31-36-65-34v-40c32 2 59-3 59-33 0-20-13-33-34-33s-33 13-35 32l-50-3c6-44 37-68 86-68 50 0 83 20 83 66 0 35-22 52-53 58" id="aD"/><g id="K"><use transform="matrix(0.05555555555555555,0,0,0.05555555555555555,0,0)" xlink:href="#aC"/><use transform="matrix(0.05555555555555555,0,0,0.05555555555555555,15.555555555555555,0)" xlink:href="#aD"/></g><path fill="#fff" d="M165-50V0h-47v-50H5v-38l105-160h55v161h33v37h-33zm-47-37l2-116L46-87h72" id="aE"/><g id="L"><use transform="matrix(0.05555555555555555,0,0,0.05555555555555555,0,0)" xlink:href="#aC"/><use transform="matrix(0.05555555555555555,0,0,0.05555555555555555,15.555555555555555,0)" xlink:href="#aE"/></g><path fill="#333" d="M182-182c0 78-84 86-111 141h115V0H12c-6-101 99-100 120-180 1-22-12-31-33-32-23 0-32 14-35 34l-49-3c5-45 32-70 84-70 51 0 83 22 83 69" id="aF"/><path fill="#333" d="M101-251c68 0 84 54 84 127C185-50 166 4 99 4S15-52 14-124c-1-75 17-127 87-127zm-1 216c37-5 36-46 36-89s4-89-36-89c-39 0-36 45-36 89 0 43-3 85 36 89" id="aG"/><g id="M"><use transform="matrix(0.05555555555555555,0,0,0.05555555555555555,0,0)" xlink:href="#aF"/><use transform="matrix(0.05555555555555555,0,0,0.05555555555555555,11.11111111111111,0)" xlink:href="#aG"/><use transform="matrix(0.05555555555555555,0,0,0.05555555555555555,22.22222222222222,0)" xlink:href="#aF"/><use transform="matrix(0.05555555555555555,0,0,0.05555555555555555,33.33333333333333,0)" xlink:href="#aF"/></g><path fill="#333" d="M140-251c80 0 125 45 125 126 0 70-33 111-92 124 6 28 34 38 68 31l-1 36C177 83 129 55 120 2 51-6 15-50 15-125c0-81 44-126 125-126zm-1 214c52 0 73-35 73-88 0-50-21-86-72-86-52 0-73 35-73 86s22 88 72 88" id="aH"/><path fill="#333" d="M23 0v-37h61v-169l-59 37v-38l62-41h46v211h57V0H23" id="aI"/><g id="N"><use transform="matrix(0.05555555555555555,0,0,0.05555555555555555,0,0)" xlink:href="#aH"/><use transform="matrix(0.05555555555555555,0,0,0.05555555555555555,15.555555555555555,0)" xlink:href="#aI"/></g></defs></g></svg>